# This file uses centimeters as units for non-parametric coordinates.

mtllib cube.mtl
g default
v -2.897578 0.000000 2.897578
v 2.897578 0.000000 2.897578
v -2.897578 5.795156 2.897578
v 2.897578 5.795156 2.897578
v -2.897578 5.795156 -2.897578
v 2.897578 5.795156 -2.897578
v -2.897578 0.000000 -2.897578
v 2.897578 0.000000 -2.897578
v -2.897578 18.632610 2.897578
v 2.897578 18.632610 2.897578
v 2.897578 18.632610 -2.897578
v -2.897578 18.632610 -2.897578
v -1.445212 18.632610 1.445212
v 1.445212 18.632610 1.445212
v 1.445212 18.632610 -1.445212
v -1.445212 18.632610 -1.445212
v -1.445212 20.497437 1.445212
v 1.445212 20.497437 1.445212
v 1.445212 20.497437 -1.445212
v -1.445212 20.497437 -1.445212
v -0.889430 20.497437 0.889430
v 0.889430 20.497437 0.889430
v 0.889430 20.497437 -0.889430
v -0.889430 20.497437 -0.889430
v -0.889430 4.463139 0.889430
v 0.889430 4.463139 0.889430
v 0.889430 4.463139 -0.889430
v -0.889430 4.463139 -0.889430
vt 0.369848 0.003360
vt 0.548537 0.003360
vt 0.548537 0.182049
vt 0.369848 0.182049
vt 0.548537 0.577883
vt 0.369848 0.577883
vt 0.554754 0.003360
vt 0.733443 0.003360
vt 0.733443 0.182049
vt 0.554754 0.182049
vt 0.733443 0.577883
vt 0.554754 0.577883
vt 0.001830 0.672737
vt 0.001830 0.583613
vt 0.059330 0.583613
vt 0.059330 0.672737
vt 0.551163 0.672737
vt 0.551163 0.583613
vt 0.608664 0.583613
vt 0.608664 0.672737
vt 0.855545 0.497148
vt 0.800696 0.497148
vt 0.800696 0.002743
vt 0.855545 0.002743
vt 0.851955 0.998008
vt 0.797105 0.998008
vt 0.797105 0.503603
vt 0.851955 0.503603
vt 0.710936 0.638730
vt 0.710936 0.583881
vt 0.765786 0.583881
vt 0.765786 0.638730
vt 0.181351 0.580992
vt 0.360040 0.580992
vt 0.360040 0.759681
vt 0.181351 0.759681
vt 0.366258 0.763481
vt 0.366258 0.584791
vt 0.411041 0.629574
vt 0.411041 0.718698
vt 0.544947 0.584791
vt 0.500165 0.629574
vt 0.544947 0.763481
vt 0.500165 0.718698
vt 0.615790 0.673819
vt 0.615790 0.584695
vt 0.632927 0.601832
vt 0.632927 0.656681
vt 0.704914 0.584695
vt 0.687777 0.601832
vt 0.704914 0.673819
vt 0.687777 0.656681
vt 0.001830 0.003360
vt 0.180519 0.003360
vt 0.180519 0.182049
vt 0.001830 0.182049
vt 0.180519 0.577883
vt 0.001830 0.577883
vt 0.184942 0.397878
vt 0.363631 0.397878
vt 0.363631 0.576567
vt 0.184942 0.576567
vt 0.184942 0.002045
vt 0.363631 0.002045
vt 0.858142 0.591949
vt 0.858142 0.502825
vt 0.915642 0.502825
vt 0.915642 0.591949
vt 0.122163 0.583982
vt 0.122163 0.673107
vt 0.064662 0.673107
vt 0.064662 0.583982
vt 0.739659 0.001992
vt 0.794509 0.001992
vt 0.794509 0.496397
vt 0.739659 0.496397
vt 0.916582 0.497148
vt 0.861732 0.497148
vt 0.861732 0.002743
vt 0.916582 0.002743
vn 0.000000 0.000000 1.000000
vn 0.000000 0.000000 1.000000
vn 0.000000 0.000000 1.000000
vn 0.000000 0.000000 1.000000
vn 0.000000 1.000000 0.000000
vn 0.000000 1.000000 0.000000
vn 0.000000 1.000000 0.000000
vn 0.000000 1.000000 0.000000
vn 0.000000 0.000000 -1.000000
vn 0.000000 0.000000 -1.000000
vn 0.000000 0.000000 -1.000000
vn 0.000000 0.000000 -1.000000
vn 0.000000 -1.000000 0.000000
vn 0.000000 -1.000000 0.000000
vn 0.000000 -1.000000 0.000000
vn 0.000000 -1.000000 0.000000
vn 1.000000 0.000000 0.000000
vn 1.000000 0.000000 0.000000
vn 1.000000 0.000000 0.000000
vn 1.000000 0.000000 0.000000
vn -1.000000 0.000000 0.000000
vn -1.000000 0.000000 0.000000
vn -1.000000 0.000000 0.000000
vn -1.000000 0.000000 0.000000
vn 0.000000 0.000000 1.000000
vn 0.000000 0.000000 1.000000
vn 0.000000 0.000000 1.000000
vn 0.000000 0.000000 1.000000
vn 1.000000 0.000000 0.000000
vn 1.000000 0.000000 0.000000
vn 1.000000 0.000000 0.000000
vn 1.000000 0.000000 0.000000
vn 0.000000 0.000000 -1.000000
vn 0.000000 0.000000 -1.000000
vn 0.000000 0.000000 -1.000000
vn 0.000000 0.000000 -1.000000
vn -1.000000 0.000000 0.000000
vn -1.000000 0.000000 0.000000
vn -1.000000 0.000000 0.000000
vn -1.000000 0.000000 0.000000
vn 0.000000 1.000000 0.000000
vn 0.000000 1.000000 0.000000
vn 0.000000 1.000000 0.000000
vn 0.000000 1.000000 0.000000
vn 0.000000 1.000000 0.000000
vn 0.000000 1.000000 0.000000
vn 0.000000 1.000000 0.000000
vn 0.000000 1.000000 0.000000
vn 0.000000 1.000000 -0.000000
vn 0.000000 1.000000 -0.000000
vn 0.000000 1.000000 -0.000000
vn 0.000000 1.000000 -0.000000
vn 0.000000 1.000000 0.000000
vn 0.000000 1.000000 0.000000
vn 0.000000 1.000000 0.000000
vn 0.000000 1.000000 0.000000
vn 0.000000 0.000000 1.000000
vn 0.000000 0.000000 1.000000
vn 0.000000 0.000000 1.000000
vn 0.000000 0.000000 1.000000
vn 1.000000 0.000000 0.000000
vn 1.000000 0.000000 0.000000
vn 1.000000 0.000000 0.000000
vn 1.000000 0.000000 0.000000
vn 0.000000 0.000000 -1.000000
vn 0.000000 0.000000 -1.000000
vn 0.000000 0.000000 -1.000000
vn 0.000000 0.000000 -1.000000
vn -1.000000 0.000000 0.000000
vn -1.000000 0.000000 0.000000
vn -1.000000 0.000000 0.000000
vn -1.000000 0.000000 0.000000
vn 0.000000 1.000000 0.000000
vn 0.000000 1.000000 0.000000
vn 0.000000 1.000000 0.000000
vn 0.000000 1.000000 0.000000
vn 0.000000 1.000000 0.000000
vn 0.000000 1.000000 0.000000
vn 0.000000 1.000000 0.000000
vn 0.000000 1.000000 0.000000
vn 0.000000 1.000000 0.000000
vn 0.000000 1.000000 0.000000
vn 0.000000 1.000000 0.000000
vn 0.000000 1.000000 0.000000
vn 0.000000 1.000000 0.000000
vn 0.000000 1.000000 0.000000
vn 0.000000 1.000000 0.000000
vn 0.000000 1.000000 0.000000
vn 0.000000 0.000000 -1.000000
vn 0.000000 0.000000 -1.000000
vn 0.000000 0.000000 -1.000000
vn 0.000000 0.000000 -1.000000
vn -1.000000 0.000000 0.000000
vn -1.000000 0.000000 0.000000
vn -1.000000 0.000000 0.000000
vn -1.000000 0.000000 0.000000
vn 0.000000 0.000000 1.000000
vn 0.000000 0.000000 1.000000
vn 0.000000 0.000000 1.000000
vn 0.000000 0.000000 1.000000
vn 1.000000 0.000000 0.000000
vn 1.000000 0.000000 0.000000
vn 1.000000 0.000000 0.000000
vn 1.000000 0.000000 0.000000
s off
g cube_bottle_GEO
usemtl initialShadingGroup
f 1/53/1 2/54/2 4/55/3 3/56/4
f 25/29/5 26/30/6 27/31/7 28/32/8
f 5/59/9 6/60/10 8/61/11 7/62/12
f 7/33/13 8/34/14 2/35/15 1/36/16
f 2/1/17 8/2/18 6/3/19 4/4/20
f 7/7/21 1/8/22 3/9/23 5/10/24
f 3/56/25 4/55/26 10/57/27 9/58/28
f 4/4/29 6/3/30 11/5/31 10/6/32
f 6/60/33 5/59/34 12/63/35 11/64/36
f 5/10/37 3/9/38 9/11/39 12/12/40
f 9/37/41 10/38/42 14/39/43 13/40/44
f 10/38/45 11/41/46 15/42/47 14/39/48
f 11/41/49 12/43/50 16/44/51 15/42/52
f 12/43/53 9/37/54 13/40/55 16/44/56
f 13/65/57 14/66/58 18/67/59 17/68/60
f 14/13/61 15/14/62 19/15/63 18/16/64
f 15/69/65 16/70/66 20/71/67 19/72/68
f 16/17/69 13/18/70 17/19/71 20/20/72
f 17/45/73 18/46/74 22/47/75 21/48/76
f 18/46/77 19/49/78 23/50/79 22/47/80
f 19/49/81 20/51/82 24/52/83 23/50/84
f 20/51/85 17/45/86 21/48/87 24/52/88
f 21/73/89 22/74/90 26/75/91 25/76/92
f 22/21/93 23/22/94 27/23/95 26/24/96
f 23/77/97 24/78/98 28/79/99 27/80/100
f 24/25/101 21/26/102 25/27/103 28/28/104
