# This file uses centimeters as units for non-parametric coordinates.

mtllib HAMMER.mtl
g default
v -0.500000 5.340236 0.680973
v 0.000000 5.340236 0.680973
v 0.500000 5.340236 0.680973
v -0.500000 5.840236 0.680973
v 0.500000 5.840236 0.680973
v -0.500000 6.340236 0.680973
v 0.000000 6.340236 0.680973
v 0.500000 6.340236 0.680973
v -0.500000 6.340236 0.114732
v 0.000000 6.340236 0.114732
v 0.500000 6.340236 0.114732
v -0.500000 6.340236 -0.500000
v 0.000000 6.340236 -0.500000
v 0.500000 6.340236 -0.500000
v -0.500000 5.840236 -0.500000
v 0.000000 5.840236 -0.500000
v 0.500000 5.840236 -0.500000
v -0.500000 5.340236 -0.500000
v 0.000000 5.340236 -0.500000
v 0.500000 5.340236 -0.500000
v -0.500000 5.340236 0.114732
v 0.500000 5.340236 0.114732
v 0.500000 5.840236 0.114732
v -0.500000 5.840236 0.114732
v -0.295459 5.544777 0.680973
v 0.000000 5.544777 0.680973
v -0.295459 5.840236 0.680973
v 0.295459 5.544777 0.680973
v 0.295459 5.840236 0.680973
v 0.000000 6.135695 0.680973
v -0.295459 6.135695 0.680973
v 0.295459 6.135695 0.680973
v -0.287043 5.553193 1.345405
v 0.000000 5.553193 1.345405
v -0.287043 5.840236 1.345405
v 0.287043 5.553193 1.345405
v 0.287043 5.840236 1.345405
v 0.000000 6.127279 1.345405
v -0.287043 6.127279 1.345405
v 0.287043 6.127279 1.345405
v -0.385470 5.454767 1.345405
v 0.000000 5.454767 1.345405
v -0.385470 5.840236 1.345405
v 0.385470 5.454767 1.345405
v 0.385470 5.840236 1.345405
v 0.000000 6.225705 1.345405
v -0.385470 6.225705 1.345405
v 0.385470 6.225705 1.345405
v -0.385470 5.454767 1.912997
v 0.000000 5.454767 1.912997
v 0.000000 5.840236 1.912996
v -0.385470 5.840236 1.912997
v 0.385470 5.454767 1.912997
v 0.385470 5.840236 1.912997
v 0.000000 6.225705 1.912997
v -0.385470 6.225705 1.912997
v 0.385470 6.225705 1.912997
v 0.000000 6.275120 -0.753463
v 0.500000 6.275120 -0.753463
v 0.500000 6.096972 -0.753463
v 0.000000 6.096972 -0.753463
v 0.500000 5.918823 -0.753463
v 0.000000 5.918823 -0.753463
v -0.500000 6.275120 -0.753463
v 0.000000 6.275120 -0.753463
v 0.000000 6.096972 -0.753463
v -0.500000 6.096972 -0.753463
v 0.000000 5.918823 -0.753463
v -0.500000 5.918823 -0.753463
v -0.500000 5.434181 -2.087364
v 0.000000 5.434181 -2.087364
v -0.000000 5.434179 -2.087364
v -0.500000 5.434179 -2.087364
v -0.000000 5.434177 -2.087364
v -0.500000 5.434177 -2.087364
v -0.000000 5.434181 -2.087364
v 0.500000 5.434181 -2.087364
v 0.500000 5.434179 -2.087364
v -0.000000 5.434179 -2.087364
v 0.500000 5.434177 -2.087364
v 0.000000 5.434177 -2.087364
v -0.302646 5.340236 -0.204970
v 0.000000 5.340236 -0.204970
v -0.302646 5.340236 0.102618
v 0.302646 5.340236 -0.204970
v 0.302646 5.340236 0.102618
v 0.000000 5.340236 0.385943
v -0.302646 5.340236 0.385943
v 0.302646 5.340236 0.385943
v -0.302646 0.051125 -0.204970
v 0.000000 0.051125 -0.204970
v 0.000000 0.051125 0.102618
v -0.302646 0.051125 0.102618
v 0.302646 0.051125 -0.204970
v 0.302646 0.051125 0.102618
v 0.000000 0.051125 0.385943
v -0.302646 0.051125 0.385943
v 0.302646 0.051125 0.385943
v 0.304402 3.403615 0.102625
v 0.304402 3.401776 -0.205123
v 0.000000 3.401776 -0.205123
v -0.304402 3.401776 -0.205123
v -0.304402 3.403615 0.102625
v -0.304402 3.405312 0.386096
v 0.000000 3.405312 0.386096
v 0.304402 3.405312 0.386096
v 0.338791 3.324590 0.103996
v 0.338791 3.322838 -0.238519
v 0.336836 0.130230 0.103989
v 0.336836 0.130230 -0.238349
v 0.000000 3.322838 -0.238519
v 0.000000 0.130230 -0.238349
v -0.338791 3.322838 -0.238519
v -0.336836 0.130230 -0.238349
v -0.338791 3.324590 0.103996
v -0.336836 0.130230 0.103989
v -0.338791 3.326206 0.419492
v -0.336836 0.130230 0.419322
v 0.000000 3.326206 0.419492
v 0.000000 0.130230 0.419322
v 0.338791 3.326206 0.419492
v 0.336836 0.130230 0.419322
vt 0.391114 0.688507
vt 0.378642 0.629911
vt 0.443282 0.624369
vt 0.443282 0.688507
vt 0.411725 0.601249
vt 0.470068 0.597923
vt 0.514065 0.622932
vt 0.513894 0.687070
vt 0.391114 0.747587
vt 0.542721 0.860979
vt 0.409412 0.449650
vt 0.446124 0.399678
vt 0.510739 0.596487
vt 0.596901 0.774063
vt 0.463309 0.457314
vt 0.791994 0.626597
vt 0.782954 0.689342
vt 0.730793 0.688496
vt 0.731834 0.624366
vt 0.819108 0.849200
vt 0.730787 0.750629
vt 0.657653 0.686920
vt 0.658344 0.622786
vt 0.705480 0.597489
vt 0.758359 0.593036
vt 0.668294 0.749967
vt 0.662026 0.596398
vt 0.760222 0.459456
vt 0.886707 0.406963
vt 0.717068 0.423653
vt 0.476447 0.978360
vt 0.435520 0.978360
vt 0.436686 0.877937
vt 0.476447 0.877937
vt 0.521144 0.975419
vt 0.521144 0.875475
vt 0.701168 0.973438
vt 0.654767 0.972870
vt 0.655938 0.873229
vt 0.702339 0.873716
vt 0.610306 0.972424
vt 0.610892 0.872848
vt 0.084552 0.661595
vt 0.138012 0.700011
vt 0.142918 0.784312
vt 0.108946 0.822108
vt 0.089780 0.598670
vt 0.032680 0.779401
vt 0.209408 0.683635
vt 0.244620 0.693648
vt 0.240036 0.804739
vt 0.211520 0.762714
vt 0.379160 0.786339
vt 0.236425 0.929363
vt 0.572595 0.552182
vt 0.555603 0.579275
vt 0.517317 0.568830
vt 0.525984 0.533621
vt 0.488010 0.452665
vt 0.492500 0.437380
vt 0.571351 0.507634
vt 0.534511 0.498264
vt 0.492501 0.437379
vt 0.616992 0.564117
vt 0.632094 0.579723
vt 0.629070 0.479577
vt 0.664494 0.440589
vt 0.680768 0.451224
vt 0.539905 0.406840
vt 0.057878 0.182632
vt 0.058527 0.133123
vt 0.327018 0.135101
vt 0.326121 0.184241
vt 0.337943 0.135222
vt 0.337065 0.184428
vt 0.054302 0.220653
vt 0.322311 0.222188
vt 0.780148 0.138284
vt 0.779520 0.187080
vt 0.333269 0.222210
vt 0.796325 0.139470
vt 0.795688 0.185769
vt 0.775946 0.224943
vt 0.793606 0.224997
vt 0.059872 0.050640
vt 0.047975 0.324635
vt 0.316218 0.326242
vt 0.328366 0.052475
vt 0.049325 0.293372
vt 0.318203 0.295055
vt 0.327166 0.326186
vt 0.339309 0.052509
vt 0.329160 0.295165
vt 0.769620 0.328839
vt 0.781510 0.055729
vt 0.770968 0.297734
vt 0.815362 0.038237
vt 0.906652 0.076287
vt 0.907776 0.254833
vt 0.632004 0.775548
vt 0.584506 0.685912
vt 0.830362 0.115543
vt 0.868199 0.184917
vt 0.958253 0.182885
vt 0.837950 0.245142
vt 0.788491 0.974506
vt 0.747568 0.974005
vt 0.748740 0.874203
vt 0.788497 0.874620
vt 0.565842 0.972477
vt 0.565842 0.872885
vt 0.176642 0.682739
vt 0.179803 0.789435
vt 0.277357 0.973103
vt 0.158181 0.980030
vt 0.180331 0.954342
vt 0.868399 0.505897
vt 0.933103 0.407793
vt 0.372285 0.485085
vt 0.328618 0.446339
vt 0.989283 0.851289
vt 0.988713 0.907083
vt 0.948745 0.920740
vt 0.948547 0.878819
vt 0.989939 0.989805
vt 0.948944 0.962662
vt 0.904133 0.851692
vt 0.905941 0.879021
vt 0.904790 0.990208
vt 0.906338 0.962863
vt 0.866696 0.879207
vt 0.822807 0.990897
vt 0.867093 0.963049
vt 0.822479 0.921639
vt 0.866894 0.921128
vt 0.181241 0.864892
vt 0.740612 0.364790
vt 0.675423 0.342185
vt 0.315156 0.456071
vt 0.293471 0.442985
vt 0.342611 0.383913
vt 0.322934 0.440183
vt 0.762813 0.812928
vt 0.762667 0.783317
vt 0.762959 0.842540
vt 0.731840 0.783457
vt 0.732132 0.842680
vt 0.701014 0.783597
vt 0.701306 0.842820
vt 0.701160 0.813209
vt 0.134413 0.668129
vt 0.174169 0.668649
vt 0.213924 0.669168
vt 0.135043 0.635336
vt 0.214554 0.636375
vt 0.135673 0.602607
vt 0.215184 0.603582
vt 0.175429 0.603062
vt 0.272931 0.527325
vt 0.345608 0.610558
vt 0.881488 0.537184
vt 0.059314 0.084053
vt 0.327802 0.086258
vt 0.338736 0.086347
vt 0.780931 0.089978
vt 0.050701 0.260391
vt 0.318709 0.261998
vt 0.329666 0.262063
vt 0.772345 0.264717
vt 0.339482 0.018337
vt 0.781937 0.020990
vt 0.803580 0.309323
vt 0.328534 0.018393
vt 0.060291 0.016786
vt 0.786827 0.805373
vt 0.787074 0.857540
vt 0.784288 0.750810
vn 0.000000 0.000000 1.000000
vn 0.000000 0.000000 1.000000
vn 0.000000 0.000000 1.000000
vn 0.000000 0.000000 1.000000
vn 0.000000 0.000000 1.000000
vn 0.000000 0.000000 1.000000
vn 0.000000 -0.000000 1.000000
vn 0.000000 -0.000000 1.000000
vn 0.000000 -0.000000 1.000000
vn 0.000000 1.000000 0.000000
vn 0.000000 1.000000 0.000000
vn 0.000000 1.000000 0.000000
vn 0.000000 1.000000 0.000000
vn 0.000000 1.000000 0.000000
vn 0.000000 1.000000 0.000000
vn 0.000000 0.997199 -0.074791
vn 0.000000 0.997199 -0.074791
vn 0.000000 0.997199 -0.074791
vn 0.000000 0.000000 -1.000000
vn 0.000000 0.000000 -1.000000
vn 0.000000 0.000000 -1.000000
vn 0.000000 0.000000 -1.000000
vn 0.000000 0.000000 -1.000000
vn 0.000000 0.000000 -1.000000
vn 0.000000 0.000000 -1.000000
vn 0.000000 0.000000 -1.000000
vn 0.000000 0.000000 -1.000000
vn 0.000000 0.000000 -1.000000
vn 0.000000 0.000000 -1.000000
vn 0.000000 0.000000 -1.000000
vn 0.000000 -1.000000 0.000000
vn 0.000000 -1.000000 0.000000
vn 0.000000 -1.000000 0.000000
vn 0.000000 -1.000000 0.000000
vn 0.000000 -1.000000 0.000000
vn 0.000000 -1.000000 0.000000
vn 0.000000 -1.000000 0.000000
vn 0.000000 -1.000000 0.000000
vn 0.000000 -1.000000 0.000000
vn 1.000000 0.000000 0.000000
vn 1.000000 0.000000 0.000000
vn 1.000000 0.000000 0.000000
vn 1.000000 0.000000 0.000000
vn 1.000000 0.000000 0.000000
vn 1.000000 0.000000 0.000000
vn 1.000000 0.000000 0.000000
vn 1.000000 0.000000 0.000000
vn 1.000000 0.000000 0.000000
vn -1.000000 0.000000 0.000000
vn -1.000000 0.000000 0.000000
vn -1.000000 0.000000 0.000000
vn -1.000000 0.000000 0.000000
vn -1.000000 0.000000 0.000000
vn -1.000000 0.000000 0.000000
vn -1.000000 0.000000 0.000000
vn -1.000000 0.000000 0.000000
vn -1.000000 0.000000 0.000000
vn 0.000000 0.000000 1.000000
vn 0.000000 0.000000 1.000000
vn 0.000000 0.000000 1.000000
vn 0.000000 0.000000 1.000000
vn 0.000000 0.000000 1.000000
vn 0.000000 0.000000 1.000000
vn 0.000000 0.000000 1.000000
vn 0.000000 0.000000 1.000000
vn 0.000000 0.000000 1.000000
vn 0.000000 0.000000 1.000000
vn 0.000000 0.000000 1.000000
vn 0.000000 0.000000 1.000000
vn 0.000000 0.000000 1.000000
vn 0.000000 0.000000 1.000000
vn 0.000000 0.000000 1.000000
vn 0.000000 0.000000 1.000000
vn 0.000000 0.000000 1.000000
vn 0.000000 0.000000 1.000000
vn 0.000000 0.000000 1.000000
vn 0.000000 0.000000 1.000000
vn 0.000000 0.000000 1.000000
vn 0.000000 0.000000 1.000000
vn 0.000000 0.000000 1.000000
vn 0.000000 0.000000 1.000000
vn 0.000000 0.000000 1.000000
vn 0.000000 0.000000 1.000000
vn 0.000000 0.000000 1.000000
vn 0.000000 0.000000 1.000000
vn 0.000000 0.000000 1.000000
vn 0.000000 0.000000 1.000000
vn 0.000000 0.000000 1.000000
vn 0.000000 0.000000 1.000000
vn 0.000000 -0.999920 0.012665
vn 0.000000 -0.999920 0.012665
vn 0.000000 -0.999920 0.012665
vn 0.000000 -0.999920 0.012665
vn -0.999920 0.000000 0.012665
vn -0.999920 0.000000 0.012665
vn -0.999920 0.000000 0.012665
vn -0.999920 0.000000 0.012665
vn 0.000000 -0.999920 0.012665
vn 0.000000 -0.999920 0.012665
vn 0.000000 -0.999920 0.012665
vn 0.000000 -0.999920 0.012665
vn 0.999920 0.000000 0.012665
vn 0.999920 0.000000 0.012665
vn 0.999920 0.000000 0.012665
vn 0.999920 0.000000 0.012665
vn 0.000000 0.999920 0.012665
vn 0.000000 0.999920 0.012665
vn 0.000000 0.999920 0.012665
vn 0.000000 0.999920 0.012665
vn -0.999920 0.000000 0.012665
vn -0.999920 0.000000 0.012665
vn -0.999920 0.000000 0.012665
vn -0.999920 0.000000 0.012665
vn 0.999920 0.000000 0.012665
vn 0.999920 0.000000 0.012665
vn 0.999920 0.000000 0.012665
vn 0.999920 0.000000 0.012665
vn 0.000000 0.999920 0.012665
vn 0.000000 0.999920 0.012665
vn 0.000000 0.999920 0.012665
vn 0.000000 0.999920 0.012665
vn 0.000000 0.000001 -1.000000
vn 0.000000 0.000001 -1.000000
vn 0.000000 0.000001 -1.000000
vn 0.000000 0.000001 -1.000000
vn 0.000002 0.000000 -1.000000
vn 0.000002 0.000000 -1.000000
vn 0.000002 0.000000 -1.000000
vn 0.000002 0.000000 -1.000000
vn 0.000000 0.000001 -1.000000
vn 0.000000 0.000001 -1.000000
vn 0.000000 0.000001 -1.000000
vn 0.000000 0.000001 -1.000000
vn -0.000002 0.000000 -1.000000
vn -0.000002 0.000000 -1.000000
vn -0.000002 0.000000 -1.000000
vn -0.000002 0.000000 -1.000000
vn 0.000000 -0.000001 -1.000000
vn 0.000000 -0.000001 -1.000000
vn 0.000000 -0.000001 -1.000000
vn 0.000000 -0.000001 -1.000000
vn 0.000002 0.000000 -1.000000
vn 0.000002 0.000000 -1.000000
vn 0.000002 0.000000 -1.000000
vn 0.000002 0.000000 -1.000000
vn -0.000002 0.000000 -1.000000
vn -0.000002 0.000000 -1.000000
vn -0.000002 0.000000 -1.000000
vn -0.000002 0.000000 -1.000000
vn 0.000000 -0.000001 -1.000000
vn 0.000000 -0.000001 -1.000000
vn 0.000000 -0.000001 -1.000000
vn 0.000000 -0.000001 -1.000000
vn 0.000000 -1.000000 0.000000
vn 0.000000 -1.000000 0.000000
vn 0.000000 -1.000000 0.000000
vn 0.000000 -1.000000 0.000000
vn -1.000000 0.000000 0.000000
vn -1.000000 0.000000 0.000000
vn -1.000000 0.000000 0.000000
vn -1.000000 0.000000 0.000000
vn 0.000000 -1.000000 0.000000
vn 0.000000 -1.000000 0.000000
vn 1.000000 0.000000 0.000000
vn 1.000000 0.000000 0.000000
vn 1.000000 0.000000 0.000000
vn 1.000000 0.000000 0.000000
vn 0.000000 1.000000 0.000000
vn 0.000000 1.000000 0.000000
vn 0.000000 1.000000 0.000000
vn 0.000000 1.000000 0.000000
vn -1.000000 0.000000 0.000000
vn -1.000000 0.000000 0.000000
vn 1.000000 0.000000 0.000000
vn 1.000000 0.000000 0.000000
vn 0.000000 1.000000 0.000000
vn 0.000000 1.000000 0.000000
vn 0.000000 0.868481 -0.495722
vn 0.000000 0.868481 -0.495722
vn 1.000000 0.000000 0.000000
vn 1.000000 0.000000 0.000000
vn -1.000000 0.000000 0.000000
vn -1.000000 0.000000 0.000000
vn -1.000000 0.000000 0.000000
vn -1.000000 -0.000000 0.000000
vn 1.000000 0.000000 0.000000
vn 0.000000 -0.401259 -0.915965
vn 0.000000 -0.401259 -0.915965
vn 0.000000 -0.401259 -0.915965
vn 0.000000 -0.401259 -0.915965
vn -1.000000 0.000000 0.000000
vn -1.000000 -0.000000 0.000000
vn 0.000000 0.868481 -0.495722
vn 0.000000 0.868481 -0.495722
vn 1.000000 0.000000 0.000000
vn 1.000000 0.000000 0.000000
vn 1.000000 -0.000000 0.000000
vn 1.000000 -0.000000 0.000000
vn -1.000000 0.000000 0.000000
vn -1.000000 0.000000 0.000000
vn 1.000000 0.000000 0.000000
vn 1.000000 0.000000 -0.000000
vn 0.000000 -0.401259 -0.915965
vn 0.000000 -0.401259 -0.915965
vn 0.000000 -0.401259 -0.915965
vn 0.000000 -0.401259 -0.915965
vn -1.000000 0.000000 0.000000
vn 0.000000 0.845925 -0.533302
vn 0.000000 0.845925 -0.533302
vn 1.000000 -0.000000 0.000000
vn 1.000000 -0.000000 0.000000
vn -1.000000 0.000000 0.000000
vn -1.000000 0.000000 0.000000
vn 1.000000 0.000000 -0.000000
vn 0.000000 -0.939886 0.341489
vn 0.000000 -0.939886 0.341489
vn 0.000000 -0.939886 0.341489
vn 0.000000 -0.939886 0.341489
vn -1.000000 0.000000 0.000000
vn 0.000000 0.845925 -0.533302
vn 0.000000 0.845925 -0.533302
vn 1.000000 0.000000 0.000000
vn 1.000000 0.000000 0.000000
vn -1.000000 0.000000 0.000000
vn -1.000000 -0.000000 0.000000
vn 1.000000 0.000000 0.000000
vn 0.000000 -0.939886 0.341489
vn 0.000000 -0.939886 0.341489
vn 0.000000 -0.939886 0.341489
vn 0.000000 -0.939886 0.341489
vn -1.000000 -0.000000 0.000000
vn 0.000000 -1.000000 0.000000
vn 0.000000 -1.000000 0.000000
vn 0.000000 -1.000000 0.000000
vn 0.000000 -1.000000 0.000000
vn 0.000000 -1.000000 0.000000
vn 0.000000 -1.000000 0.000000
vn 0.000000 -1.000000 0.000000
vn 0.000000 -1.000000 0.000000
vn 0.000000 -1.000000 0.000000
vn 0.000000 -1.000000 0.000000
vn 0.000000 -1.000000 0.000000
vn 0.000000 -1.000000 0.000000
vn 0.000000 -1.000000 0.000000
vn 0.000000 -1.000000 0.000000
vn 0.000000 -1.000000 0.000000
vn 0.000000 -1.000000 0.000000
vn 0.000000 -1.000000 0.000000
vn 0.000000 -1.000000 0.000000
vn 0.000000 -1.000000 0.000000
vn 0.000000 -1.000000 0.000000
vn 0.000000 -1.000000 0.000000
vn 0.000000 -1.000000 0.000000
vn 0.000000 -1.000000 0.000000
vn 0.000000 -1.000000 0.000000
vn 0.000000 -1.000000 0.000000
vn 0.000000 -1.000000 0.000000
vn 0.000000 -1.000000 0.000000
vn 0.000000 -1.000000 0.000000
vn 0.000000 -1.000000 0.000000
vn 0.000000 -1.000000 0.000000
vn 0.000000 -1.000000 0.000000
vn 0.000000 -1.000000 0.000000
vn 0.000000 0.000079 -1.000000
vn 0.000000 0.000079 -1.000000
vn 0.000000 0.000079 -1.000000
vn 0.000000 0.000079 -1.000000
vn -1.000000 0.000907 -0.000003
vn -1.000000 0.000907 -0.000003
vn -1.000000 0.000907 -0.000003
vn -1.000000 0.000907 -0.000003
vn 0.000000 0.000079 -1.000000
vn 0.000000 0.000079 -1.000000
vn 1.000000 0.000907 -0.000003
vn 1.000000 0.000907 -0.000003
vn 1.000000 0.000907 -0.000003
vn 1.000000 0.000907 -0.000003
vn 0.000000 0.000079 1.000000
vn 0.000000 0.000079 1.000000
vn 0.000000 0.000079 1.000000
vn 0.000000 0.000079 1.000000
vn -1.000000 0.000907 -0.000003
vn -1.000000 0.000907 -0.000003
vn 1.000000 0.000907 -0.000003
vn 1.000000 0.000907 -0.000003
vn 0.000000 0.000079 1.000000
vn 0.000000 0.000079 1.000000
vn 1.000000 -0.000612 0.000002
vn 1.000000 -0.000612 0.000002
vn 1.000000 -0.000612 0.000002
vn 1.000000 -0.000612 0.000002
vn 0.000000 -0.000053 -1.000000
vn 0.000000 -0.000053 -1.000000
vn 0.000000 -0.000053 -1.000000
vn 0.000000 -0.000053 -1.000000
vn 0.000000 -0.000053 -1.000000
vn 0.000000 -0.000053 -1.000000
vn -1.000000 -0.000612 0.000002
vn -1.000000 -0.000612 0.000002
vn -1.000000 -0.000612 0.000002
vn -1.000000 -0.000612 0.000002
vn -1.000000 -0.000612 0.000002
vn -1.000000 -0.000612 0.000002
vn 0.000000 -0.000053 1.000000
vn 0.000000 -0.000053 1.000000
vn 0.000000 -0.000053 1.000000
vn 0.000000 -0.000053 1.000000
vn 0.000000 -0.000053 1.000000
vn 0.000000 -0.000053 1.000000
vn 1.000000 -0.000612 0.000002
vn 1.000000 -0.000612 0.000002
vn 0.916694 0.399584 -0.002207
vn 0.916694 0.399584 -0.002207
vn 0.916694 0.399584 -0.002207
vn 0.916694 0.399584 -0.002207
vn 0.917929 -0.396745 0.000000
vn 0.917929 -0.396745 0.000000
vn 0.917929 -0.396745 0.000000
vn 0.917929 -0.396745 0.000000
vn 0.000000 0.389628 -0.920972
vn 0.000000 0.389628 -0.920972
vn 0.000000 0.389628 -0.920972
vn 0.000000 0.389628 -0.920972
vn 0.000000 -0.388760 -0.921339
vn 0.000000 -0.388760 -0.921339
vn 0.000000 -0.388760 -0.921339
vn 0.000000 -0.388760 -0.921339
vn 0.000000 0.389628 -0.920972
vn 0.000000 0.389629 -0.920972
vn 0.000000 0.389629 -0.920972
vn 0.000000 0.389628 -0.920972
vn 0.000000 -0.388760 -0.921339
vn 0.000000 -0.388760 -0.921339
vn 0.000000 -0.388760 -0.921339
vn 0.000000 -0.388760 -0.921339
vn -0.916694 0.399584 -0.002207
vn -0.916694 0.399584 -0.002207
vn -0.916694 0.399584 -0.002207
vn -0.916694 0.399584 -0.002207
vn -0.917929 -0.396745 0.000000
vn -0.917929 -0.396745 0.000000
vn -0.917929 -0.396745 0.000000
vn -0.917929 -0.396745 0.000000
vn -0.917189 0.398446 -0.002204
vn -0.917189 0.398446 -0.002204
vn -0.917189 0.398446 -0.002204
vn -0.917189 0.398446 -0.002204
vn -0.917929 -0.396745 0.000000
vn -0.917929 -0.396745 0.000000
vn -0.917929 -0.396745 0.000000
vn -0.917929 -0.396745 0.000000
vn 0.000000 0.388931 0.921267
vn 0.000000 0.388931 0.921267
vn 0.000000 0.388931 0.921267
vn 0.000000 0.388931 0.921267
vn 0.000000 -0.388760 0.921339
vn 0.000000 -0.388760 0.921339
vn 0.000000 -0.388760 0.921339
vn 0.000000 -0.388760 0.921339
vn 0.000000 0.388931 0.921267
vn 0.000000 0.388931 0.921267
vn 0.000000 0.388931 0.921267
vn 0.000000 0.388931 0.921267
vn 0.000000 -0.388760 0.921339
vn 0.000000 -0.388760 0.921339
vn 0.000000 -0.388760 0.921339
vn 0.000000 -0.388760 0.921339
vn 0.917189 0.398446 -0.002204
vn 0.917189 0.398446 -0.002204
vn 0.917189 0.398446 -0.002204
vn 0.917189 0.398446 -0.002204
vn 0.917929 -0.396745 0.000000
vn 0.917929 -0.396745 0.000000
vn 0.917929 -0.396745 0.000000
vn 0.917929 -0.396745 0.000000
s 1
g pCube1
usemtl lambert3SG
f 49/45/1 50/113/2 51/136/3 52/46/4
f 50/113/2 53/52/5 54/51/6 51/136/3
f 52/46/4 51/136/3 55/116/7 56/48/8
f 51/136/3 54/51/6 57/54/9 55/116/7
s 2
f 6/26/10 7/100/11 10/101/12 9/22/13
f 7/100/11 8/14/14 11/8/15 10/101/12
f 9/22/13 10/101/12 13/56/16 12/23/17
f 10/101/12 11/8/15 14/7/18 13/56/16
s 3
f 70/30/19 71/68/20 72/67/21 73/137/22
s 4
f 76/139/23 77/140/24 78/141/25 79/142/26
s 3
f 73/137/22 72/67/21 74/69/27 75/138/28
s 4
f 79/142/26 78/141/25 80/11/29 81/120/30
s 5
f 90/81/31 91/102/32 92/103/33 93/82/34
f 91/102/32 94/98/35 95/104/36 92/103/33
f 93/82/34 92/103/33 96/105/37 97/84/38
f 92/103/33 95/104/36 98/99/39 96/105/37
s 6
f 22/1/40 20/2/41 17/3/42 23/4/43
f 3/9/44 22/1/40 23/4/43 5/10/45
f 23/4/43 17/3/42 14/7/46 11/8/47
f 5/10/45 23/4/43 11/8/47 8/14/48
s 7
f 18/16/49 21/17/50 24/18/51 15/19/52
f 21/17/50 1/177/53 4/21/54 24/18/51
f 15/19/52 24/18/51 9/22/55 12/23/56
f 24/18/51 4/21/54 6/26/57 9/22/55
s off
f 1/177/58 2/175/59 26/143/60 25/144/61
f 4/21/62 1/177/63 25/144/64 27/146/65
f 2/175/66 3/176/67 28/145/68 26/143/69
f 3/176/70 5/10/71 29/147/72 28/145/73
f 7/100/74 6/26/75 31/148/76 30/150/77
f 6/26/78 4/21/79 27/146/80 31/148/81
f 5/10/82 8/14/83 32/149/84 29/147/85
f 8/14/86 7/100/87 30/150/88 32/149/89
f 25/106/90 26/107/91 34/108/92 33/109/93
f 27/31/94 25/32/95 33/33/96 35/34/97
f 26/107/98 28/37/99 36/40/100 34/108/101
f 28/37/102 29/38/103 37/39/104 36/40/105
f 30/110/106 31/35/107 39/36/108 38/111/109
f 31/35/110 27/31/111 35/34/112 39/36/113
f 29/38/114 32/41/115 40/42/116 37/39/117
f 32/41/118 30/110/119 38/111/120 40/42/121
f 33/151/122 34/152/123 42/112/124 41/44/125
f 35/154/126 33/151/127 41/44/128 43/43/129
f 34/152/130 36/153/131 44/49/132 42/112/133
f 36/153/134 37/155/135 45/50/136 44/49/137
f 38/158/138 39/156/139 47/47/140 46/159/141
f 39/156/142 35/154/143 43/43/144 47/47/145
f 37/155/146 40/157/147 48/53/148 45/50/149
f 40/157/150 38/158/151 46/159/152 48/53/153
s 8
f 41/44/154 42/112/155 50/113/156 49/45/157
s 9
f 43/43/158 41/44/159 49/45/160 52/46/161
s 8
f 42/112/155 44/49/162 53/52/163 50/113/156
s 10
f 44/49/164 45/50/165 54/51/166 53/52/167
s 11
f 46/114/168 47/115/169 56/48/170 55/116/171
s 9
f 47/47/172 43/43/158 52/46/161 56/48/173
s 10
f 45/50/165 48/53/174 57/54/175 54/51/166
s 11
f 48/53/176 46/114/168 55/116/171 57/54/177
s 2
f 13/56/16 14/7/18 59/13/178 58/57/179
s 6
f 14/7/46 17/3/42 60/6/180 59/13/181
s 12
f 16/55/182 13/56/183 58/57/184 61/58/185
s 6
f 17/3/42 20/2/41 62/5/186 60/6/180
s off
f 20/2/187 19/160/188 63/119/189 62/5/190
s 12
f 19/61/191 16/55/182 61/58/185 63/62/192
s 2
f 12/23/17 13/56/16 65/65/193 64/27/194
s 13
f 13/56/195 16/55/196 66/64/197 65/65/198
s 7
f 15/19/52 12/23/56 64/27/199 67/24/200
s 13
f 16/55/196 19/61/201 68/66/202 66/64/197
s off
f 19/161/203 18/16/204 69/25/205 68/117/206
s 7
f 18/16/49 15/19/52 67/24/200 69/25/207
s 2
f 64/27/194 65/65/193 71/68/208 70/30/209
s 13
f 65/65/198 66/64/197 72/67/210 71/68/211
s 7
f 67/24/200 64/27/199 70/30/212 73/28/213
s 13
f 66/64/197 68/66/202 74/69/214 72/67/210
s off
f 68/117/215 69/25/216 75/29/217 74/118/218
s 7
f 69/25/207 67/24/200 73/28/213 75/29/219
s 2
f 58/57/179 59/13/178 77/15/220 76/59/221
s 6
f 59/13/181 60/6/180 78/12/222 77/15/223
s 12
f 61/58/185 58/57/184 76/59/224 79/60/225
s 6
f 60/6/180 62/5/186 80/11/226 78/12/222
s off
f 62/5/227 63/119/228 81/120/229 80/11/230
s 12
f 63/62/192 61/58/185 79/60/225 81/63/231
s off
f 18/121/232 19/122/233 83/123/234 82/124/235
f 21/127/236 18/121/237 82/124/238 84/128/239
f 19/122/240 20/125/241 85/126/242 83/123/243
f 20/125/244 22/129/245 86/130/246 85/126/247
f 2/134/248 1/20/249 88/131/250 87/135/251
f 1/20/252 21/127/253 84/128/254 88/131/255
f 22/129/256 3/132/257 89/133/258 86/130/259
f 3/132/260 2/134/261 87/135/262 89/133/263
s 14
f 82/71/264 83/162/265 101/163/266 102/72/267
s 15
f 84/70/268 82/71/269 102/72/270 103/73/271
s 14
f 83/162/265 85/85/272 100/88/273 101/163/266
s 16
f 85/85/274 86/174/275 99/173/276 100/88/277
s 17
f 87/166/278 88/76/279 104/77/280 105/167/281
s 15
f 88/76/282 84/70/268 103/73/271 104/77/283
s 16
f 86/86/275 89/89/284 106/90/285 99/87/276
s 17
f 89/89/286 87/166/278 105/167/281 106/90/287
s 18
f 108/92/288 107/170/289 109/171/290 110/95/291
s 19
f 111/164/292 108/92/293 110/95/294 112/165/295
f 113/74/296 111/164/292 112/165/295 114/78/297
s 20
f 115/75/298 113/74/299 114/78/300 116/79/301
f 117/80/302 115/75/298 116/79/301 118/83/303
s 21
f 119/168/304 117/80/305 118/83/306 120/169/307
f 121/93/308 119/168/304 120/169/307 122/96/309
s 18
f 107/91/289 121/93/310 122/96/311 109/94/290
s off
f 100/88/312 99/173/313 107/170/314 108/92/315
f 95/97/316 94/98/317 110/95/318 109/171/319
f 101/163/320 100/88/321 108/92/322 111/164/323
f 94/98/324 91/102/325 112/165/326 110/95/327
f 102/72/328 101/163/329 111/164/330 113/74/331
f 91/102/332 90/81/333 114/78/334 112/165/335
f 103/73/336 102/72/337 113/74/338 115/75/339
f 90/81/340 93/82/341 116/79/342 114/78/343
f 104/77/344 103/73/345 115/75/346 117/80/347
f 93/82/348 97/84/349 118/83/350 116/79/351
f 105/167/352 104/77/353 117/80/354 119/168/355
f 97/84/356 96/105/357 120/169/358 118/83/359
f 106/90/360 105/167/361 119/168/362 121/93/363
f 96/105/364 98/99/365 122/96/366 120/169/367
f 99/87/368 106/90/369 121/93/370 107/91/371
f 98/99/372 95/172/373 109/94/374 122/96/375
