# This file uses centimeters as units for non-parametric coordinates.

mtllib paper.mtl
g default
v -5.248517 0.249031 5.175194
v -4.191311 0.428488 5.175254
v -3.129086 0.509109 5.170256
v -2.088158 0.001873 5.134328
v -1.020909 0.254509 5.166306
v -0.014309 0.254567 5.164245
v 1.020339 0.254585 5.163092
v 2.054952 0.254669 5.164856
v 3.033616 0.005691 5.166183
v 4.098425 -0.252861 5.165479
v 5.164881 -0.254671 5.165546
v -5.238279 0.250310 4.149732
v -4.198834 0.505284 4.157173
v -3.139791 0.254149 4.144284
v -2.072424 0.255502 4.128201
v -1.013815 0.252553 4.136099
v -0.015224 0.254577 4.128767
v 1.027202 0.231174 4.120006
v 2.056617 -0.000046 4.129563
v 3.033565 0.006248 4.130059
v 4.098438 -0.252863 4.129417
v 5.164881 -0.254671 4.129405
v -5.212043 0.508271 3.108479
v -4.176251 0.253972 3.122980
v -3.141088 0.502673 3.124393
v -2.055760 0.504043 3.125423
v -0.969365 0.217746 3.069456
v -0.022661 0.256463 3.056546
v 1.032027 0.510080 3.064456
v 2.074404 0.072717 3.077322
v 3.125175 0.504965 3.096346
v 4.129198 0.004912 3.093826
v 5.154762 0.246661 3.112680
v -5.198435 0.005273 2.086969
v -4.145587 0.006005 2.082721
v -3.143174 0.509696 2.078679
v -2.055464 0.275044 2.046020
v -1.020687 0.248974 2.070465
v -0.007923 0.252683 2.111493
v 1.033066 0.505558 2.119824
v 2.177353 0.708546 2.090054
v 3.159117 0.244668 2.031436
v 4.136401 0.079289 2.044745
v 5.139323 0.253297 2.051896
v -5.171433 -0.253337 0.995328
v -4.095677 -0.243560 0.994150
v -3.174592 0.650380 1.033935
v -2.073180 0.253697 1.013330
v -1.051614 0.254079 1.035734
v 0.004666 0.257067 1.058080
v 1.069162 0.759361 1.031505
v 2.201855 0.559918 0.979710
v 3.180383 0.242378 0.995507
v 4.099828 0.172688 0.994870
v 5.132142 0.254393 0.981875
v -5.116997 -0.243685 -0.011923
v -4.168302 0.184836 -0.035522
v -3.144752 0.507639 -0.028975
v -2.084460 0.498874 -0.018081
v -1.066575 0.254985 -0.014522
v -0.004364 0.016541 -0.014235
v 1.033143 0.252411 -0.044569
v 2.109580 0.245138 -0.058670
v 3.133202 -0.006581 -0.050877
v 4.108229 -0.001536 -0.033607
v 5.119905 0.206138 -0.026048
v -5.081238 -0.485455 -1.011750
v -4.101422 -0.058912 -1.046061
v -3.110684 0.256565 -1.045770
v -2.096369 0.339402 -1.053859
v -1.031770 0.504819 -1.092678
v 0.004981 0.255007 -1.058156
v 1.073845 0.494508 -1.114291
v 1.988679 -0.503819 -1.059009
v 3.108328 -0.001909 -1.066430
v 4.095516 -0.001740 -1.045424
v 5.099648 0.246859 -1.040314
v -5.170469 -0.253298 -2.091885
v -4.122277 -0.251073 -2.068370
v -3.126431 0.251110 -2.120382
v -2.084192 0.246997 -2.146298
v -1.051986 0.066886 -2.087476
v 0.010234 -0.257253 -2.062668
v 1.019778 -0.257848 -2.088418
v 1.995435 -0.250095 -2.103077
v 3.052189 -0.506202 -2.079014
v 4.108446 -0.257391 -2.072524
v 5.194725 -0.117588 -2.073304
v -5.193760 -0.200472 -3.120711
v -4.145442 -0.000044 -3.124056
v -3.100601 -0.002151 -3.146525
v -2.055186 -0.248215 -3.060035
v -1.052007 -0.249956 -3.058391
v 0.021076 -0.008192 -3.128709
v 1.029823 -0.253839 -3.095395
v 1.998097 -0.250296 -3.091442
v 3.042032 -0.506724 -3.109410
v 4.134923 -0.511224 -3.125486
v 5.180023 -0.052188 -3.128126
v -5.151877 0.240330 -4.144403
v -4.115328 -0.004073 -4.159993
v -3.108803 -0.506704 -4.144320
v -2.072572 -0.506960 -4.113602
v -1.013221 -0.504384 -4.121219
v -0.005004 -0.252137 -4.129323
v 1.015191 -0.313585 -4.105439
v 2.010373 -0.481588 -4.105836
v 3.074546 -0.509430 -4.130538
v 4.210648 -0.477852 -4.177812
v 5.197108 -0.097685 -4.171042
v -5.136911 0.247485 -5.194722
v -4.100571 -0.007183 -5.195683
v -3.124206 -0.509241 -5.195801
v -2.059034 -0.746692 -5.195431
v -1.017141 -0.409285 -5.211087
v -0.031865 -0.005613 -5.182297
v 1.021649 -0.252287 -5.171826
v 2.018793 -0.452871 -5.152773
v 3.160999 -0.759518 -5.211401
v 4.174994 -0.248394 -5.208470
v 5.193457 -0.179931 -5.224494
vt 0.000000 0.000000
vt 0.100000 0.000000
vt 0.200000 0.000000
vt 0.300000 0.000000
vt 0.400000 0.000000
vt 0.500000 0.000000
vt 0.600000 0.000000
vt 0.700000 0.000000
vt 0.800000 0.000000
vt 0.900000 0.000000
vt 1.000000 0.000000
vt 0.000000 0.100000
vt 0.100000 0.100000
vt 0.200000 0.100000
vt 0.300000 0.100000
vt 0.400000 0.100000
vt 0.500000 0.100000
vt 0.600000 0.100000
vt 0.700000 0.100000
vt 0.800000 0.100000
vt 0.900000 0.100000
vt 1.000000 0.100000
vt 0.000000 0.200000
vt 0.100000 0.200000
vt 0.200000 0.200000
vt 0.300000 0.200000
vt 0.400000 0.200000
vt 0.500000 0.200000
vt 0.600000 0.200000
vt 0.700000 0.200000
vt 0.800000 0.200000
vt 0.900000 0.200000
vt 1.000000 0.200000
vt 0.000000 0.300000
vt 0.100000 0.300000
vt 0.200000 0.300000
vt 0.300000 0.300000
vt 0.400000 0.300000
vt 0.500000 0.300000
vt 0.600000 0.300000
vt 0.700000 0.300000
vt 0.800000 0.300000
vt 0.900000 0.300000
vt 1.000000 0.300000
vt 0.000000 0.400000
vt 0.100000 0.400000
vt 0.200000 0.400000
vt 0.300000 0.400000
vt 0.400000 0.400000
vt 0.500000 0.400000
vt 0.600000 0.400000
vt 0.700000 0.400000
vt 0.800000 0.400000
vt 0.900000 0.400000
vt 1.000000 0.400000
vt 0.000000 0.500000
vt 0.100000 0.500000
vt 0.200000 0.500000
vt 0.300000 0.500000
vt 0.400000 0.500000
vt 0.500000 0.500000
vt 0.600000 0.500000
vt 0.700000 0.500000
vt 0.800000 0.500000
vt 0.900000 0.500000
vt 1.000000 0.500000
vt 0.000000 0.600000
vt 0.100000 0.600000
vt 0.200000 0.600000
vt 0.300000 0.600000
vt 0.400000 0.600000
vt 0.500000 0.600000
vt 0.600000 0.600000
vt 0.700000 0.600000
vt 0.800000 0.600000
vt 0.900000 0.600000
vt 1.000000 0.600000
vt 0.000000 0.700000
vt 0.100000 0.700000
vt 0.200000 0.700000
vt 0.300000 0.700000
vt 0.400000 0.700000
vt 0.500000 0.700000
vt 0.600000 0.700000
vt 0.700000 0.700000
vt 0.800000 0.700000
vt 0.900000 0.700000
vt 1.000000 0.700000
vt 0.000000 0.800000
vt 0.100000 0.800000
vt 0.200000 0.800000
vt 0.300000 0.800000
vt 0.400000 0.800000
vt 0.500000 0.800000
vt 0.600000 0.800000
vt 0.700000 0.800000
vt 0.800000 0.800000
vt 0.900000 0.800000
vt 1.000000 0.800000
vt 0.000000 0.900000
vt 0.100000 0.900000
vt 0.200000 0.900000
vt 0.300000 0.900000
vt 0.400000 0.900000
vt 0.500000 0.900000
vt 0.600000 0.900000
vt 0.700000 0.900000
vt 0.800000 0.900000
vt 0.900000 0.900000
vt 1.000000 0.900000
vt 0.000000 1.000000
vt 0.100000 1.000000
vt 0.200000 1.000000
vt 0.300000 1.000000
vt 0.400000 1.000000
vt 0.500000 1.000000
vt 0.600000 1.000000
vt 0.700000 1.000000
vt 0.800000 1.000000
vt 0.900000 1.000000
vt 1.000000 1.000000
vn -0.202880 0.978500 0.037115
vn -0.063219 0.997683 -0.025124
vn -0.032091 0.999409 -0.012346
vn -0.105557 0.994195 0.020831
vn 0.154504 0.986960 -0.045150
vn 0.080418 0.995944 0.040357
vn 0.057717 0.996430 0.061613
vn 0.062344 0.990893 0.119348
vn -0.061212 0.996228 0.061508
vn 0.000820 0.998460 0.055471
vn 0.005205 0.999967 -0.006190
vn -0.031157 0.999135 0.027535
vn 0.061321 0.995551 -0.071533
vn 0.084660 0.995521 0.042080
vn 0.116431 0.985132 -0.126329
vn 0.086221 0.995179 0.046752
vn 0.182755 0.981479 -0.057436
vn 0.125245 0.983009 0.134189
vn 0.121410 0.992602 0.000130
vn 0.120370 0.976244 0.180162
vn 0.001697 0.999999 -0.000001
vn -0.056106 0.982442 0.177933
vn -0.060042 0.990520 -0.123554
vn 0.059187 0.983200 -0.172671
vn -0.061570 0.998095 0.003880
vn 0.096743 0.994630 0.036768
vn 0.061661 0.998097 0.000112
vn -0.097742 0.994651 0.033393
vn 0.020773 0.987236 0.157903
vn 0.058777 0.971344 0.230295
vn 0.128276 0.974520 0.184003
vn 0.092267 0.979014 0.181711
vn -0.157149 0.968077 0.195272
vn -0.225897 0.956152 -0.186396
vn 0.054871 0.957451 -0.283333
vn -0.154073 0.986472 -0.055981
vn 0.138989 0.989536 -0.038740
vn 0.037546 0.998988 -0.024767
vn -0.158749 0.986766 0.033054
vn -0.121488 0.985289 0.120193
vn 0.120204 0.985930 0.116156
vn 0.224282 0.974435 0.013175
vn 0.027390 0.999558 0.011552
vn -0.163371 0.985647 0.042536
vn -0.345822 0.938269 0.007667
vn -0.100400 0.994583 -0.026907
vn -0.191695 0.980364 0.046252
vn 0.152999 0.986838 0.052374
vn 0.060371 0.998171 -0.003312
vn -0.156352 0.983961 -0.085881
vn -0.140960 0.981004 -0.133273
vn 0.178889 0.969433 -0.167923
vn 0.207900 0.970051 -0.125616
vn -0.029063 0.998114 -0.054068
vn -0.132314 0.990775 -0.029298
vn -0.376229 0.925800 -0.036699
vn -0.311323 0.950214 -0.013071
vn -0.182360 0.981427 -0.059553
vn 0.078776 0.996888 0.002984
vn 0.124069 0.989822 0.069702
vn -0.058871 0.998260 -0.003230
vn -0.018674 0.982276 -0.186506
vn 0.168814 0.935691 -0.309813
vn 0.049688 0.976441 -0.209987
vn -0.085556 0.993804 -0.070944
vn -0.179971 0.982709 -0.043518
vn -0.325625 0.936047 -0.133358
vn -0.308150 0.945573 -0.104577
vn -0.190728 0.971208 -0.142754
vn -0.006715 0.993733 -0.111577
vn 0.138262 0.984504 -0.107865
vn 0.038908 0.988651 -0.145105
vn 0.132662 0.967445 -0.215527
vn 0.171359 0.957215 -0.233187
vn -0.086396 0.972725 -0.215272
vn -0.130810 0.977646 -0.164615
vn -0.199119 0.969533 -0.142682
vn -0.232745 0.972246 0.023818
vn -0.148972 0.984635 0.091116
vn -0.139764 0.982653 -0.121901
vn 0.046425 0.964240 -0.260933
vn 0.105369 0.952997 -0.284066
vn 0.070086 0.966705 -0.246109
vn 0.114939 0.975375 -0.188235
vn 0.153616 0.984043 -0.089784
vn -0.025357 0.989039 -0.145458
vn -0.168725 0.962348 -0.213113
vn -0.224440 0.956086 -0.188484
vn -0.021880 0.999210 0.033163
vn -0.039508 0.983586 0.176060
vn 0.066332 0.967733 -0.243088
vn 0.085097 0.939370 -0.332178
vn -0.027637 0.973890 -0.225333
vn 0.013565 0.996733 -0.079616
vn 0.089522 0.995146 -0.040877
vn 0.115987 0.991264 -0.062784
vn 0.059446 0.996660 -0.055998
vn -0.191414 0.980060 -0.053316
vn -0.326146 0.943719 -0.054994
vn 0.245468 0.969371 -0.008088
vn 0.130886 0.985636 0.106727
vn 0.235692 0.956142 -0.173902
vn 0.021267 0.980719 -0.194262
vn -0.180542 0.978939 -0.095305
vn -0.072516 0.997185 -0.019051
vn 0.142011 0.989575 -0.023949
vn 0.136910 0.987681 -0.075779
vn 0.009172 0.998598 -0.052140
vn -0.221903 0.975013 0.010418
vn -0.305090 0.952044 0.023058
vn 0.348739 0.937219 0.001224
vn 0.234109 0.972197 0.005221
vn 0.290853 0.955049 -0.057321
vn -0.025792 0.995630 -0.089758
vn -0.237680 0.970313 0.044736
vn -0.091250 0.984222 0.151595
vn 0.161828 0.982342 0.093895
vn 0.162800 0.986176 -0.030868
vn -0.059113 0.996732 -0.055061
vn -0.231800 0.972368 0.027749
vn -0.217464 0.973346 0.072854
s 1
g oct_wrapper_GEO
usemtl initialShadingGroup
f 1/1/1 2/2/2 13/13/3 12/12/4
f 2/2/2 3/3/5 14/14/6 13/13/3
f 3/3/5 4/4/7 15/15/8 14/14/6
f 4/4/7 5/5/9 16/16/10 15/15/8
f 5/5/9 6/6/11 17/17/12 16/16/10
f 6/6/11 7/7/13 18/18/14 17/17/12
f 7/7/13 8/8/15 19/19/16 18/18/14
f 8/8/15 9/9/17 20/20/18 19/19/16
f 9/9/17 10/10/19 21/21/20 20/20/18
f 10/10/19 11/11/21 22/22/22 21/21/20
f 12/12/4 13/13/3 24/24/23 23/23/24
f 13/13/3 14/14/6 25/25/25 24/24/23
f 14/14/6 15/15/8 26/26/26 25/25/25
f 15/15/8 16/16/10 27/27/27 26/26/26
f 16/16/10 17/17/12 28/28/28 27/27/27
f 17/17/12 18/18/14 29/29/29 28/28/28
f 18/18/14 19/19/16 30/30/30 29/29/29
f 19/19/16 20/20/18 31/31/31 30/30/30
f 20/20/18 21/21/20 32/32/32 31/31/31
f 21/21/20 22/22/22 33/33/33 32/32/32
f 23/23/24 24/24/23 35/35/34 34/34/35
f 24/24/23 25/25/25 36/36/36 35/35/34
f 25/25/25 26/26/26 37/37/37 36/36/36
f 26/26/26 27/27/27 38/38/38 37/37/37
f 27/27/27 28/28/28 39/39/39 38/38/38
f 28/28/28 29/29/29 40/40/40 39/39/39
f 29/29/29 30/30/30 41/41/41 40/40/40
f 30/30/30 31/31/31 42/42/42 41/41/41
f 31/31/31 32/32/32 43/43/43 42/42/42
f 32/32/32 33/33/33 44/44/44 43/43/43
f 34/34/35 35/35/34 46/46/45 45/45/46
f 35/35/34 36/36/36 47/47/47 46/46/45
f 36/36/36 37/37/37 48/48/48 47/47/47
f 37/37/37 38/38/38 49/49/49 48/48/48
f 38/38/38 39/39/39 50/50/50 49/49/49
f 39/39/39 40/40/40 51/51/51 50/50/50
f 40/40/40 41/41/41 52/52/52 51/51/51
f 41/41/41 42/42/42 53/53/53 52/52/52
f 42/42/42 43/43/43 54/54/54 53/53/53
f 43/43/43 44/44/44 55/55/55 54/54/54
f 45/45/46 46/46/45 57/57/56 56/56/57
f 46/46/45 47/47/47 58/58/58 57/57/56
f 47/47/47 48/48/48 59/59/59 58/58/58
f 48/48/48 49/49/49 60/60/60 59/59/59
f 49/49/49 50/50/50 61/61/61 60/60/60
f 50/50/50 51/51/51 62/62/62 61/61/61
f 51/51/51 52/52/52 63/63/63 62/62/62
f 52/52/52 53/53/53 64/64/64 63/63/63
f 53/53/53 54/54/54 65/65/65 64/64/64
f 54/54/54 55/55/55 66/66/66 65/65/65
f 56/56/57 57/57/56 68/68/67 67/67/68
f 57/57/56 58/58/58 69/69/69 68/68/67
f 58/58/58 59/59/59 70/70/70 69/69/69
f 59/59/59 60/60/60 71/71/71 70/70/70
f 60/60/60 61/61/61 72/72/72 71/71/71
f 61/61/61 62/62/62 73/73/73 72/72/72
f 62/62/62 63/63/63 74/74/74 73/73/73
f 63/63/63 64/64/64 75/75/75 74/74/74
f 64/64/64 65/65/65 76/76/76 75/75/75
f 65/65/65 66/66/66 77/77/77 76/76/76
f 67/67/68 68/68/67 79/79/78 78/78/79
f 68/68/67 69/69/69 80/80/80 79/79/78
f 69/69/69 70/70/70 81/81/81 80/80/80
f 70/70/70 71/71/71 82/82/82 81/81/81
f 71/71/71 72/72/72 83/83/83 82/82/82
f 72/72/72 73/73/73 84/84/84 83/83/83
f 73/73/73 74/74/74 85/85/85 84/84/84
f 74/74/74 75/75/75 86/86/86 85/85/85
f 75/75/75 76/76/76 87/87/87 86/86/86
f 76/76/76 77/77/77 88/88/88 87/87/87
f 78/78/79 79/79/78 90/90/89 89/89/90
f 79/79/78 80/80/80 91/91/91 90/90/89
f 80/80/80 81/81/81 92/92/92 91/91/91
f 81/81/81 82/82/82 93/93/93 92/92/92
f 82/82/82 83/83/83 94/94/94 93/93/93
f 83/83/83 84/84/84 95/95/95 94/94/94
f 84/84/84 85/85/85 96/96/96 95/95/95
f 85/85/85 86/86/86 97/97/97 96/96/96
f 86/86/86 87/87/87 98/98/98 97/97/97
f 87/87/87 88/88/88 99/99/99 98/98/98
f 89/89/90 90/90/89 101/101/100 100/100/101
f 90/90/89 91/91/91 102/102/102 101/101/100
f 91/91/91 92/92/92 103/103/103 102/102/102
f 92/92/92 93/93/93 104/104/104 103/103/103
f 93/93/93 94/94/94 105/105/105 104/104/104
f 94/94/94 95/95/95 106/106/106 105/105/105
f 95/95/95 96/96/96 107/107/107 106/106/106
f 96/96/96 97/97/97 108/108/108 107/107/107
f 97/97/97 98/98/98 109/109/109 108/108/108
f 98/98/98 99/99/99 110/110/110 109/109/109
f 100/100/101 101/101/100 112/112/111 111/111/112
f 101/101/100 102/102/102 113/113/113 112/112/111
f 102/102/102 103/103/103 114/114/114 113/113/113
f 103/103/103 104/104/104 115/115/115 114/114/114
f 104/104/104 105/105/105 116/116/116 115/115/115
f 105/105/105 106/106/106 117/117/117 116/116/116
f 106/106/106 107/107/107 118/118/118 117/117/117
f 107/107/107 108/108/108 119/119/119 118/118/118
f 108/108/108 109/109/109 120/120/120 119/119/119
f 109/109/109 110/110/110 121/121/121 120/120/120
