# This file uses centimeters as units for non-parametric coordinates.

mtllib midwayhouse.mtl
g default
v 200.000000 202.928925 380.000000
v 147.071075 150.000000 380.000000
v 200.000000 97.071068 380.000000
v 252.928925 150.000000 380.000000
v 200.000015 217.071075 380.000000
v 132.928925 150.000000 380.000000
v 200.000000 82.928932 380.000000
v 267.071075 150.000000 380.000000
v 200.000015 217.071075 367.928925
v 132.928925 150.000000 367.928925
v 200.000000 82.928932 367.928925
v 267.071075 150.000000 367.928925
v 200.000000 202.928925 376.896698
v 147.071075 150.000000 376.896698
v 200.000000 97.071068 376.896698
v 252.928925 150.000000 376.896698
v -50.000000 0.000000 380.000000
v 50.000000 0.000000 380.000000
v -50.000000 200.000000 380.000000
v 50.000000 200.000000 380.000000
v -50.000000 200.000000 370.000000
v 50.000000 200.000000 370.000000
v -50.000000 0.000000 370.000000
v 50.000000 0.000000 370.000000
v -200.000000 202.928925 380.000000
v -252.928925 150.000000 380.000000
v -200.000000 97.071068 380.000000
v -147.071075 150.000000 380.000000
v -199.999985 217.071075 380.000000
v -267.071075 150.000000 380.000000
v -200.000000 82.928932 380.000000
v -132.928925 150.000000 380.000000
v -199.999985 217.071075 367.928925
v -267.071075 150.000000 367.928925
v -200.000000 82.928932 367.928925
v -132.928925 150.000000 367.928925
v -200.000000 202.928925 376.896698
v -252.928925 150.000000 376.896698
v -200.000000 97.071068 376.896698
v -147.071075 150.000000 376.896698
v 424.264130 350.000000 -424.263977
v -424.264038 350.000000 -424.264099
v -424.264099 350.000000 424.264038
v 424.264069 350.000000 424.264069
v 0.000000 650.000000 0.000000
v -375.000000 0.000000 375.000000
v 375.000000 0.000000 375.000000
v -375.000000 350.000000 375.000000
v 375.000000 350.000000 375.000000
v -375.000000 350.000000 -375.000000
v 375.000000 350.000000 -375.000000
v -375.000000 0.000000 -375.000000
v 375.000000 0.000000 -375.000000
v 35.000000 90.000000 395.500000
v 40.303291 84.696686 388.000000
v 40.303284 95.303299 388.000000
v 29.696699 95.303299 388.000000
v 29.696699 84.696701 388.000000
v 37.056747 92.056763 383.408691
v 37.056755 87.943245 383.408691
v 32.943237 92.056763 383.408691
v 32.943237 87.943245 383.408691
v 37.056747 92.056763 376.798279
v 37.056755 87.943245 376.798279
v 32.943237 92.056763 376.798279
v 32.943237 87.943245 376.798279
vt 0.251601 0.682349
vt 0.255809 0.682349
vt 0.255809 0.766525
vt 0.251601 0.766525
vt 0.262691 0.682349
vt 0.266899 0.682349
vt 0.266899 0.766525
vt 0.262691 0.766525
vt 0.003101 0.678564
vt 0.003101 0.362905
vt 0.150408 0.362905
vt 0.150408 0.678564
vt 0.001889 0.998008
vt 0.001889 0.682349
vt 0.149197 0.682349
vt 0.149197 0.998008
vt 0.602187 0.685131
vt 0.600456 0.685131
vt 0.600456 0.682349
vt 0.602187 0.682349
vt 0.603553 0.687064
vt 0.599089 0.687064
vt 0.601321 0.690220
vt 0.622636 0.687438
vt 0.624367 0.687438
vt 0.624367 0.690220
vt 0.622636 0.690220
vt 0.621269 0.685506
vt 0.625734 0.685506
vt 0.623501 0.682349
vt 0.539942 0.724437
vt 0.539942 0.682349
vt 0.544151 0.682349
vt 0.544151 0.724437
vt 0.551032 0.724437
vt 0.551032 0.682349
vt 0.555241 0.682349
vt 0.555241 0.724437
vt 0.001889 0.001992
vt 0.359017 0.001992
vt 0.359017 0.359119
vt 0.001889 0.359119
vt 0.630830 0.321436
vt 0.946489 0.321436
vt 0.946489 0.637095
vt 0.630830 0.637095
vt 0.156227 0.362905
vt 0.471886 0.362905
vt 0.471886 0.678564
vt 0.156227 0.678564
vt 0.611546 0.687438
vt 0.613277 0.687438
vt 0.613277 0.690220
vt 0.611546 0.690220
vt 0.610179 0.685506
vt 0.614644 0.685506
vt 0.612411 0.682349
vt 0.635457 0.643663
vt 0.633726 0.643663
vt 0.633726 0.640881
vt 0.635457 0.640881
vt 0.636824 0.645595
vt 0.632360 0.645595
vt 0.634592 0.648752
vt 0.279733 0.710578
vt 0.302009 0.732855
vt 0.302009 0.738807
vt 0.273781 0.710578
vt 0.324286 0.710578
vt 0.330238 0.710578
vt 0.302009 0.688301
vt 0.302009 0.682349
vt 0.429042 0.704626
vt 0.451318 0.682349
vt 0.473595 0.704626
vt 0.451318 0.726902
vt 0.155487 0.682349
vt 0.197574 0.682349
vt 0.197574 0.766525
vt 0.155487 0.766525
vt 0.203544 0.682349
vt 0.245631 0.682349
vt 0.245631 0.766525
vt 0.203544 0.766525
vt 0.353667 0.710578
vt 0.375943 0.732855
vt 0.375943 0.738807
vt 0.347714 0.710578
vt 0.398220 0.710578
vt 0.404172 0.710578
vt 0.375943 0.688301
vt 0.375943 0.682349
vt 0.488189 0.704626
vt 0.510465 0.682349
vt 0.532742 0.704626
vt 0.510465 0.726902
vt 0.499279 0.317651
vt 0.499279 0.001992
vt 0.646586 0.001992
vt 0.646586 0.317651
vt 0.477704 0.678564
vt 0.477704 0.362905
vt 0.625012 0.362905
vt 0.625012 0.678564
vt 0.341705 0.710578
vt 0.341705 0.738807
vt 0.336624 0.738807
vt 0.336624 0.710578
vt 0.341705 0.710578
vt 0.336624 0.710578
vt 0.341705 0.682349
vt 0.336624 0.682349
vt 0.562122 0.710578
vt 0.562122 0.682349
vt 0.567203 0.682349
vt 0.567203 0.710578
vt 0.422954 0.704626
vt 0.422954 0.726902
vt 0.421648 0.726902
vt 0.421648 0.704626
vt 0.422954 0.704626
vt 0.421648 0.704626
vt 0.422954 0.682349
vt 0.421648 0.682349
vt 0.584303 0.704626
vt 0.584303 0.682349
vt 0.585609 0.682349
vt 0.585609 0.704626
vt 0.415639 0.710578
vt 0.415639 0.738807
vt 0.410558 0.738807
vt 0.410558 0.710578
vt 0.415639 0.710578
vt 0.410558 0.710578
vt 0.415639 0.682349
vt 0.410558 0.682349
vt 0.573213 0.710578
vt 0.573213 0.682349
vt 0.578293 0.682349
vt 0.578293 0.710578
vt 0.482101 0.704626
vt 0.482101 0.726902
vt 0.480795 0.726902
vt 0.480795 0.704626
vt 0.482101 0.704626
vt 0.480795 0.704626
vt 0.482101 0.682349
vt 0.480795 0.682349
vt 0.591696 0.704626
vt 0.591696 0.682349
vt 0.593002 0.682349
vt 0.593002 0.704626
vt 0.366198 0.359119
vt 0.366198 0.001992
vt 0.492461 0.180556
vt 0.366198 0.001992
vt 0.366198 0.359119
vn -0.000002 0.000000 1.000000
vn -0.000002 0.000000 1.000000
vn -0.000002 0.000000 1.000000
vn -0.000002 0.000000 1.000000
vn 0.000000 0.000000 1.000000
vn 0.000000 0.000000 1.000000
vn 0.000000 0.000000 1.000000
vn 0.000000 0.000000 1.000000
vn 0.000000 0.000000 1.000000
vn 0.000000 0.000000 1.000000
vn 0.000000 0.000000 1.000000
vn 0.000000 0.000000 1.000000
vn 0.000002 0.000000 1.000000
vn 0.000002 0.000000 1.000000
vn 0.000002 0.000000 1.000000
vn 0.000002 0.000000 1.000000
vn -0.707106 0.707107 0.000000
vn -0.707106 0.707107 0.000000
vn -0.707106 0.707107 0.000000
vn -0.707106 0.707107 0.000000
vn -0.707106 -0.707107 0.000000
vn -0.707106 -0.707107 0.000000
vn -0.707106 -0.707107 0.000000
vn -0.707106 -0.707107 0.000000
vn 0.707106 -0.707107 0.000000
vn 0.707106 -0.707107 0.000000
vn 0.707106 -0.707107 0.000000
vn 0.707106 -0.707107 0.000000
vn 0.707106 0.707107 0.000000
vn 0.707106 0.707107 0.000000
vn 0.707106 0.707107 0.000000
vn 0.707106 0.707107 0.000000
vn 0.707110 -0.707104 0.000000
vn 0.707110 -0.707104 0.000000
vn 0.707110 -0.707104 0.000000
vn 0.707110 -0.707104 0.000000
vn 0.707106 0.707108 0.000000
vn 0.707106 0.707108 0.000000
vn 0.707106 0.707108 0.000000
vn 0.707106 0.707108 0.000000
vn -0.707106 0.707108 0.000000
vn -0.707106 0.707108 0.000000
vn -0.707106 0.707108 0.000000
vn -0.707106 0.707108 0.000000
vn -0.707110 -0.707104 0.000000
vn -0.707110 -0.707104 0.000000
vn -0.707110 -0.707104 0.000000
vn -0.707110 -0.707104 0.000000
vn 0.000000 0.000000 1.000000
vn 0.000000 0.000000 1.000000
vn 0.000000 0.000000 1.000000
vn 0.000000 0.000000 1.000000
vn 0.000000 0.000000 1.000000
vn 0.000000 0.000000 1.000000
vn 0.000000 0.000000 1.000000
vn 0.000000 0.000000 1.000000
vn 0.000000 1.000000 0.000000
vn 0.000000 1.000000 0.000000
vn 0.000000 1.000000 0.000000
vn 0.000000 1.000000 0.000000
vn 0.000000 0.000000 -1.000000
vn 0.000000 0.000000 -1.000000
vn 0.000000 0.000000 -1.000000
vn 0.000000 0.000000 -1.000000
vn 0.000000 -1.000000 0.000000
vn 0.000000 -1.000000 0.000000
vn 0.000000 -1.000000 0.000000
vn 0.000000 -1.000000 0.000000
vn 1.000000 0.000000 0.000000
vn 1.000000 0.000000 0.000000
vn 1.000000 0.000000 0.000000
vn 1.000000 0.000000 0.000000
vn -1.000000 0.000000 0.000000
vn -1.000000 0.000000 0.000000
vn -1.000000 0.000000 0.000000
vn -1.000000 0.000000 0.000000
vn -0.000002 0.000000 1.000000
vn -0.000002 0.000000 1.000000
vn -0.000002 0.000000 1.000000
vn -0.000002 0.000000 1.000000
vn 0.000000 0.000000 1.000000
vn 0.000000 0.000000 1.000000
vn 0.000000 0.000000 1.000000
vn 0.000000 0.000000 1.000000
vn 0.000000 0.000000 1.000000
vn 0.000000 0.000000 1.000000
vn 0.000000 0.000000 1.000000
vn 0.000000 0.000000 1.000000
vn 0.000002 0.000000 1.000000
vn 0.000002 0.000000 1.000000
vn 0.000002 0.000000 1.000000
vn 0.000002 0.000000 1.000000
vn -0.707106 0.707107 0.000000
vn -0.707106 0.707107 0.000000
vn -0.707106 0.707107 0.000000
vn -0.707106 0.707107 0.000000
vn -0.707106 -0.707107 0.000000
vn -0.707106 -0.707107 0.000000
vn -0.707106 -0.707107 0.000000
vn -0.707106 -0.707107 0.000000
vn 0.707106 -0.707107 0.000000
vn 0.707106 -0.707107 0.000000
vn 0.707106 -0.707107 0.000000
vn 0.707106 -0.707107 0.000000
vn 0.707107 0.707107 0.000000
vn 0.707107 0.707107 0.000000
vn 0.707107 0.707107 0.000000
vn 0.707107 0.707107 0.000000
vn 0.707110 -0.707104 0.000000
vn 0.707110 -0.707104 0.000000
vn 0.707110 -0.707104 0.000000
vn 0.707110 -0.707104 0.000000
vn 0.707106 0.707108 0.000000
vn 0.707106 0.707108 0.000000
vn 0.707106 0.707108 0.000000
vn 0.707106 0.707108 0.000000
vn -0.707106 0.707108 0.000000
vn -0.707106 0.707108 0.000000
vn -0.707106 0.707108 0.000000
vn -0.707106 0.707108 0.000000
vn -0.707110 -0.707104 0.000000
vn -0.707110 -0.707104 0.000000
vn -0.707110 -0.707104 0.000000
vn -0.707110 -0.707104 0.000000
vn 0.000000 0.000000 1.000000
vn 0.000000 0.000000 1.000000
vn 0.000000 0.000000 1.000000
vn 0.000000 0.000000 1.000000
vn 0.000000 -1.000000 0.000000
vn 0.000000 -1.000000 0.000000
vn 0.000000 -1.000000 0.000000
vn 0.000000 -1.000000 0.000000
vn 0.000000 0.816497 -0.577350
vn 0.000000 0.816497 -0.577350
vn 0.000000 0.816497 -0.577350
vn -0.577350 0.816497 -0.000000
vn -0.577350 0.816497 -0.000000
vn -0.577350 0.816497 -0.000000
vn -0.000000 0.816497 0.577350
vn -0.000000 0.816497 0.577350
vn -0.000000 0.816497 0.577350
vn 0.577350 0.816497 0.000000
vn 0.577350 0.816497 0.000000
vn 0.577350 0.816497 0.000000
vn 0.000000 0.000000 1.000000
vn 0.000000 0.000000 1.000000
vn 0.000000 0.000000 1.000000
vn 0.000000 0.000000 1.000000
vn 0.000000 1.000000 0.000000
vn 0.000000 1.000000 0.000000
vn 0.000000 1.000000 0.000000
vn 0.000000 1.000000 0.000000
vn 0.000000 0.000000 -1.000000
vn 0.000000 0.000000 -1.000000
vn 0.000000 0.000000 -1.000000
vn 0.000000 0.000000 -1.000000
vn 0.000000 -1.000000 0.000000
vn 0.000000 -1.000000 0.000000
vn 0.000000 -1.000000 0.000000
vn 0.000000 -1.000000 0.000000
vn 1.000000 0.000000 0.000000
vn 1.000000 0.000000 0.000000
vn 1.000000 0.000000 0.000000
vn 1.000000 0.000000 0.000000
vn -1.000000 0.000000 0.000000
vn -1.000000 0.000000 0.000000
vn -1.000000 0.000000 0.000000
vn -1.000000 0.000000 0.000000
vn 0.816498 0.000000 0.577348
vn 0.816498 0.000000 0.577348
vn 0.816498 0.000000 0.577348
vn 0.000000 0.816497 0.577350
vn 0.000000 0.816497 0.577350
vn 0.000000 0.816497 0.577350
vn -0.816498 0.000000 0.577348
vn -0.816498 0.000000 0.577348
vn -0.816498 0.000000 0.577348
vn 0.000000 -0.816496 0.577351
vn 0.000000 -0.816496 0.577351
vn 0.000000 -0.816496 0.577351
vn 0.816496 0.000001 -0.577351
vn 0.816496 0.000001 -0.577351
vn 0.816496 0.000001 -0.577351
vn 0.816496 0.000001 -0.577351
vn 0.000000 0.816498 -0.577348
vn 0.000000 0.816498 -0.577348
vn 0.000000 0.816498 -0.577348
vn 0.000000 0.816498 -0.577348
vn -0.816497 0.000000 -0.577350
vn -0.816497 0.000000 -0.577350
vn -0.816497 0.000000 -0.577350
vn -0.816497 0.000000 -0.577350
vn 0.000000 -0.816496 -0.577351
vn 0.000000 -0.816496 -0.577351
vn 0.000000 -0.816496 -0.577351
vn 0.000000 -0.816496 -0.577351
vn 1.000000 0.000002 0.000000
vn 1.000000 0.000002 0.000000
vn 1.000000 0.000002 0.000000
vn 1.000000 0.000002 0.000000
vn 0.000000 1.000000 0.000000
vn 0.000000 1.000000 0.000000
vn 0.000000 1.000000 0.000000
vn 0.000000 1.000000 0.000000
vn -1.000000 0.000000 0.000000
vn -1.000000 0.000000 0.000000
vn -1.000000 0.000000 0.000000
vn -1.000000 0.000000 0.000000
vn 0.000000 -1.000000 0.000000
vn 0.000000 -1.000000 0.000000
vn 0.000000 -1.000000 0.000000
vn 0.000000 -1.000000 0.000000
s off
g pTorus3
usemtl initialShadingGroup
f 2/65/1 1/66/2 5/67/3 6/68/4
f 3/71/5 2/65/6 6/68/7 7/72/8
f 4/69/9 3/71/10 7/72/11 8/70/12
f 1/66/13 4/69/14 8/70/15 5/67/16
f 6/105/17 5/106/18 9/107/19 10/108/20
f 7/111/21 6/105/22 10/108/23 11/112/24
f 8/113/25 7/114/26 11/115/27 12/116/28
f 5/106/29 8/109/30 12/110/31 9/107/32
f 14/117/33 13/118/34 1/119/35 2/120/36
f 15/123/37 14/117/38 2/120/39 3/124/40
f 16/125/41 15/126/42 3/127/43 4/128/44
f 13/118/45 16/121/46 4/122/47 1/119/48
f 14/73/49 15/74/50 16/75/51 13/76/52
f 17/77/53 18/78/54 20/79/55 19/80/56
f 19/31/57 20/32/58 22/33/59 21/34/60
f 21/81/61 22/82/62 24/83/63 23/84/64
f 23/35/65 24/36/66 18/37/67 17/38/68
f 18/1/69 24/2/70 22/3/71 20/4/72
f 23/5/73 17/6/74 19/7/75 21/8/76
f 26/85/77 25/86/78 29/87/79 30/88/80
f 27/91/81 26/85/82 30/88/83 31/92/84
f 28/89/85 27/91/86 31/92/87 32/90/88
f 25/86/89 28/89/90 32/90/91 29/87/92
f 30/129/93 29/130/94 33/131/95 34/132/96
f 31/135/97 30/129/98 34/132/99 35/136/100
f 32/137/101 31/138/102 35/139/103 36/140/104
f 29/130/105 32/133/106 36/134/107 33/131/108
f 38/141/109 37/142/110 25/143/111 26/144/112
f 39/147/113 38/141/114 26/144/115 27/148/116
f 40/149/117 39/150/118 27/151/119 28/152/120
f 37/142/121 40/145/122 28/146/123 25/143/124
f 38/93/125 39/94/126 40/95/127 37/96/128
f 41/39/129 44/40/130 43/41/131 42/42/132
f 41/157/133 42/153/134 45/155/135
f 42/153/136 43/154/137 45/155/138
f 43/154/139 44/156/140 45/155/141
f 44/156/142 41/157/143 45/155/144
f 46/97/145 47/98/146 49/99/147 48/100/148
f 48/43/149 49/44/150 51/45/151 50/46/152
f 50/101/153 51/102/154 53/103/155 52/104/156
f 52/47/157 53/48/158 47/49/159 46/50/160
f 47/9/161 53/10/162 51/11/163 49/12/164
f 52/13/165 46/14/166 48/15/167 50/16/168
f 55/22/169 56/21/170 54/23/171
f 56/56/172 57/55/173 54/57/174
f 57/29/175 58/28/176 54/30/177
f 54/64/178 58/63/179 55/62/180
f 60/18/181 59/17/182 56/21/183 55/22/184
f 59/52/185 61/51/186 57/55/187 56/56/188
f 61/25/189 62/24/190 58/28/191 57/29/192
f 62/59/193 60/58/194 55/62/195 58/63/196
f 59/17/197 60/18/198 64/19/199 63/20/200
f 61/51/201 59/52/202 63/53/203 65/54/204
f 62/24/205 61/25/206 65/26/207 66/27/208
f 60/58/209 62/59/210 66/60/211 64/61/212
