# This file uses centimeters as units for non-parametric coordinates.

mtllib Cruft.mtl
g default
v 0.317360 4.343666 0.185784
v 0.693985 3.783696 0.385702
v 1.102910 4.236095 0.385702
v 0.940236 5.233999 0.332413
v 1.512736 5.274743 0.536913
v 1.735693 5.236925 0.376964
v 0.221474 6.169798 0.376582
v 0.693985 6.505844 0.385702
v 1.311590 6.018511 0.385702
v -1.255212 7.512519 -0.061518
v 0.000000 7.594008 0.000000
v 1.697974 6.715520 0.000000
v 0.317359 6.167764 -0.354735
v 0.693985 6.505844 -0.385702
v 1.311590 6.018511 -0.385702
v 1.080609 5.209601 -0.514510
v 1.439884 5.302637 -0.517934
v 1.735693 5.236925 -0.376964
v 0.317360 4.343666 -0.210241
v 0.693985 3.783696 -0.385702
v 1.102910 4.236095 -0.385702
v -1.536410 3.211743 -0.175332
v 0.000000 2.884144 0.000000
v 1.374454 3.631583 0.000000
v 2.354932 5.239076 0.000000
v 0.549754 5.178107 -0.013453
vt 0.375000 0.000000
vt 0.500000 0.000000
vt 0.625000 0.000000
vt 0.375000 0.125000
vt 0.500000 0.125000
vt 0.625000 0.125000
vt 0.375000 0.250000
vt 0.500000 0.250000
vt 0.625000 0.250000
vt 0.375000 0.375000
vt 0.500000 0.375000
vt 0.625000 0.375000
vt 0.375000 0.500000
vt 0.500000 0.500000
vt 0.625000 0.500000
vt 0.375000 0.625000
vt 0.500000 0.625000
vt 0.625000 0.625000
vt 0.375000 0.750000
vt 0.500000 0.750000
vt 0.625000 0.750000
vt 0.375000 0.875000
vt 0.500000 0.875000
vt 0.625000 0.875000
vt 0.375000 1.000000
vt 0.500000 1.000000
vt 0.625000 1.000000
vt 0.875000 0.000000
vt 0.750000 0.000000
vt 0.875000 0.125000
vt 0.750000 0.125000
vt 0.875000 0.250000
vt 0.750000 0.250000
vt 0.125000 0.000000
vt 0.250000 0.000000
vt 0.125000 0.125000
vt 0.250000 0.125000
vt 0.125000 0.250000
vt 0.250000 0.250000
vn -0.346722 0.093165 0.933330
vn -0.294617 0.064674 0.953424
vn -0.035882 0.012359 0.999279
vn -0.276211 0.022881 0.960825
vn 0.407767 -0.287085 0.866781
vn 0.392225 -0.013380 0.919772
vn -0.124064 -0.040317 0.991455
vn -0.173764 -0.074786 0.981944
vn 0.342915 0.275328 0.898111
vn -0.097537 0.240206 0.965809
vn 0.092277 0.344988 0.934060
vn 0.052211 0.982436 0.179149
vn -0.278591 0.955009 -0.101715
vn 0.247707 0.419957 0.873085
vn 0.508047 0.861330 0.000000
vn 0.121466 0.342338 -0.931692
vn -0.041571 0.232436 -0.971723
vn 0.247707 0.419957 -0.873085
vn -0.088751 0.072246 -0.993430
vn -0.036169 0.094835 -0.994836
vn 0.045290 0.024461 -0.998674
vn -0.179979 0.019903 -0.983469
vn 0.278915 0.222540 -0.934175
vn 0.298519 -0.018847 -0.954217
vn -0.182901 -0.044836 -0.982108
vn -0.248230 -0.020181 -0.968491
vn 0.301549 -0.210566 -0.929909
vn -0.060147 -0.129493 -0.989754
vn 0.121872 -0.308287 -0.943454
vn -0.331700 -0.793865 0.509659
vn -0.719015 -0.547930 -0.427539
vn 0.338376 -0.502946 -0.795328
vn 0.558212 -0.829699 0.000000
vn 0.029447 -0.286162 0.957729
vn -0.225205 -0.074687 0.971444
vn 0.338376 -0.502946 0.795328
vn 0.852576 -0.522604 0.000000
vn 0.493551 -0.302532 -0.815403
vn 0.506675 -0.057179 -0.860239
vn 0.995265 -0.097200 0.000000
vn 0.493551 -0.302532 0.815403
vn 0.506675 -0.057179 0.860239
vn 0.482825 0.227887 -0.845546
vn 0.904331 0.426831 0.000000
vn 0.482825 0.227887 0.845546
vn -0.348417 0.305980 -0.885992
vn -0.779711 0.620863 0.081114
vn -0.988779 -0.148925 -0.011716
vn -0.493508 -0.146457 -0.857321
vn -0.435264 0.321968 0.840762
vn -0.583009 -0.193834 0.789005
vn -0.798175 -0.600492 -0.048230
vn -0.526590 -0.385027 -0.757929
vn -0.593234 -0.457028 0.662721
s 1
g pCube1
usemtl initialShadingGroup
f 1/1/1 2/2/2 5/5/3 4/4/4
f 2/2/2 3/3/5 6/6/6 5/5/3
f 4/4/4 5/5/3 8/8/7 7/7/8
f 5/5/3 6/6/6 9/9/9 8/8/7
s 2
f 7/7/10 8/8/11 11/11/12 10/10/13
f 8/8/11 9/9/14 12/12/15 11/11/12
f 10/10/13 11/11/12 14/14/16 13/13/17
f 11/11/12 12/12/15 15/15/18 14/14/16
s 3
f 13/13/19 14/14/20 17/17/21 16/16/22
f 14/14/20 15/15/23 18/18/24 17/17/21
f 16/16/22 17/17/21 20/20/25 19/19/26
f 17/17/21 18/18/24 21/21/27 20/20/25
s 4
f 19/19/28 20/20/29 23/23/30 22/22/31
f 20/20/29 21/21/32 24/24/33 23/23/30
f 22/22/31 23/23/30 2/26/34 1/25/35
f 23/23/30 24/24/33 3/27/36 2/26/34
s 5
f 24/29/37 21/28/38 18/30/39 25/31/40
f 3/3/41 24/29/37 25/31/40 6/6/42
f 25/31/40 18/30/39 15/32/43 12/33/44
f 6/6/42 25/31/40 12/33/44 9/9/45
s 6
f 19/34/46 22/35/47 26/37/48 16/36/49
f 22/35/47 1/1/50 4/4/51 26/37/48
f 16/36/49 26/37/48 10/39/52 13/38/53
f 26/37/48 4/4/51 7/7/54 10/39/52
