# This file uses centimeters as units for non-parametric coordinates.

mtllib B_b1.mtl
g default
v 1.571567 10.217733 -4.334667
v 1.225831 10.217733 -3.981557
v 0.840591 10.217733 -4.358752
v 1.186326 10.217733 -4.711862
v 0.877651 10.217733 -4.043046
v 1.502744 10.217733 -4.681472
v 0.846504 10.217733 -4.676137
v 1.543021 10.217733 -3.994166
v 0.957619 10.830428 -4.116984
v 1.233738 10.830428 -4.057376
v 1.460980 10.830428 -4.080006
v 1.495931 10.830428 -4.325162
v 1.430510 10.830428 -4.599961
v 1.178419 10.830428 -4.636043
v 0.934056 10.830428 -4.595926
v 0.916226 10.830428 -4.368258
v 1.215930 12.007586 -4.260810
v 1.267692 12.007586 -4.282244
v 1.146023 12.007586 -4.291182
v 1.140327 12.007586 -4.406949
v 1.119991 12.007586 -4.354746
v 1.292166 12.007586 -4.338673
v 1.260327 12.007586 -4.407924
v 1.196227 12.007586 -4.432609
v 1.219646 12.230293 -4.228408
v 1.308030 12.230293 -4.240038
v 1.194421 12.230293 -4.348421
v 1.106704 12.230293 -4.254827
v 1.097279 12.230293 -4.446387
v 1.087517 12.230293 -4.357778
v 1.324640 12.230293 -4.335641
v 1.295843 12.230293 -4.448001
v 1.192511 12.230293 -4.465011
v 1.245184 11.132005 -4.004316
v 1.244965 11.304727 -4.007649
v 1.501110 11.132209 -4.038004
v 1.498368 11.305058 -4.040887
v 0.862935 11.132017 -4.378581
v 0.866270 11.304718 -4.378433
v 0.891216 11.132209 -4.635160
v 0.894156 11.305058 -4.632480
v 0.918444 11.132272 -4.080745
v 0.921186 11.305089 -4.083298
v 1.549228 11.132062 -4.314837
v 1.545866 11.304774 -4.314988
v 1.465914 11.132272 -4.639893
v 1.463420 11.305089 -4.637097
v 1.166972 11.132073 -4.689111
v 1.167194 11.304770 -4.685754
v 1.206079 10.217733 -4.346709
vt 0.346216 0.209378
vt 0.263185 0.209378
vt 0.234112 0.001866
vt 0.349436 0.001866
vt 0.248959 0.311588
vt 0.342720 0.311538
vt 0.466894 0.001866
vt 0.439287 0.209378
vt 0.452812 0.311609
vt 0.249936 0.370130
vt 0.342771 0.370034
vt 0.451865 0.370140
vt 0.350793 0.608067
vt 0.331681 0.608067
vt 0.374247 0.608067
vt 0.349766 0.683496
vt 0.317386 0.683496
vt 0.387821 0.683496
vt 0.808084 0.209378
vt 0.730976 0.209378
vt 0.703810 0.001866
vt 0.811304 0.001866
vt 0.804588 0.311523
vt 0.717688 0.311588
vt 0.918230 0.001866
vt 0.893188 0.209378
vt 0.804638 0.370015
vt 0.718596 0.370130
vt 0.905462 0.311609
vt 0.904597 0.370140
vt 0.812661 0.608067
vt 0.794980 0.608067
vt 0.834189 0.608067
vt 0.811634 0.683496
vt 0.781623 0.683496
vt 0.846502 0.683496
vt 0.664393 0.723048
vt 0.668332 0.693113
vt 0.705040 0.731591
vt 0.673340 0.761300
vt 0.700711 0.687487
vt 0.738766 0.697241
vt 0.738219 0.764492
vt 0.708209 0.767798
vt 0.744527 0.732238
vt 0.878414 0.687487
vt 0.874336 0.811274
vt 0.750663 0.817964
vt 0.760955 0.710797
vt 0.993738 0.697156
vt 0.998008 0.804584
vt 0.870257 0.935060
vt 0.762762 0.933058
vt 0.977182 0.922508
vt 0.001992 0.001866
vt 0.119916 0.001866
vt 0.122594 0.209378
vt 0.029076 0.209378
vt 0.227345 0.001866
vt 0.199559 0.209378
vt 0.126471 0.311519
vt 0.015808 0.311609
vt 0.213150 0.311588
vt 0.126397 0.370018
vt 0.016737 0.370140
vt 0.212221 0.370130
vt 0.116563 0.608067
vt 0.092886 0.608067
vt 0.134094 0.608067
vt 0.117822 0.683496
vt 0.079570 0.683496
vt 0.147756 0.683496
vt 0.586249 0.475984
vt 0.671629 0.475984
vt 0.696094 0.683496
vt 0.588927 0.683496
vt 0.683620 0.373753
vt 0.582372 0.373820
vt 0.473833 0.683496
vt 0.503486 0.475984
vt 0.488977 0.373774
vt 0.682775 0.315222
vt 0.582447 0.315330
vt 0.489973 0.315233
vt 0.592280 0.077295
vt 0.613990 0.077295
vt 0.573348 0.077295
vt 0.591022 0.001866
vt 0.626019 0.001866
vt 0.558768 0.001866
vn 0.000000 1.000000 0.000000
vn 0.000000 1.000000 -0.000005
vn 0.000000 1.000000 0.000001
vn 0.000000 1.000000 0.000001
vn 0.000000 1.000000 0.000001
vn 0.000000 1.000000 0.000001
vn 0.000000 1.000000 0.000007
vn 0.000000 1.000000 0.000003
vn 0.000000 1.000000 -0.000005
vn 0.000000 1.000000 -0.000009
vn 0.000000 1.000000 -0.000001
vn 0.000000 1.000000 0.000001
vn 0.000000 1.000000 0.000007
vn 0.000000 1.000000 0.000001
vn 0.000000 1.000000 -0.000001
vn 0.000000 1.000000 0.000010
vn -0.690760 0.162843 0.704509
vn -0.188743 0.132454 0.973053
vn -0.074409 0.041676 0.996357
vn -0.698145 0.048964 0.714280
vn 0.064006 0.134328 0.988868
vn 0.703628 0.173703 0.689010
vn 0.713522 0.055237 0.698452
vn -0.074409 0.041676 0.996357
vn 0.997374 0.041445 -0.059394
vn 0.713522 0.055237 0.698452
vn 0.703628 0.173703 0.689010
vn 0.985283 0.133436 0.106824
vn 0.968853 0.132454 -0.209237
vn 0.689775 0.162842 -0.705474
vn 0.699387 0.048958 -0.713064
vn 0.997374 0.041445 -0.059394
vn -0.007710 0.041201 -0.999121
vn 0.699387 0.048958 -0.713064
vn 0.689775 0.162842 -0.705474
vn 0.115085 0.133901 -0.984290
vn -0.703705 0.173703 -0.688932
vn -0.713353 0.055236 -0.698624
vn -0.007710 0.041201 -0.999121
vn -0.127591 0.133436 -0.982810
vn -0.997897 0.041508 0.049779
vn -0.713353 0.055236 -0.698624
vn -0.703705 0.173703 -0.688932
vn -0.989998 0.134328 -0.043124
vn -0.981642 0.133901 0.135832
vn -0.690760 0.162843 0.704509
vn -0.698145 0.048964 0.714280
vn -0.997897 0.041508 0.049779
vn 0.225759 -0.182614 0.956914
vn 0.225759 -0.182614 0.956914
vn 0.225759 -0.182614 0.956914
vn 0.225759 -0.182614 0.956914
vn -0.292362 -0.168676 0.941314
vn -0.292362 -0.168676 0.941314
vn -0.292362 -0.168676 0.941314
vn -0.292362 -0.168676 0.941314
vn -0.961467 -0.182614 -0.205509
vn -0.961467 -0.182614 -0.205509
vn -0.961467 -0.182614 -0.205509
vn -0.961467 -0.182614 -0.205509
vn -0.950578 -0.172527 0.258138
vn -0.950578 -0.172527 0.258138
vn -0.950578 -0.172527 0.258138
vn -0.950578 -0.172527 0.258138
vn 0.949382 -0.181251 0.256558
vn 0.949382 -0.181251 0.256558
vn 0.949382 -0.181251 0.256558
vn 0.949382 -0.181251 0.256558
vn 0.934936 -0.168675 -0.312159
vn 0.934936 -0.168675 -0.312159
vn 0.934936 -0.168675 -0.312159
vn 0.934936 -0.168675 -0.312159
vn 0.238021 -0.172528 -0.955814
vn 0.238021 -0.172528 -0.955814
vn 0.238021 -0.172528 -0.955814
vn 0.238021 -0.172528 -0.955814
vn -0.276527 -0.181252 -0.943759
vn -0.276527 -0.181252 -0.943759
vn -0.276527 -0.181252 -0.943759
vn -0.276527 -0.181252 -0.943759
vn -0.072949 0.018851 0.997158
vn -0.073433 0.018850 0.997122
vn -0.227586 0.018246 0.973587
vn -0.227586 0.018246 0.973587
vn -0.073433 0.018850 0.997122
vn -0.072949 0.018851 0.997158
vn 0.130236 0.018947 0.991302
vn 0.130236 0.018947 0.991302
vn 0.985098 0.018901 0.170951
vn 0.985098 0.018901 0.170951
vn 0.998124 0.019002 -0.058201
vn 0.998099 0.019001 -0.058636
vn -0.998622 0.018942 0.048936
vn -0.998608 0.018941 0.049228
vn -0.993828 0.018944 -0.109299
vn -0.993828 0.018944 -0.109299
vn -0.998608 0.018941 0.049228
vn -0.998622 0.018942 0.048936
vn -0.982933 0.018565 0.183025
vn -0.982933 0.018565 0.183025
vn -0.191708 0.018898 -0.981270
vn -0.191708 0.018898 -0.981270
vn -0.008067 0.019063 -0.999786
vn -0.008302 0.019063 -0.999784
vn 0.998099 0.019001 -0.058636
vn 0.998124 0.019002 -0.058201
vn 0.968570 0.018316 -0.248068
vn 0.968570 0.018316 -0.248068
vn 0.162226 0.018637 -0.986578
vn 0.162226 0.018637 -0.986578
vn -0.008302 0.019063 -0.999784
vn -0.008067 0.019063 -0.999786
vn -0.074409 0.041676 0.996357
vn 0.713522 0.055237 0.698452
vn 0.114272 -0.164141 0.979796
vn -0.067410 -0.160099 0.984797
vn -0.698145 0.048964 0.714280
vn -0.074409 0.041676 0.996357
vn -0.067410 -0.160099 0.984797
vn -0.217601 -0.152664 0.964025
vn -0.985837 -0.161545 0.045042
vn -0.981989 -0.164140 -0.093572
vn -0.713353 0.055236 -0.698624
vn -0.997897 0.041508 0.049779
vn 0.997374 0.041445 -0.059394
vn 0.699387 0.048958 -0.713064
vn 0.959220 -0.152659 -0.237892
vn 0.985504 -0.161311 -0.052544
vn -0.997897 0.041508 0.049779
vn -0.698145 0.048964 0.714280
vn -0.972649 -0.156419 0.171718
vn -0.985837 -0.161545 0.045042
vn 0.151147 -0.156416 -0.976058
vn 0.699387 0.048958 -0.713064
vn -0.007710 0.041201 -0.999121
vn -0.011728 -0.162515 -0.986636
vn -0.713353 0.055236 -0.698624
vn -0.175592 -0.164275 -0.970660
vn -0.011728 -0.162515 -0.986636
vn -0.007710 0.041201 -0.999121
vn 0.974149 -0.164274 0.155071
vn 0.713522 0.055237 0.698452
vn 0.997374 0.041445 -0.059394
vn 0.985504 -0.161311 -0.052544
vn -0.061171 0.349925 0.934778
vn 0.164533 0.354317 0.920537
vn 0.164533 0.354317 0.920537
vn -0.073296 0.349177 0.934186
vn -0.244922 0.332863 0.910613
vn -0.061171 0.349925 0.934778
vn -0.073296 0.349177 0.934186
vn -0.244922 0.332863 0.910613
vn -0.923804 0.354317 -0.145069
vn -0.935098 0.352025 0.040865
vn -0.934838 0.351626 0.049376
vn -0.923804 0.354317 -0.145069
vn -0.935098 0.352025 0.040865
vn -0.917589 0.339553 0.206721
vn -0.917589 0.339553 0.206721
vn -0.934838 0.351626 0.049376
vn 0.914391 0.352655 0.198805
vn 0.934891 0.351701 -0.047804
vn 0.934450 0.351130 -0.059254
vn 0.914391 0.352655 0.198805
vn 0.934891 0.351701 -0.047804
vn 0.905242 0.332862 -0.264082
vn 0.905242 0.332862 -0.264082
vn 0.934450 0.351130 -0.059254
vn 0.187314 0.339555 -0.921746
vn -0.012172 0.353340 -0.935416
vn -0.004428 0.353069 -0.935587
vn 0.187314 0.339555 -0.921746
vn -0.012172 0.353340 -0.935416
vn -0.218058 0.352656 -0.909991
vn -0.218058 0.352656 -0.909991
vn -0.004428 0.353069 -0.935587
vn 0.000000 -1.000000 0.000001
vn 0.000000 -1.000000 0.000000
vn 0.000000 -1.000000 -0.000001
vn 0.000000 -1.000000 0.000000
vn 0.000000 -1.000000 0.000001
vn 0.000000 -1.000000 0.000001
vn 0.000000 -1.000000 0.000000
vn 0.000000 -1.000000 0.000001
vn 0.000000 -1.000000 0.000000
vn 0.000000 -1.000000 0.000001
vn 0.000000 -1.000000 0.000000
vn 0.000000 -1.000000 -0.000001
vn 0.000000 -1.000000 -0.000001
vn 0.000000 -1.000000 0.000000
vn 0.000000 -1.000000 -0.000001
vn 0.000000 -1.000000 -0.000002
s off
g polySurface4 B_barstand1:polySurface1
usemtl B_barstand1:initialShadingGroup
f 25/37/1 26/38/2 27/39/3 28/40/4
f 28/40/5 27/39/6 29/43/7 30/44/8
f 26/38/9 31/41/10 32/42/11 27/39/12
f 29/43/13 27/39/14 32/42/15 33/45/16
f 5/55/17 2/56/18 10/57/19 9/58/20
f 2/56/21 8/59/22 11/60/23 10/57/24
f 12/1/25 11/2/26 8/3/27 1/4/28
f 1/4/29 6/7/30 13/8/31 12/1/32
f 14/73/33 13/74/34 6/75/35 4/76/36
f 7/79/37 15/80/38 14/73/39 4/76/40
f 16/19/41 15/20/42 7/21/43 3/22/44
f 3/22/45 5/25/46 9/26/47 16/19/48
f 17/67/49 18/69/50 26/72/51 25/70/52
f 19/68/53 17/67/54 25/70/55 28/71/56
f 20/32/57 21/31/58 30/34/59 29/35/60
f 21/31/61 19/33/62 28/36/63 30/34/64
f 18/14/65 22/13/66 31/16/67 26/17/68
f 22/13/69 23/15/70 32/18/71 31/16/72
f 23/86/73 24/85/74 33/88/75 32/89/76
f 24/85/77 20/87/78 29/90/79 33/88/80
f 34/61/81 35/64/82 43/65/83 42/62/84
f 35/64/85 34/61/86 36/63/87 37/66/88
f 37/10/89 36/5/90 44/6/91 45/11/92
f 38/23/93 39/27/94 41/28/95 40/24/96
f 39/27/97 38/23/98 42/29/99 43/30/100
f 40/81/101 41/84/102 49/83/103 48/78/104
f 45/11/105 44/6/106 46/9/107 47/12/108
f 47/82/109 46/77/110 48/78/111 49/83/112
f 10/57/113 11/60/114 36/63/115 34/61/116
f 9/58/117 10/57/118 34/61/119 42/62/120
f 38/23/121 40/24/122 15/20/123 16/19/124
f 12/1/125 13/8/126 46/9/127 44/6/128
f 16/19/129 9/26/130 42/29/131 38/23/132
f 46/77/133 13/74/134 14/73/135 48/78/136
f 15/80/137 40/81/138 48/78/139 14/73/140
f 36/5/141 11/2/142 12/1/143 44/6/144
f 35/64/145 37/66/146 18/69/147 17/67/148
f 43/65/149 35/64/150 17/67/151 19/68/152
f 41/28/153 39/27/154 21/31/155 20/32/156
f 39/27/157 43/30/158 19/33/159 21/31/160
f 37/10/161 45/11/162 22/13/163 18/14/164
f 45/11/165 47/12/166 23/15/167 22/13/168
f 47/82/169 49/83/170 24/85/171 23/86/172
f 49/83/173 41/84/174 20/87/175 24/85/176
f 1/46/177 50/47/178 4/48/179 6/49/180
f 8/50/181 2/51/182 50/47/183 1/46/184
f 50/47/185 2/51/186 5/54/187 3/52/188
f 4/48/189 50/47/190 3/52/191 7/53/192
