# This file uses centimeters as units for non-parametric coordinates.

mtllib B_b2.mtl
g default
v 0.998323 10.155128 -3.550723
v 0.783115 10.155128 -3.330924
v 0.543316 10.155128 -3.565714
v 0.758524 10.155128 -3.785513
v 0.566385 10.155128 -3.369198
v 0.955484 10.155128 -3.766596
v 0.546996 10.155128 -3.763276
v 0.980554 10.155128 -3.338773
v 0.616162 10.447028 -3.415222
v 0.788037 10.447028 -3.378119
v 0.929487 10.447028 -3.392205
v 0.951243 10.447028 -3.544806
v 0.910520 10.447028 -3.715859
v 0.753602 10.447028 -3.738318
v 0.601494 10.447028 -3.713347
v 0.590396 10.447028 -3.571631
v 0.776952 11.007853 -3.504749
v 0.809171 11.007853 -3.518091
v 0.733437 11.007853 -3.523654
v 0.729891 11.007853 -3.595715
v 0.717233 11.007853 -3.563221
v 0.824406 11.007853 -3.553216
v 0.804587 11.007853 -3.596322
v 0.764687 11.007853 -3.611688
v 0.779265 11.113955 -3.484580
v 0.834280 11.113955 -3.491819
v 0.763563 11.113955 -3.559283
v 0.708962 11.113955 -3.501025
v 0.703095 11.113955 -3.620264
v 0.697019 11.113955 -3.565108
v 0.844620 11.113955 -3.551329
v 0.826695 11.113955 -3.621269
v 0.762374 11.113955 -3.631857
v 0.795161 10.590706 -3.345090
v 0.795025 10.672996 -3.347165
v 0.954466 10.590802 -3.366060
v 0.952759 10.673153 -3.367855
v 0.557224 10.590712 -3.578057
v 0.559300 10.672991 -3.577965
v 0.574828 10.590802 -3.737769
v 0.576658 10.673153 -3.736101
v 0.591776 10.590834 -3.392665
v 0.593484 10.673168 -3.394254
v 0.984418 10.590734 -3.538379
v 0.982325 10.673018 -3.538473
v 0.932558 10.590834 -3.740715
v 0.931005 10.673168 -3.738975
v 0.746477 10.590740 -3.771352
v 0.746615 10.673016 -3.769262
v 0.770819 10.155128 -3.558218
vt 0.328189 0.153095
vt 0.249194 0.153095
vt 0.221535 0.001992
vt 0.331252 0.001992
vt 0.235660 0.227521
vt 0.324862 0.227485
vt 0.443000 0.001992
vt 0.416735 0.153095
vt 0.429602 0.227537
vt 0.236589 0.270150
vt 0.324911 0.270081
vt 0.428702 0.270158
vt 0.332542 0.443409
vt 0.314360 0.443409
vt 0.354856 0.443409
vt 0.331566 0.498333
vt 0.300760 0.498333
vt 0.367770 0.498333
vt 0.728597 0.652770
vt 0.655237 0.652770
vt 0.629391 0.501666
vt 0.731660 0.501666
vt 0.725271 0.727149
vt 0.642595 0.727196
vt 0.833388 0.501666
vt 0.809563 0.652770
vt 0.725318 0.769740
vt 0.643459 0.769825
vt 0.821240 0.727212
vt 0.820417 0.769832
vt 0.732951 0.943083
vt 0.716130 0.943083
vt 0.753433 0.943083
vt 0.731974 0.998008
vt 0.703422 0.998008
vt 0.765147 0.998008
vt 0.307586 0.535498
vt 0.311333 0.507019
vt 0.346256 0.543626
vt 0.316099 0.571890
vt 0.342139 0.501666
vt 0.378344 0.510945
vt 0.377823 0.574928
vt 0.349272 0.578073
vt 0.383825 0.544242
vt 0.510488 0.501666
vt 0.506608 0.619435
vt 0.388948 0.625800
vt 0.398741 0.523842
vt 0.620205 0.510865
vt 0.624268 0.613070
vt 0.502728 0.737203
vt 0.400459 0.735298
vt 0.604455 0.725261
vt 0.001663 0.001992
vt 0.113855 0.001992
vt 0.116403 0.153095
vt 0.027431 0.153095
vt 0.216060 0.001992
vt 0.189625 0.153095
vt 0.120090 0.227471
vt 0.014807 0.227537
vt 0.202555 0.227521
vt 0.120020 0.270069
vt 0.015691 0.270158
vt 0.201672 0.270150
vt 0.110664 0.443409
vt 0.088139 0.443409
vt 0.127343 0.443409
vt 0.111862 0.498333
vt 0.075469 0.498333
vt 0.140341 0.498333
vt 0.556332 0.347230
vt 0.637562 0.347230
vt 0.660837 0.498333
vt 0.558880 0.498333
vt 0.648970 0.272788
vt 0.552644 0.272836
vt 0.449382 0.498333
vt 0.477593 0.347230
vt 0.463789 0.272804
vt 0.648166 0.230167
vt 0.552715 0.230246
vt 0.464736 0.230175
vt 0.562070 0.056916
vt 0.582725 0.056916
vt 0.544058 0.056916
vt 0.560873 0.001992
vt 0.594169 0.001992
vt 0.530187 0.001992
vn 0.000000 1.000000 0.000000
vn 0.000000 1.000000 0.000000
vn 0.000000 1.000000 -0.000007
vn 0.000000 1.000000 0.000000
vn 0.000000 1.000000 0.000000
vn 0.000000 1.000000 -0.000007
vn 0.000000 1.000000 -0.000015
vn 0.000000 1.000000 0.000000
vn 0.000000 1.000000 0.000000
vn 0.000000 1.000000 0.000000
vn 0.000000 1.000000 -0.000012
vn 0.000000 1.000000 -0.000007
vn 0.000000 1.000000 -0.000015
vn 0.000000 1.000000 -0.000007
vn 0.000000 1.000000 -0.000012
vn 0.000000 1.000000 -0.000027
vn -0.684533 0.210797 0.697839
vn -0.187584 0.171995 0.967073
vn -0.074712 0.054244 0.995729
vn -0.697384 0.063927 0.713841
vn 0.063602 0.174397 0.982619
vn 0.696228 0.224568 0.681788
vn 0.712774 0.072104 0.697677
vn -0.074712 0.054244 0.995729
vn 0.996762 0.053952 -0.059629
vn 0.712774 0.072104 0.697677
vn 0.696228 0.224568 0.681788
vn 0.979139 0.173253 0.106158
vn 0.962899 0.171994 -0.207950
vn 0.683238 0.210796 -0.699107
vn 0.698966 0.063919 -0.712293
vn 0.996762 0.053952 -0.059629
vn -0.007589 0.053686 -0.998529
vn 0.698966 0.063919 -0.712293
vn 0.683238 0.210796 -0.699107
vn 0.114361 0.173849 -0.978109
vn -0.696329 0.224568 -0.681686
vn -0.712563 0.072102 -0.697893
vn -0.007589 0.053686 -0.998529
vn -0.126796 0.173253 -0.976681
vn -0.997287 0.054080 0.049946
vn -0.712563 0.072102 -0.697893
vn -0.696329 0.224568 -0.681686
vn -0.983743 0.174397 -0.042852
vn -0.975478 0.173850 0.134978
vn -0.684533 0.210797 0.697839
vn -0.697384 0.063927 0.713841
vn -0.997287 0.054080 0.049946
vn 0.223135 -0.235827 0.945831
vn 0.223135 -0.235827 0.945831
vn 0.223135 -0.235827 0.945831
vn 0.223135 -0.235827 0.945831
vn -0.289466 -0.218197 0.931987
vn -0.289466 -0.218197 0.931987
vn -0.289466 -0.218197 0.931987
vn -0.289466 -0.218197 0.931987
vn -0.950329 -0.235827 -0.203127
vn -0.950329 -0.235827 -0.203127
vn -0.950329 -0.235827 -0.203127
vn -0.950329 -0.235827 -0.203127
vn -0.940730 -0.223080 0.255466
vn -0.940730 -0.223080 0.255466
vn -0.940730 -0.223080 0.255466
vn -0.940730 -0.223080 0.255466
vn 0.938545 -0.234109 0.253627
vn 0.938545 -0.234109 0.253627
vn 0.938545 -0.234109 0.253627
vn 0.938545 -0.234109 0.253627
vn 0.925672 -0.218197 -0.309067
vn 0.925671 -0.218197 -0.309067
vn 0.925671 -0.218197 -0.309067
vn 0.925672 -0.218197 -0.309067
vn 0.235554 -0.223078 -0.945913
vn 0.235554 -0.223078 -0.945913
vn 0.235554 -0.223078 -0.945913
vn 0.235554 -0.223078 -0.945913
vn -0.273380 -0.234111 -0.932982
vn -0.273380 -0.234111 -0.932982
vn -0.273380 -0.234111 -0.932982
vn -0.273380 -0.234111 -0.932982
vn -0.072861 0.024626 0.997038
vn -0.073500 0.024624 0.996991
vn -0.227561 0.023836 0.973472
vn -0.227561 0.023836 0.973472
vn -0.073500 0.024624 0.996991
vn -0.072861 0.024626 0.997038
vn 0.130220 0.024751 0.991176
vn 0.130220 0.024751 0.991176
vn 0.984973 0.024691 0.170933
vn 0.984973 0.024691 0.170933
vn 0.998001 0.024823 -0.058124
vn 0.997968 0.024822 -0.058692
vn -0.998498 0.024744 0.048887
vn -0.998479 0.024744 0.049269
vn -0.993702 0.024748 -0.109284
vn -0.993703 0.024748 -0.109284
vn -0.998479 0.024744 0.049269
vn -0.998498 0.024744 0.048887
vn -0.982813 0.024252 0.183005
vn -0.982813 0.024252 0.183005
vn -0.191687 0.024687 -0.981146
vn -0.191687 0.024687 -0.981146
vn -0.008034 0.024901 -0.999658
vn -0.008335 0.024902 -0.999655
vn 0.997968 0.024822 -0.058692
vn 0.998001 0.024823 -0.058124
vn 0.968455 0.023927 -0.248036
vn 0.968455 0.023927 -0.248036
vn 0.162207 0.024344 -0.986456
vn 0.162207 0.024344 -0.986456
vn -0.008335 0.024902 -0.999655
vn -0.008034 0.024901 -0.999658
vn -0.074712 0.054244 0.995729
vn 0.712774 0.072104 0.697677
vn 0.113199 -0.212443 0.970595
vn -0.065349 -0.207375 0.976076
vn -0.697384 0.063927 0.713841
vn -0.074712 0.054244 0.995729
vn -0.065349 -0.207375 0.976076
vn -0.215831 -0.197837 0.956179
vn -0.976903 -0.209184 0.043612
vn -0.972767 -0.212442 -0.092695
vn -0.712563 0.072102 -0.697893
vn -0.997287 0.054080 0.049946
vn 0.996762 0.053952 -0.059629
vn 0.698966 0.063919 -0.712293
vn 0.951413 -0.197831 -0.235958
vn 0.976629 -0.208908 -0.050522
vn -0.997287 0.054080 0.049946
vn -0.697384 0.063927 0.713841
vn -0.964343 -0.202623 0.170254
vn -0.976903 -0.209184 0.043612
vn 0.149859 -0.202616 -0.967724
vn 0.698966 0.063919 -0.712293
vn -0.007589 0.053686 -0.998529
vn -0.012717 -0.210409 -0.977531
vn -0.712563 0.072102 -0.697893
vn -0.173942 -0.212611 -0.961530
vn -0.012717 -0.210409 -0.977531
vn -0.007589 0.053686 -0.998529
vn 0.964987 -0.212611 0.153612
vn 0.712774 0.072104 0.697677
vn 0.996762 0.053952 -0.059629
vn 0.976629 -0.208908 -0.050522
vn -0.056725 0.438741 0.896822
vn 0.157683 0.443660 0.882214
vn 0.157683 0.443660 0.882214
vn -0.071387 0.437657 0.896304
vn -0.235858 0.418805 0.876911
vn -0.056725 0.438741 0.896822
vn -0.071387 0.437657 0.896304
vn -0.235858 0.418805 0.876911
vn -0.885347 0.443658 -0.139027
vn -0.896663 0.441091 0.037861
vn -0.896455 0.440515 0.048120
vn -0.885347 0.443658 -0.139027
vn -0.896663 0.441091 0.037861
vn -0.882331 0.426593 0.198774
vn -0.882330 0.426594 0.198774
vn -0.896455 0.440515 0.048120
vn 0.876660 0.441746 0.190600
vn 0.896550 0.440752 -0.044006
vn 0.896169 0.439926 -0.057848
vn 0.876660 0.441746 0.190600
vn 0.896550 0.440752 -0.044006
vn 0.871741 0.418803 -0.254308
vn 0.871741 0.418803 -0.254308
vn 0.896169 0.439926 -0.057848
vn 0.180117 0.426595 -0.886326
vn -0.012851 0.442581 -0.896636
vn -0.003521 0.442191 -0.896914
vn 0.180117 0.426595 -0.886326
vn -0.012851 0.442581 -0.896636
vn -0.209061 0.441747 -0.872441
vn -0.209061 0.441747 -0.872441
vn -0.003521 0.442191 -0.896914
vn 0.000000 -1.000000 0.000001
vn 0.000000 -1.000000 0.000002
vn 0.000000 -1.000000 0.000002
vn 0.000000 -1.000000 0.000004
vn 0.000000 -1.000000 -0.000002
vn 0.000000 -1.000000 0.000001
vn 0.000000 -1.000000 0.000002
vn 0.000000 -1.000000 0.000001
vn 0.000000 -1.000000 0.000002
vn 0.000000 -1.000000 0.000001
vn 0.000000 -1.000000 0.000005
vn 0.000000 -1.000000 0.000002
vn 0.000000 -1.000000 0.000002
vn 0.000000 -1.000000 0.000002
vn 0.000000 -1.000000 0.000002
vn 0.000000 -1.000000 0.000000
s off
g polySurface10 B_barstand1:polySurface1
usemtl B_barstand1:initialShadingGroup
f 25/37/1 26/38/2 27/39/3 28/40/4
f 28/40/5 27/39/6 29/43/7 30/44/8
f 26/38/9 31/41/10 32/42/11 27/39/12
f 29/43/13 27/39/14 32/42/15 33/45/16
f 5/55/17 2/56/18 10/57/19 9/58/20
f 2/56/21 8/59/22 11/60/23 10/57/24
f 12/1/25 11/2/26 8/3/27 1/4/28
f 1/4/29 6/7/30 13/8/31 12/1/32
f 14/73/33 13/74/34 6/75/35 4/76/36
f 7/79/37 15/80/38 14/73/39 4/76/40
f 16/19/41 15/20/42 7/21/43 3/22/44
f 3/22/45 5/25/46 9/26/47 16/19/48
f 17/67/49 18/69/50 26/72/51 25/70/52
f 19/68/53 17/67/54 25/70/55 28/71/56
f 20/32/57 21/31/58 30/34/59 29/35/60
f 21/31/61 19/33/62 28/36/63 30/34/64
f 18/14/65 22/13/66 31/16/67 26/17/68
f 22/13/69 23/15/70 32/18/71 31/16/72
f 23/86/73 24/85/74 33/88/75 32/89/76
f 24/85/77 20/87/78 29/90/79 33/88/80
f 34/61/81 35/64/82 43/65/83 42/62/84
f 35/64/85 34/61/86 36/63/87 37/66/88
f 37/10/89 36/5/90 44/6/91 45/11/92
f 38/23/93 39/27/94 41/28/95 40/24/96
f 39/27/97 38/23/98 42/29/99 43/30/100
f 40/81/101 41/84/102 49/83/103 48/78/104
f 45/11/105 44/6/106 46/9/107 47/12/108
f 47/82/109 46/77/110 48/78/111 49/83/112
f 10/57/113 11/60/114 36/63/115 34/61/116
f 9/58/117 10/57/118 34/61/119 42/62/120
f 38/23/121 40/24/122 15/20/123 16/19/124
f 12/1/125 13/8/126 46/9/127 44/6/128
f 16/19/129 9/26/130 42/29/131 38/23/132
f 46/77/133 13/74/134 14/73/135 48/78/136
f 15/80/137 40/81/138 48/78/139 14/73/140
f 36/5/141 11/2/142 12/1/143 44/6/144
f 35/64/145 37/66/146 18/69/147 17/67/148
f 43/65/149 35/64/150 17/67/151 19/68/152
f 41/28/153 39/27/154 21/31/155 20/32/156
f 39/27/157 43/30/158 19/33/159 21/31/160
f 37/10/161 45/11/162 22/13/163 18/14/164
f 45/11/165 47/12/166 23/15/167 22/13/168
f 47/82/169 49/83/170 24/85/171 23/86/172
f 49/83/173 41/84/174 20/87/175 24/85/176
f 1/46/177 50/47/178 4/48/179 6/49/180
f 8/50/181 2/51/182 50/47/183 1/46/184
f 50/47/185 2/51/186 5/54/187 3/52/188
f 4/48/189 50/47/190 3/52/191 7/53/192
