# This file uses centimeters as units for non-parametric coordinates.

mtllib B_b4.mtl
g default
v 1.485462 10.145482 -6.216860
v 1.356192 10.145482 -6.084834
v 1.224166 10.145482 -6.214103
v 1.353435 10.145482 -6.346129
v 1.232511 10.145482 -6.101458
v 1.466231 10.145482 -6.340163
v 1.231230 10.145482 -6.328020
v 1.469935 10.145482 -6.094300
v 0.878435 10.673748 -5.771350
v 1.382572 10.673748 -5.683445
v 1.803222 10.673748 -5.743470
v 1.887317 10.673748 -6.198957
v 1.788794 10.673748 -6.701126
v 1.327056 10.673748 -6.747518
v 0.873445 10.673748 -6.653829
v 0.822310 10.673748 -6.232006
v 1.366077 11.688696 -6.057659
v 1.463200 11.688696 -6.101390
v 1.239667 11.688696 -6.108129
v 1.238461 11.688696 -6.321436
v 1.196789 11.688696 -6.223413
v 1.512839 11.688696 -6.207551
v 1.459713 11.688696 -6.332869
v 1.343550 11.688696 -6.373304
v 1.370326 12.286657 -5.998126
v 1.534161 12.286657 -6.026694
v 1.333465 12.286657 -6.217705
v 1.164280 12.286657 -6.037845
v 1.162284 12.286657 -6.390805
v 1.137179 12.286657 -6.226404
v 1.572448 12.286657 -6.204559
v 1.528390 12.286657 -6.409722
v 1.339301 12.286657 -6.432837
v 1.399408 10.933767 -5.586388
v 1.399273 11.082689 -5.592525
v 1.873814 10.933943 -5.669134
v 1.868993 11.082974 -5.674237
v 0.724916 10.933779 -6.246791
v 0.731052 11.082681 -6.246786
v 0.797635 10.933943 -6.722837
v 0.802840 11.082974 -6.718124
v 0.803321 10.933997 -5.701290
v 0.808581 11.083001 -5.706224
v 1.984721 10.933817 -6.184171
v 1.978536 11.082730 -6.184180
v 1.857253 10.933997 -6.777702
v 1.852431 11.083001 -6.772339
v 1.310217 10.933826 -6.844590
v 1.310356 11.082725 -6.838410
v 1.354814 10.145482 -6.215482
vt 0.435163 0.437601
vt 0.462842 0.437601
vt 0.461997 0.606453
vt 0.415574 0.606453
vt 0.323146 0.266558
vt 0.456242 0.266475
vt 0.495396 0.437601
vt 0.515243 0.606453
vt 0.456241 0.224428
vt 0.321815 0.224475
vt 0.608886 0.266566
vt 0.610279 0.224490
vt 0.341302 0.151001
vt 0.460416 0.151001
vt 0.590495 0.151001
vt 0.433303 0.001830
vt 0.465471 0.001830
vt 0.497280 0.001830
vt 0.124052 0.437601
vt 0.154030 0.437601
vt 0.153185 0.606453
vt 0.102959 0.606453
vt 0.003433 0.266558
vt 0.147430 0.266489
vt 0.189417 0.437601
vt 0.211118 0.606453
vt 0.001992 0.224475
vt 0.147427 0.224439
vt 0.313514 0.266566
vt 0.022983 0.151001
vt 0.151603 0.151001
vt 0.315028 0.224490
vt 0.122050 0.001830
vt 0.156658 0.001830
vt 0.293405 0.151001
vt 0.191477 0.001830
vt 0.301220 0.667519
vt 0.309287 0.621256
vt 0.363225 0.677928
vt 0.312436 0.725702
vt 0.359513 0.610444
vt 0.417447 0.622885
vt 0.412105 0.726266
vt 0.365682 0.733355
vt 0.423974 0.676280
vt 0.602930 0.760291
vt 0.566038 0.760680
vt 0.565648 0.723788
vt 0.597500 0.725473
vt 0.598545 0.794900
vt 0.566427 0.797573
vt 0.529145 0.761070
vt 0.531140 0.728902
vt 0.558200 0.610444
vt 0.688585 0.623545
vt 0.692659 0.893967
vt 0.573876 0.910916
vt 0.531502 0.792878
vt 0.430109 0.636900
vt 0.431518 0.886094
vt 0.776967 0.288430
vt 0.804392 0.288430
vt 0.824430 0.457282
vt 0.778166 0.457282
vt 0.786340 0.117307
vt 0.918980 0.117387
vt 0.741271 0.288430
vt 0.719983 0.457282
vt 0.786379 0.075254
vt 0.920341 0.075304
vt 0.619541 0.117394
vt 0.618056 0.075319
vt 0.781624 0.001830
vt 0.900407 0.001830
vt 0.639267 0.001830
vt 0.885751 0.630125
vt 0.852949 0.630125
vt 0.851749 0.461273
vt 0.905144 0.461273
vt 0.996646 0.801161
vt 0.843576 0.801239
vt 0.823274 0.630125
vt 0.801763 0.461273
vt 0.998008 0.843236
vt 0.843536 0.843284
vt 0.700264 0.801168
vt 0.978677 0.916725
vt 0.848292 0.916725
vt 0.698794 0.843252
vt 0.720201 0.916725
vn 0.000000 1.000000 0.000000
vn 0.000000 1.000000 0.000000
vn 0.000000 1.000000 0.000000
vn 0.000000 1.000000 0.000001
vn 0.000000 1.000000 0.000001
vn 0.000000 1.000000 0.000000
vn 0.000000 1.000000 0.000001
vn 0.000000 1.000000 0.000002
vn 0.000000 1.000000 0.000000
vn 0.000000 1.000000 0.000000
vn 0.000000 1.000000 0.000000
vn 0.000000 1.000000 0.000000
vn 0.000000 1.000000 0.000001
vn 0.000000 1.000000 0.000000
vn 0.000000 1.000000 0.000000
vn 0.000000 1.000000 0.000000
vn -0.512969 -0.679074 0.525092
vn -0.132403 -0.591657 0.795243
vn -0.027007 -0.485393 0.873879
vn -0.591565 -0.535080 0.603110
vn 0.103165 -0.599960 0.793351
vn 0.524179 -0.680262 0.512329
vn 0.600118 -0.542170 0.588141
vn -0.027007 -0.485393 0.873879
vn 0.874124 -0.485490 -0.014352
vn 0.600118 -0.542170 0.588141
vn 0.524179 -0.680262 0.512329
vn 0.790281 -0.597416 0.136198
vn 0.792271 -0.591657 -0.149156
vn 0.514149 -0.679074 -0.523937
vn 0.590497 -0.535068 -0.604165
vn 0.874124 -0.485490 -0.014352
vn -0.043608 -0.487940 -0.871787
vn 0.590497 -0.535068 -0.604165
vn 0.514149 -0.679074 -0.523937
vn 0.072811 -0.596927 -0.798985
vn -0.523276 -0.680262 -0.513251
vn -0.600676 -0.542168 -0.587573
vn -0.043608 -0.487940 -0.871787
vn -0.152846 -0.597416 -0.787230
vn -0.872521 -0.488541 0.005860
vn -0.600676 -0.542168 -0.587573
vn -0.523276 -0.680262 -0.513251
vn -0.795350 -0.599961 -0.086401
vn -0.797270 -0.596928 0.089657
vn -0.512969 -0.679074 0.525092
vn -0.591565 -0.535080 0.603110
vn -0.872521 -0.488541 0.005860
vn 0.264935 -0.123991 0.956261
vn 0.264935 -0.123991 0.956261
vn 0.264935 -0.123991 0.956261
vn 0.264935 -0.123991 0.956261
vn -0.259941 -0.119475 0.958205
vn -0.259941 -0.119475 0.958205
vn -0.259941 -0.119475 0.958205
vn -0.259941 -0.119475 0.958205
vn -0.961639 -0.123991 -0.244697
vn -0.961639 -0.123991 -0.244697
vn -0.961639 -0.123991 -0.244697
vn -0.961639 -0.123991 -0.244697
vn -0.967243 -0.121718 0.222770
vn -0.967243 -0.121718 0.222770
vn -0.967243 -0.121718 0.222770
vn -0.967243 -0.121718 0.222770
vn 0.948069 -0.122575 0.293497
vn 0.948069 -0.122575 0.293497
vn 0.948069 -0.122575 0.293497
vn 0.948069 -0.122575 0.293497
vn 0.952506 -0.119475 -0.280105
vn 0.952506 -0.119475 -0.280105
vn 0.952506 -0.119475 -0.280105
vn 0.952506 -0.119475 -0.280105
vn 0.202309 -0.121718 -0.971728
vn 0.202309 -0.121718 -0.971728
vn 0.202309 -0.121718 -0.971728
vn 0.202309 -0.121718 -0.971728
vn -0.313440 -0.122575 -0.941664
vn -0.313440 -0.122575 -0.941664
vn -0.313440 -0.122575 -0.941664
vn -0.313440 -0.122575 -0.941664
vn -0.029908 0.040489 0.998732
vn -0.030192 0.040489 0.998724
vn -0.188977 0.039712 0.981178
vn -0.188977 0.039712 0.981178
vn -0.030192 0.040489 0.998724
vn -0.029908 0.040489 0.998732
vn 0.171449 0.039990 0.984381
vn 0.171449 0.039990 0.984381
vn 0.976876 0.039692 0.210089
vn 0.976876 0.039692 0.210089
vn 0.999060 0.040682 -0.014975
vn 0.999060 0.040682 -0.014990
vn -0.999163 0.040524 0.005618
vn -0.999163 0.040524 0.005592
vn -0.987779 0.039983 -0.150648
vn -0.987779 0.039983 -0.150648
vn -0.999163 0.040524 0.005592
vn -0.999163 0.040524 0.005618
vn -0.989053 0.040184 0.141986
vn -0.989053 0.040184 0.141986
vn -0.230665 0.039685 -0.972224
vn -0.230665 0.039685 -0.972224
vn -0.051766 0.040652 -0.997832
vn -0.051464 0.040653 -0.997847
vn 0.999060 0.040682 -0.014990
vn 0.999060 0.040682 -0.014975
vn 0.976969 0.039858 -0.209627
vn 0.976969 0.039858 -0.209627
vn 0.121066 0.040335 -0.991825
vn 0.121066 0.040335 -0.991825
vn -0.051464 0.040653 -0.997847
vn -0.051766 0.040652 -0.997832
vn -0.027007 -0.485393 0.873879
vn 0.600118 -0.542170 0.588141
vn 0.148655 -0.331894 0.931530
vn -0.021708 -0.329125 0.944037
vn -0.591565 -0.535080 0.603110
vn -0.027007 -0.485393 0.873879
vn -0.021708 -0.329125 0.944037
vn -0.171893 -0.318674 0.932148
vn -0.943750 -0.330658 0.000998
vn -0.934461 -0.331892 -0.128962
vn -0.600676 -0.542168 -0.587573
vn -0.872521 -0.488541 0.005860
vn 0.874124 -0.485490 -0.014352
vn 0.590497 -0.535068 -0.604165
vn 0.928318 -0.318664 -0.191520
vn 0.943797 -0.330441 -0.007506
vn -0.872521 -0.488541 0.005860
vn -0.591565 -0.535080 0.603110
vn -0.937630 -0.324215 0.125438
vn -0.943750 -0.330658 0.000998
vn 0.105619 -0.324207 -0.940072
vn 0.590497 -0.535068 -0.604165
vn -0.043608 -0.487940 -0.871787
vn -0.052939 -0.331515 -0.941964
vn -0.600676 -0.542168 -0.587573
vn -0.205434 -0.330625 -0.921132
vn -0.052939 -0.331515 -0.941964
vn -0.043608 -0.487940 -0.871787
vn 0.925262 -0.330626 0.185950
vn 0.600118 -0.542170 0.588141
vn 0.874124 -0.485490 -0.014352
vn 0.943797 -0.330441 -0.007506
vn -0.017763 0.625748 0.779823
vn 0.168657 0.623351 0.763536
vn 0.168657 0.623351 0.763536
vn -0.026242 0.625336 0.779914
vn -0.176500 0.610461 0.772130
vn -0.017763 0.625748 0.779823
vn -0.026242 0.625336 0.779914
vn -0.176500 0.610461 0.772131
vn -0.766926 0.623351 -0.152508
vn -0.779088 0.626913 0.001629
vn -0.779157 0.626804 0.005706
vn -0.766926 0.623351 -0.152508
vn -0.779088 0.626913 0.001629
vn -0.773974 0.617137 0.141795
vn -0.773974 0.617137 0.141795
vn -0.779157 0.626804 0.005706
vn 0.760043 0.619572 0.196127
vn 0.779184 0.626749 -0.007625
vn 0.779254 0.626558 -0.013723
vn 0.760043 0.619572 0.196127
vn 0.779184 0.626749 -0.007625
vn 0.768234 0.610461 -0.192755
vn 0.768234 0.610461 -0.192755
vn 0.779254 0.626558 -0.013723
vn 0.125430 0.617137 -0.776794
vn -0.041285 0.627369 -0.777627
vn -0.039666 0.627354 -0.777724
vn 0.125430 0.617137 -0.776794
vn -0.041285 0.627369 -0.777627
vn -0.212121 0.619573 -0.755734
vn -0.212121 0.619573 -0.755734
vn -0.039666 0.627354 -0.777724
vn 0.000000 -1.000000 -0.000002
vn 0.000000 -1.000000 -0.000001
vn 0.000000 -1.000000 0.000001
vn 0.000000 -1.000000 0.000003
vn 0.000000 -1.000000 -0.000007
vn 0.000000 -1.000000 -0.000003
vn 0.000000 -1.000000 -0.000001
vn 0.000000 -1.000000 -0.000002
vn 0.000000 -1.000000 -0.000001
vn 0.000000 -1.000000 -0.000003
vn 0.000000 -1.000000 0.000000
vn 0.000000 -1.000000 0.000000
vn 0.000000 -1.000000 0.000001
vn 0.000000 -1.000000 -0.000001
vn 0.000000 -1.000000 0.000000
vn 0.000000 -1.000000 0.000000
s off
g polySurface11 B_barstand1:polySurface1
usemtl B_barstand1:initialShadingGroup
f 25/37/1 26/38/2 27/39/3 28/40/4
f 28/40/5 27/39/6 29/43/7 30/44/8
f 26/38/9 31/41/10 32/42/11 27/39/12
f 29/43/13 27/39/14 32/42/15 33/45/16
f 5/58/17 2/51/18 10/57/19 9/60/20
f 2/51/21 8/50/22 11/56/23 10/57/24
f 12/31/25 11/30/26 8/33/27 1/34/28
f 1/34/29 6/36/30 13/35/31 12/31/32
f 14/54/33 13/55/34 6/49/35 4/48/36
f 7/53/37 15/59/38 14/54/39 4/48/40
f 16/14/41 15/13/42 7/16/43 3/17/44
f 3/17/45 5/18/46 9/15/47 16/14/48
f 17/61/49 18/62/50 26/63/51 25/64/52
f 19/67/53 17/61/54 25/64/55 28/68/56
f 20/1/57 21/2/58 30/3/59 29/4/60
f 21/2/61 19/7/62 28/8/63 30/3/64
f 18/19/65 22/20/66 31/21/67 26/22/68
f 22/20/69 23/25/70 32/26/71 31/21/72
f 23/76/73 24/77/74 33/78/75 32/79/76
f 24/77/77 20/82/78 29/83/79 33/78/80
f 34/69/81 35/65/82 43/71/83 42/72/84
f 35/65/85 34/69/86 36/70/87 37/66/88
f 37/23/89 36/27/90 44/28/91 45/24/92
f 38/9/93 39/6/94 41/5/95 40/10/96
f 39/6/97 38/9/98 42/12/99 43/11/100
f 40/89/101 41/86/102 49/81/103 48/85/104
f 45/24/105 44/28/106 46/32/107 47/29/108
f 47/80/109 46/84/110 48/85/111 49/81/112
f 10/73/113 11/74/114 36/70/115 34/69/116
f 9/75/117 10/73/118 34/69/119 42/72/120
f 38/9/121 40/10/122 15/13/123 16/14/124
f 12/31/125 13/35/126 46/32/127 44/28/128
f 16/14/129 9/15/130 42/12/131 38/9/132
f 46/84/133 13/87/134 14/88/135 48/85/136
f 15/90/137 40/89/138 48/85/139 14/88/140
f 36/27/141 11/30/142 12/31/143 44/28/144
f 35/65/145 37/66/146 18/62/147 17/61/148
f 43/71/149 35/65/150 17/61/151 19/67/152
f 41/5/153 39/6/154 21/2/155 20/1/156
f 39/6/157 43/11/158 19/7/159 21/2/160
f 37/23/161 45/24/162 22/20/163 18/19/164
f 45/24/165 47/29/166 23/25/167 22/20/168
f 47/80/169 49/81/170 24/77/171 23/76/172
f 49/81/173 41/86/174 20/82/175 24/77/176
f 1/46/177 50/47/178 4/48/179 6/49/180
f 8/50/181 2/51/182 50/47/183 1/46/184
f 50/47/185 2/51/186 5/58/187 3/52/188
f 4/48/189 50/47/190 3/52/191 7/53/192
