# This file uses centimeters as units for non-parametric coordinates.

mtllib B_b7.mtl
g default
v -0.854657 10.324395 -3.579880
v -1.069865 10.324395 -3.360081
v -1.309664 10.324395 -3.594872
v -1.094455 10.324395 -3.814671
v -1.286595 10.324395 -3.398355
v -0.897496 10.324395 -3.795753
v -1.305983 10.324395 -3.792433
v -0.872425 10.324395 -3.367930
v -1.236817 10.678352 -3.444380
v -1.064943 10.678352 -3.407276
v -0.923493 10.678352 -3.421362
v -0.901737 10.678352 -3.573963
v -0.942459 10.678352 -3.745016
v -1.099377 10.678352 -3.767476
v -1.251485 10.678352 -3.742504
v -1.262583 10.678352 -3.600789
v -1.076028 11.358402 -3.533906
v -1.043808 11.358402 -3.547248
v -1.119543 11.358402 -3.552812
v -1.123088 11.358402 -3.624872
v -1.135747 11.358402 -3.592378
v -1.028573 11.358402 -3.582373
v -1.048393 11.358402 -3.625480
v -1.088292 11.358402 -3.640845
v -1.073714 11.487062 -3.513737
v -1.018699 11.487062 -3.520977
v -1.089417 11.487062 -3.588441
v -1.144017 11.487062 -3.530182
v -1.149884 11.487062 -3.649422
v -1.155961 11.487062 -3.594265
v -1.008360 11.487062 -3.580486
v -1.026285 11.487062 -3.650426
v -1.090606 11.487062 -3.661014
v -1.057819 10.852574 -3.374248
v -1.057955 10.952356 -3.376322
v -0.898513 10.852692 -3.395217
v -0.900220 10.952548 -3.397012
v -1.295755 10.852581 -3.607214
v -1.293679 10.952352 -3.607122
v -1.278151 10.852692 -3.766926
v -1.276321 10.952548 -3.765258
v -1.261203 10.852728 -3.421822
v -1.259496 10.952566 -3.423411
v -0.868562 10.852607 -3.567537
v -0.870655 10.952383 -3.567630
v -0.920422 10.852728 -3.769872
v -0.921974 10.952566 -3.768132
v -1.106502 10.852615 -3.800509
v -1.106365 10.952381 -3.798419
v -1.082160 10.324395 -3.587376
vt 0.366087 0.205156
vt 0.278443 0.205156
vt 0.247755 0.001866
vt 0.369485 0.001866
vt 0.263427 0.305285
vt 0.362396 0.305236
vt 0.493468 0.001866
vt 0.464329 0.205156
vt 0.478604 0.305305
vt 0.264458 0.362635
vt 0.362449 0.362540
vt 0.477604 0.362646
vt 0.370917 0.595731
vt 0.350743 0.595731
vt 0.395675 0.595731
vt 0.369833 0.669625
vt 0.335655 0.669625
vt 0.410002 0.669625
vt 0.852856 0.205156
vt 0.771465 0.205156
vt 0.742789 0.001866
vt 0.856255 0.001866
vt 0.849166 0.305221
vt 0.757438 0.305285
vt 0.969121 0.001866
vt 0.942687 0.205156
vt 0.849219 0.362523
vt 0.758396 0.362635
vt 0.955643 0.305305
vt 0.954730 0.362646
vt 0.857687 0.595731
vt 0.839025 0.595731
vt 0.880411 0.595731
vt 0.856603 0.669625
vt 0.824925 0.669625
vt 0.893408 0.669625
vt 0.646200 0.711152
vt 0.650358 0.679555
vt 0.689105 0.720170
vt 0.655645 0.751529
vt 0.684536 0.673617
vt 0.724705 0.683912
vt 0.724128 0.754899
vt 0.692450 0.758389
vt 0.730786 0.720853
vt 0.871770 0.673617
vt 0.867465 0.804279
vt 0.736922 0.811341
vt 0.747787 0.698220
vt 0.993500 0.683821
vt 0.998008 0.797218
vt 0.863160 0.934942
vt 0.749694 0.932828
vt 0.976026 0.921693
vt 0.001992 0.001866
vt 0.126467 0.001866
vt 0.129294 0.205156
vt 0.030581 0.205156
vt 0.239864 0.001866
vt 0.210534 0.205156
vt 0.133386 0.305217
vt 0.016575 0.305305
vt 0.224881 0.305285
vt 0.133308 0.362525
vt 0.017556 0.362646
vt 0.223900 0.362635
vt 0.122928 0.595731
vt 0.097936 0.595731
vt 0.141433 0.595731
vt 0.124257 0.669625
vt 0.083879 0.669625
vt 0.155854 0.669625
vt 0.619780 0.466336
vt 0.709903 0.466336
vt 0.735727 0.669625
vt 0.622606 0.669625
vt 0.722559 0.366186
vt 0.615687 0.366250
vt 0.501119 0.669625
vt 0.532419 0.466336
vt 0.517104 0.366206
vt 0.721668 0.308846
vt 0.615766 0.308951
vt 0.518155 0.308856
vt 0.626146 0.075760
vt 0.649061 0.075760
vt 0.606162 0.075760
vt 0.624817 0.001866
vt 0.661759 0.001866
vt 0.590772 0.001866
vn 0.000000 1.000000 0.000000
vn 0.000000 1.000000 0.000000
vn 0.000000 1.000000 -0.000002
vn 0.000000 1.000000 -0.000003
vn 0.000000 1.000000 -0.000003
vn 0.000000 1.000000 -0.000002
vn 0.000000 1.000000 -0.000003
vn 0.000000 1.000000 -0.000008
vn 0.000000 1.000000 0.000000
vn 0.000000 1.000000 0.000000
vn 0.000000 1.000000 0.000000
vn 0.000000 1.000000 -0.000002
vn 0.000000 1.000000 -0.000003
vn 0.000000 1.000000 -0.000002
vn 0.000000 1.000000 0.000000
vn 0.000000 1.000000 0.000000
vn -0.689331 0.175086 0.702971
vn -0.188479 0.142515 0.971682
vn -0.074487 0.044862 0.996212
vn -0.697967 0.052749 0.714185
vn 0.063915 0.144526 0.987435
vn 0.701923 0.186709 0.687346
vn 0.713353 0.059505 0.698274
vn -0.074487 0.044862 0.996212
vn 0.997234 0.044615 -0.059456
vn 0.713353 0.059505 0.698274
vn 0.701923 0.186709 0.687346
vn 0.983875 0.143569 0.106671
vn 0.967488 0.142516 -0.208942
vn 0.688267 0.175086 -0.704012
vn 0.699296 0.052743 -0.712883
vn 0.997234 0.044615 -0.059456
vn -0.007679 0.044363 -0.998986
vn 0.699296 0.052743 -0.712883
vn 0.688267 0.175086 -0.704012
vn 0.114921 0.144068 -0.982872
vn -0.702005 0.186709 -0.687262
vn -0.713172 0.059503 -0.698459
vn -0.007679 0.044363 -0.998986
vn -0.127411 0.143569 -0.981404
vn -0.997758 0.044693 0.049823
vn -0.713172 0.059503 -0.698459
vn -0.702005 0.186709 -0.687262
vn -0.988564 0.144526 -0.043062
vn -0.980228 0.144068 0.135636
vn -0.689331 0.175086 0.702971
vn -0.697967 0.052749 0.714185
vn -0.997758 0.044693 0.049823
vn 0.225155 -0.196235 0.954357
vn 0.225155 -0.196235 0.954357
vn 0.225155 -0.196235 0.954357
vn 0.225155 -0.196235 0.954357
vn -0.291691 -0.181329 0.939168
vn -0.291691 -0.181329 0.939168
vn -0.291691 -0.181329 0.939168
vn -0.291691 -0.181329 0.939168
vn -0.958895 -0.196238 -0.204965
vn -0.958895 -0.196238 -0.204965
vn -0.958895 -0.196238 -0.204965
vn -0.958895 -0.196238 -0.204965
vn -0.948309 -0.185452 0.257522
vn -0.948309 -0.185452 0.257522
vn -0.948309 -0.185452 0.257522
vn -0.948309 -0.185452 0.257522
vn 0.946881 -0.194782 0.255883
vn 0.946881 -0.194782 0.255883
vn 0.946881 -0.194782 0.255883
vn 0.946881 -0.194782 0.255883
vn 0.932802 -0.181329 -0.311449
vn 0.932802 -0.181329 -0.311449
vn 0.932802 -0.181329 -0.311449
vn 0.932802 -0.181329 -0.311449
vn 0.237453 -0.185449 -0.953533
vn 0.237453 -0.185449 -0.953533
vn 0.237453 -0.185449 -0.953533
vn 0.237453 -0.185449 -0.953533
vn -0.275809 -0.194781 -0.941270
vn -0.275809 -0.194781 -0.941270
vn -0.275809 -0.194781 -0.941270
vn -0.275809 -0.194781 -0.941270
vn -0.072928 0.020310 0.997130
vn -0.073451 0.020309 0.997092
vn -0.227584 0.019659 0.973560
vn -0.227584 0.019659 0.973560
vn -0.073451 0.020309 0.997092
vn -0.072928 0.020310 0.997130
vn 0.130234 0.020413 0.991273
vn 0.130234 0.020413 0.991273
vn 0.985070 0.020364 0.170945
vn 0.985070 0.020364 0.170945
vn 0.998096 0.020472 -0.058184
vn 0.998069 0.020471 -0.058653
vn -0.998594 0.020408 0.048927
vn -0.998579 0.020407 0.049240
vn -0.993800 0.020409 -0.109295
vn -0.993800 0.020409 -0.109295
vn -0.998579 0.020407 0.049240
vn -0.998594 0.020408 0.048927
vn -0.982905 0.020003 0.183023
vn -0.982905 0.020003 0.183023
vn -0.191703 0.020360 -0.981242
vn -0.191703 0.020360 -0.981242
vn -0.008058 0.020538 -0.999757
vn -0.008309 0.020538 -0.999755
vn 0.998069 0.020471 -0.058653
vn 0.998096 0.020472 -0.058184
vn 0.968543 0.019733 -0.248063
vn 0.968543 0.019733 -0.248063
vn 0.162222 0.020079 -0.986550
vn 0.162222 0.020079 -0.986550
vn -0.008309 0.020538 -0.999755
vn -0.008058 0.020538 -0.999757
vn -0.074487 0.044862 0.996212
vn 0.713353 0.059505 0.698274
vn 0.114029 -0.176476 0.977678
vn -0.066896 -0.172165 0.982794
vn -0.697967 0.052749 0.714185
vn -0.074487 0.044862 0.996212
vn -0.066896 -0.172165 0.982794
vn -0.217195 -0.164185 0.962221
vn -0.983783 -0.173705 0.044686
vn -0.979867 -0.176474 -0.093370
vn -0.713172 0.059503 -0.698459
vn -0.997758 0.044693 0.049823
vn 0.997234 0.044615 -0.059456
vn 0.699296 0.052743 -0.712883
vn 0.957426 -0.164180 -0.237448
vn 0.983465 -0.173461 -0.052039
vn -0.997758 0.044693 0.049823
vn -0.697967 0.052749 0.714185
vn -0.970739 -0.168208 0.171381
vn -0.983783 -0.173705 0.044686
vn 0.150852 -0.168203 -0.974141
vn 0.699296 0.052743 -0.712883
vn -0.007679 0.044363 -0.998986
vn -0.011984 -0.174742 -0.984541
vn -0.713172 0.059503 -0.698459
vn -0.175212 -0.176620 -0.968559
vn -0.011984 -0.174742 -0.984541
vn -0.007679 0.044363 -0.998986
vn 0.972040 -0.176620 0.154736
vn 0.713353 0.059505 0.698274
vn 0.997234 0.044615 -0.059456
vn 0.983465 -0.173461 -0.052039
vn -0.060049 0.373407 0.925722
vn 0.162897 0.377968 0.911375
vn 0.162897 0.377968 0.911375
vn -0.072877 0.372572 0.925137
vn -0.242767 0.355495 0.902600
vn -0.060049 0.373407 0.925722
vn -0.072877 0.372572 0.925137
vn -0.242767 0.355495 0.902600
vn -0.914610 0.377970 -0.143623
vn -0.925918 0.375589 0.040107
vn -0.925665 0.375144 0.049105
vn -0.914610 0.377970 -0.143623
vn -0.925918 0.375589 0.040107
vn -0.909192 0.362513 0.204829
vn -0.909192 0.362513 0.204829
vn -0.925665 0.375144 0.049105
vn 0.905375 0.376231 0.196841
vn 0.925736 0.375258 -0.046841
vn 0.925302 0.374621 -0.058955
vn 0.905375 0.376232 0.196841
vn 0.925736 0.375258 -0.046841
vn 0.897278 0.355495 -0.261756
vn 0.897278 0.355495 -0.261756
vn 0.925302 0.374621 -0.058955
vn 0.185601 0.362514 -0.913310
vn -0.012371 0.376959 -0.926147
vn -0.004184 0.376657 -0.926343
vn 0.185601 0.362515 -0.913310
vn -0.012371 0.376959 -0.926147
vn -0.215908 0.376232 -0.901018
vn -0.215908 0.376232 -0.901018
vn -0.004184 0.376657 -0.926343
vn 0.000000 -1.000000 0.000000
vn 0.000000 -1.000000 0.000000
vn 0.000000 -1.000000 0.000002
vn 0.000000 -1.000000 0.000003
vn 0.000000 -1.000000 -0.000002
vn 0.000000 -1.000000 -0.000001
vn 0.000000 -1.000000 0.000000
vn 0.000000 -1.000000 0.000000
vn 0.000000 -1.000000 0.000000
vn 0.000000 -1.000000 -0.000001
vn 0.000000 -1.000000 0.000000
vn 0.000000 -1.000000 0.000000
vn 0.000000 -1.000000 0.000002
vn 0.000000 -1.000000 0.000000
vn 0.000000 -1.000000 0.000000
vn 0.000000 -1.000000 0.000000
s off
g polySurface5 B_barstand1:polySurface1
usemtl B_barstand1:initialShadingGroup
f 25/37/1 26/38/2 27/39/3 28/40/4
f 28/40/5 27/39/6 29/43/7 30/44/8
f 26/38/9 31/41/10 32/42/11 27/39/12
f 29/43/13 27/39/14 32/42/15 33/45/16
f 5/55/17 2/56/18 10/57/19 9/58/20
f 2/56/21 8/59/22 11/60/23 10/57/24
f 12/1/25 11/2/26 8/3/27 1/4/28
f 1/4/29 6/7/30 13/8/31 12/1/32
f 14/73/33 13/74/34 6/75/35 4/76/36
f 7/79/37 15/80/38 14/73/39 4/76/40
f 16/19/41 15/20/42 7/21/43 3/22/44
f 3/22/45 5/25/46 9/26/47 16/19/48
f 17/67/49 18/69/50 26/72/51 25/70/52
f 19/68/53 17/67/54 25/70/55 28/71/56
f 20/32/57 21/31/58 30/34/59 29/35/60
f 21/31/61 19/33/62 28/36/63 30/34/64
f 18/14/65 22/13/66 31/16/67 26/17/68
f 22/13/69 23/15/70 32/18/71 31/16/72
f 23/86/73 24/85/74 33/88/75 32/89/76
f 24/85/77 20/87/78 29/90/79 33/88/80
f 34/61/81 35/64/82 43/65/83 42/62/84
f 35/64/85 34/61/86 36/63/87 37/66/88
f 37/10/89 36/5/90 44/6/91 45/11/92
f 38/23/93 39/27/94 41/28/95 40/24/96
f 39/27/97 38/23/98 42/29/99 43/30/100
f 40/81/101 41/84/102 49/83/103 48/78/104
f 45/11/105 44/6/106 46/9/107 47/12/108
f 47/82/109 46/77/110 48/78/111 49/83/112
f 10/57/113 11/60/114 36/63/115 34/61/116
f 9/58/117 10/57/118 34/61/119 42/62/120
f 38/23/121 40/24/122 15/20/123 16/19/124
f 12/1/125 13/8/126 46/9/127 44/6/128
f 16/19/129 9/26/130 42/29/131 38/23/132
f 46/77/133 13/74/134 14/73/135 48/78/136
f 15/80/137 40/81/138 48/78/139 14/73/140
f 36/5/141 11/2/142 12/1/143 44/6/144
f 35/64/145 37/66/146 18/69/147 17/67/148
f 43/65/149 35/64/150 17/67/151 19/68/152
f 41/28/153 39/27/154 21/31/155 20/32/156
f 39/27/157 43/30/158 19/33/159 21/31/160
f 37/10/161 45/11/162 22/13/163 18/14/164
f 45/11/165 47/12/166 23/15/167 22/13/168
f 47/82/169 49/83/170 24/85/171 23/86/172
f 49/83/173 41/84/174 20/87/175 24/85/176
f 1/46/177 50/47/178 4/48/179 6/49/180
f 8/50/181 2/51/182 50/47/183 1/46/184
f 50/47/185 2/51/186 5/54/187 3/52/188
f 4/48/189 50/47/190 3/52/191 7/53/192
