# This file uses centimeters as units for non-parametric coordinates.

mtllib B_maindancearea.mtl
g default
v -9.288635 -1.241626 49.115608
v -6.463631 18.965828 37.532139
v -2.198034 -1.145588 49.245483
v -10.240398 42.791782 -0.000000
v -3.149800 42.887825 -0.000000
v -6.282911 49.112591 0.000000
v -7.577510 49.095043 0.000000
v -8.691263 15.783132 27.795845
v -1.552325 15.810717 27.834095
v -2.582143 18.841797 27.094894
v -9.672744 18.745758 26.965025
v -5.260797 30.647610 16.409435
v -8.007957 30.610378 16.359119
v -7.804663 33.279472 16.216002
v -5.653653 33.308605 16.255396
v -14.036659 -6.343394 40.121532
v -14.575437 11.513480 39.752953
v -14.916881 11.293412 29.185829
v -12.667730 8.330782 30.016655
v 3.691811 8.358371 30.054901
v 1.331885 11.389450 29.315702
v 1.673328 11.609519 39.882839
v 2.212107 -6.247357 40.251404
v -14.036658 -6.343394 -40.408764
v -14.575435 11.513479 -40.040188
v -14.916881 11.293411 -29.473053
v -12.667730 8.330782 -30.303883
v 3.691810 8.358369 -30.342131
v 1.331885 11.389450 -29.602932
v 1.673329 11.609517 -40.170063
v 2.212108 -6.247357 -40.538635
v -2.198035 -1.145587 -49.532722
v -6.463630 18.965834 -37.819370
v -9.288635 -1.241626 -49.402847
v -2.582143 18.841797 -27.382128
v -9.672743 18.745758 -27.252258
v -8.691262 15.783129 -28.083078
v -1.552324 15.810717 -28.121325
v -5.260797 30.647606 -16.696661
v -8.007957 30.610378 -16.646349
v -5.653653 33.308605 -16.542625
v -7.804662 33.279472 -16.503227
v -6.185965 24.428879 -34.770874
v -9.815849 24.428879 -31.140989
v -6.185966 24.428879 -27.511106
v -2.556082 24.428879 -31.140989
v -6.185966 29.554214 -31.140989
v -6.185966 19.303539 -31.140989
v -5.735026 -7.637752 35.527786
v 18.766117 -7.637752 -0.000128
v -5.735026 7.637752 35.527786
v 18.766117 7.637752 -0.000128
v -30.236195 7.637752 0.000128
v -5.735049 7.637752 -35.527786
v -30.236195 -7.637752 0.000128
v -5.735049 -7.637752 -35.527786
v 18.766117 2.989641 -0.000128
v -5.735026 2.989641 35.527786
v -30.236195 2.989641 0.000128
v -5.735049 2.989641 -35.527786
v -5.735023 -8.824477 43.462326
v 24.238041 -8.824477 -0.000155
v 24.238041 4.176367 -0.000155
v -5.735023 4.176367 43.462326
v -35.708118 4.176367 0.000155
v -5.735053 4.176367 -43.462326
v -5.735053 -8.824477 -43.462326
v -35.708118 -8.824477 0.000155
v -6.183727 35.051704 -5.920540
v -12.106505 35.051704 -0.002239
v -6.188204 35.051704 5.920540
v -0.265426 35.051704 0.002238
v -6.185966 40.972252 0.000000
v -6.185966 29.131157 0.000000
v -6.185965 24.428879 28.383579
v -9.815849 24.428879 32.013462
v -6.185966 24.428879 35.643345
v -2.556082 24.428879 32.013462
v -6.185966 29.554214 32.013462
v -6.185966 19.303539 32.013462
vt 0.375000 0.000000
vt 0.651234 0.001405
vt 0.375000 0.750000
vt 0.611027 0.968987
vt 0.375000 1.000000
vt 0.125000 0.000000
vt 0.368109 0.148250
vt 0.101386 0.147406
vt 0.374551 0.602626
vt 0.592816 0.601699
vt 0.831778 0.148183
vt 0.675808 0.148195
vt 0.375000 0.034953
vt 0.125000 0.034953
vt 0.375000 0.715047
vt 0.625000 0.715047
vt 0.875000 0.034953
vt 0.625000 0.034953
vt 0.125000 0.098300
vt 0.375000 0.651700
vt 0.375000 0.098300
vt 0.625000 0.098300
vt 0.625000 0.651700
vt 0.875000 0.098300
vt 0.375000 0.000000
vt 0.625000 0.000000
vt 0.625000 0.034953
vt 0.375000 0.034953
vt 0.375000 0.715047
vt 0.625000 0.715047
vt 0.625000 0.750000
vt 0.375000 0.750000
vt 0.375000 0.000000
vt 0.625000 0.000000
vt 0.625000 0.034953
vt 0.375000 0.034953
vt 0.375000 0.715047
vt 0.625000 0.715047
vt 0.625000 0.750000
vt 0.375000 0.750000
vt 0.375000 0.750000
vt 0.611027 0.968987
vt 0.375000 1.000000
vt 0.651234 0.001405
vt 0.875000 0.034953
vt 0.625000 0.034953
vt 0.125000 0.000000
vt 0.375000 0.000000
vt 0.375000 0.034953
vt 0.125000 0.034953
vt 0.125000 0.098300
vt 0.375000 0.098300
vt 0.385348 0.147378
vt 0.163744 0.147899
vt 0.341871 0.601694
vt 0.625507 0.602631
vt 0.625000 0.651700
vt 0.375000 0.651700
vt 0.625000 0.098300
vt 0.875000 0.098300
vt 0.857341 0.147364
vt 0.675811 0.147314
vt 0.625000 0.715047
vt 0.375000 0.715047
vt 0.250000 0.500000
vt 0.375000 0.500000
vt 0.500000 1.000000
vt 0.500000 0.500000
vt 0.625000 0.500000
vt 0.750000 0.500000
vt 0.250000 0.500000
vt 0.500000 1.000000
vt 0.375000 0.500000
vt 0.500000 0.500000
vt 0.625000 0.500000
vt 0.750000 0.500000
vt 0.375000 0.000000
vt 0.625000 0.000000
vt 0.625000 0.173929
vt 0.375000 0.173929
vt 0.375000 0.250000
vt 0.625000 0.250000
vt 0.625000 0.500000
vt 0.375000 0.500000
vt 0.375000 0.576071
vt 0.625000 0.576071
vt 0.625000 0.750000
vt 0.375000 0.750000
vt 0.375000 0.750000
vt 0.625000 0.750000
vt 0.625000 1.000000
vt 0.375000 1.000000
vt 0.875000 0.000000
vt 0.875000 0.173929
vt 0.125000 0.000000
vt 0.125000 0.173929
vt 0.375000 0.173929
vt 0.625000 0.173929
vt 0.125000 0.173929
vt 0.125000 0.250000
vt 0.625000 0.576071
vt 0.375000 0.576071
vt 0.875000 0.173929
vt 0.875000 0.250000
vt 0.375000 0.000000
vt 0.625000 0.000000
vt 0.875000 0.000000
vt 0.125000 0.000000
vt 0.250000 0.500000
vt 0.375000 0.500000
vt 0.500000 1.000000
vt 0.500000 0.500000
vt 0.625000 0.500000
vt 0.750000 0.500000
vt 0.250000 0.500000
vt 0.500000 1.000000
vt 0.375000 0.500000
vt 0.500000 0.500000
vt 0.625000 0.500000
vt 0.750000 0.500000
vt 0.250000 0.500000
vt 0.375000 0.500000
vt 0.500000 1.000000
vt 0.500000 0.500000
vt 0.625000 0.500000
vt 0.750000 0.500000
vt 0.250000 0.500000
vt 0.500000 1.000000
vt 0.375000 0.500000
vt 0.500000 0.500000
vt 0.625000 0.500000
vt 0.750000 0.500000
vn -0.979350 -0.139571 -0.146267
vn -0.979350 -0.139571 -0.146267
vn -0.979350 -0.139571 -0.146267
vn -0.979350 -0.139571 -0.146267
vn 0.977672 0.143801 0.153226
vn 0.977672 0.143801 0.153226
vn 0.977672 0.143801 0.153226
vn 0.977672 0.143801 0.153226
vn -0.022627 0.499567 0.865980
vn -0.022627 0.499567 0.865980
vn -0.022627 0.499567 0.865980
vn -0.013234 0.999771 -0.016802
vn -0.022030 0.778753 0.626943
vn -0.022060 0.775515 0.630944
vn 0.014151 -0.782809 -0.622101
vn 0.014151 -0.782809 -0.622101
vn 0.013274 -0.732975 -0.680126
vn 0.013326 -0.735895 -0.676964
vn 0.012643 -0.713579 -0.700461
vn 0.012719 -0.718701 -0.695203
vn 0.013917 -0.801712 -0.597549
vn 0.013917 -0.801712 -0.597549
vn 0.871557 0.351764 0.341540
vn 0.871557 0.351764 0.341540
vn 0.881875 0.345653 0.320656
vn 0.931062 0.306792 0.197489
vn -0.021282 0.634510 0.772621
vn -0.021339 0.633102 0.773774
vn -0.017680 0.716220 0.697650
vn -0.017680 0.716220 0.697650
vn -0.997675 0.066915 -0.012947
vn -0.927194 0.264359 0.265379
vn -0.904735 0.293932 0.308317
vn -0.904735 0.293932 0.308317
vn -0.916227 -0.187809 -0.353916
vn -0.916227 -0.187809 -0.353916
vn 0.968613 0.246777 0.029837
vn 0.968613 0.246777 0.029837
vn -0.639077 0.265094 0.722015
vn -0.639077 0.265094 0.722015
vn -0.639077 0.265094 0.722015
vn -0.639077 0.265094 0.722015
vn -0.724290 0.681064 0.107497
vn -0.724290 0.681064 0.107497
vn -0.724290 0.681064 0.107497
vn -0.724290 0.681064 0.107497
vn -0.014500 -0.277311 -0.960671
vn -0.014500 -0.277311 -0.960671
vn -0.014500 -0.277311 -0.960671
vn -0.014500 -0.277311 -0.960671
vn 0.847089 -0.399733 -0.350218
vn 0.847089 -0.399733 -0.350219
vn 0.847089 -0.399733 -0.350219
vn 0.847089 -0.399733 -0.350219
vn 0.683697 0.211999 -0.698294
vn 0.683697 0.211999 -0.698294
vn 0.683697 0.211999 -0.698294
vn 0.683697 0.211999 -0.698294
vn 0.752508 0.648250 0.116207
vn 0.752508 0.648250 0.116207
vn 0.752508 0.648250 0.116207
vn 0.752508 0.648250 0.116207
vn 0.662670 0.301937 0.685349
vn 0.662669 0.301937 0.685349
vn 0.662669 0.301937 0.685349
vn 0.662670 0.301937 0.685349
vn -0.810754 -0.386072 -0.440030
vn -0.810754 -0.386072 -0.440030
vn -0.810754 -0.386073 -0.440030
vn -0.810754 -0.386072 -0.440030
vn -0.979350 -0.139571 0.146267
vn -0.979350 -0.139570 0.146267
vn -0.979350 -0.139571 0.146267
vn -0.979350 -0.139571 0.146267
vn 0.977672 0.143802 -0.153226
vn 0.977672 0.143802 -0.153226
vn 0.977672 0.143802 -0.153226
vn 0.977672 0.143802 -0.153226
vn -0.022629 0.499567 -0.865980
vn -0.022629 0.499567 -0.865980
vn -0.022629 0.499567 -0.865980
vn -0.013234 0.999771 0.016803
vn -0.022060 0.775515 -0.630944
vn -0.022030 0.778754 -0.626943
vn 0.014151 -0.782809 0.622101
vn 0.013326 -0.735895 0.676964
vn 0.013274 -0.732975 0.680126
vn 0.014151 -0.782809 0.622101
vn 0.012674 -0.717036 0.696921
vn 0.013949 -0.806647 0.590869
vn 0.013949 -0.806647 0.590869
vn 0.012751 -0.722294 0.691469
vn 0.873362 0.352388 -0.336245
vn 0.931014 0.307624 -0.196418
vn 0.883347 0.346265 -0.315910
vn 0.873362 0.352388 -0.336245
vn -0.021282 0.636814 -0.770724
vn -0.017691 0.722307 -0.691347
vn -0.017691 0.722307 -0.691347
vn -0.021339 0.635322 -0.771952
vn -0.997459 0.070350 0.011248
vn -0.906259 0.294341 -0.303411
vn -0.906259 0.294341 -0.303411
vn -0.928193 0.265039 -0.261176
vn -0.916227 -0.187809 0.353916
vn -0.916227 -0.187809 0.353916
vn 0.968613 0.246777 -0.029837
vn 0.968613 0.246777 -0.029837
vn -0.639077 0.265094 -0.722015
vn -0.639077 0.265094 -0.722015
vn -0.639077 0.265094 -0.722015
vn -0.639077 0.265094 -0.722015
vn -0.724291 0.681063 -0.107497
vn -0.724291 0.681063 -0.107497
vn -0.724291 0.681063 -0.107497
vn -0.724291 0.681063 -0.107497
vn -0.014499 -0.277311 0.960671
vn -0.014499 -0.277311 0.960671
vn -0.014499 -0.277311 0.960671
vn -0.014499 -0.277311 0.960671
vn 0.847089 -0.399734 0.350218
vn 0.847089 -0.399733 0.350218
vn 0.847089 -0.399734 0.350218
vn 0.847089 -0.399733 0.350218
vn 0.683700 0.212002 0.698290
vn 0.683700 0.212002 0.698290
vn 0.683700 0.212002 0.698290
vn 0.683700 0.212002 0.698290
vn 0.752508 0.648249 -0.116207
vn 0.752508 0.648249 -0.116207
vn 0.752508 0.648249 -0.116207
vn 0.752508 0.648249 -0.116207
vn 0.662670 0.301937 -0.685348
vn 0.662670 0.301937 -0.685348
vn 0.662670 0.301937 -0.685348
vn 0.662670 0.301937 -0.685348
vn -0.810754 -0.386073 0.440030
vn -0.810754 -0.386073 0.440030
vn -0.810754 -0.386073 0.440030
vn -0.810754 -0.386073 0.440030
vn -0.632256 0.447778 -0.632255
vn -0.632256 0.447778 -0.632255
vn -0.632256 0.447778 -0.632255
vn -0.632255 0.447779 0.632256
vn -0.632255 0.447779 0.632256
vn -0.632255 0.447779 0.632256
vn 0.632255 0.447779 0.632256
vn 0.632255 0.447779 0.632256
vn 0.632255 0.447779 0.632256
vn 0.632256 0.447778 -0.632255
vn 0.632256 0.447778 -0.632255
vn 0.632256 0.447778 -0.632255
vn -0.632256 -0.447778 -0.632256
vn -0.632256 -0.447778 -0.632256
vn -0.632256 -0.447778 -0.632256
vn -0.632255 -0.447778 0.632256
vn -0.632255 -0.447778 0.632256
vn -0.632255 -0.447778 0.632256
vn 0.632255 -0.447778 0.632256
vn 0.632255 -0.447778 0.632256
vn 0.632255 -0.447778 0.632256
vn 0.632256 -0.447778 -0.632255
vn 0.632256 -0.447778 -0.632255
vn 0.632256 -0.447778 -0.632255
vn 0.823222 0.000000 0.567719
vn 0.823222 0.000000 0.567719
vn 0.823222 0.000000 0.567719
vn 0.823222 0.000000 0.567719
vn 0.000000 1.000000 0.000000
vn 0.000000 1.000000 0.000000
vn 0.000000 1.000000 0.000000
vn 0.000000 1.000000 0.000000
vn -0.823222 0.000000 -0.567719
vn -0.823222 0.000000 -0.567719
vn -0.823222 0.000000 -0.567719
vn -0.823222 0.000000 -0.567719
vn 0.000000 -1.000000 0.000000
vn 0.000000 -1.000000 0.000000
vn 0.000000 -1.000000 0.000000
vn 0.000000 -1.000000 0.000000
vn 0.823220 0.000000 -0.567722
vn 0.823220 0.000000 -0.567722
vn 0.823220 0.000000 -0.567722
vn 0.823220 0.000000 -0.567722
vn -0.823220 0.000000 0.567722
vn -0.823220 0.000000 0.567722
vn -0.823220 0.000000 0.567722
vn -0.823220 0.000000 0.567722
vn 0.823222 0.000000 0.567719
vn 0.823222 0.000000 0.567719
vn 0.823222 0.000000 0.567719
vn 0.823222 0.000000 0.567719
vn -0.823220 0.000000 0.567722
vn -0.823220 0.000000 0.567722
vn -0.823220 0.000000 0.567722
vn -0.823220 0.000000 0.567722
vn -0.823222 0.000000 -0.567719
vn -0.823222 0.000000 -0.567719
vn -0.823222 0.000000 -0.567719
vn -0.823222 0.000000 -0.567719
vn 0.823220 0.000000 -0.567722
vn 0.823220 0.000000 -0.567722
vn 0.823220 0.000000 -0.567722
vn 0.823220 0.000000 -0.567722
vn -0.209720 -0.967006 -0.144630
vn -0.209720 -0.967006 -0.144630
vn -0.209720 -0.967006 -0.144630
vn -0.209720 -0.967006 -0.144630
vn -0.209720 0.967006 -0.144630
vn -0.209720 0.967005 -0.144630
vn -0.209720 0.967006 -0.144630
vn -0.209720 0.967006 -0.144630
vn 0.209720 0.967005 0.144630
vn 0.209720 0.967006 0.144630
vn 0.209720 0.967006 0.144630
vn 0.209720 0.967005 0.144630
vn 0.209720 -0.967006 0.144630
vn 0.209720 -0.967006 0.144630
vn 0.209720 -0.967006 0.144630
vn 0.209720 -0.967006 0.144630
vn -0.209719 -0.967006 0.144630
vn -0.209719 -0.967006 0.144630
vn -0.209719 -0.967006 0.144630
vn -0.209719 -0.967006 0.144630
vn -0.209719 0.967006 0.144630
vn -0.209719 0.967006 0.144630
vn -0.209719 0.967006 0.144630
vn -0.209719 0.967006 0.144630
vn 0.209719 -0.967006 -0.144630
vn 0.209719 -0.967006 -0.144630
vn 0.209719 -0.967006 -0.144630
vn 0.209719 -0.967006 -0.144630
vn 0.209719 0.967006 -0.144630
vn 0.209719 0.967006 -0.144630
vn 0.209719 0.967006 -0.144630
vn 0.209719 0.967006 -0.144630
vn -0.577132 0.577350 -0.577569
vn -0.577132 0.577350 -0.577569
vn -0.577132 0.577350 -0.577569
vn -0.577569 0.577350 0.577132
vn -0.577569 0.577350 0.577132
vn -0.577569 0.577350 0.577132
vn 0.577132 0.577350 0.577569
vn 0.577132 0.577350 0.577569
vn 0.577132 0.577350 0.577569
vn 0.577569 0.577350 -0.577132
vn 0.577569 0.577350 -0.577132
vn 0.577569 0.577350 -0.577132
vn -0.577132 -0.577350 -0.577569
vn -0.577132 -0.577350 -0.577569
vn -0.577132 -0.577350 -0.577569
vn -0.577569 -0.577350 0.577132
vn -0.577569 -0.577350 0.577132
vn -0.577569 -0.577350 0.577132
vn 0.577132 -0.577350 0.577569
vn 0.577132 -0.577350 0.577569
vn 0.577132 -0.577350 0.577569
vn 0.577569 -0.577350 -0.577132
vn 0.577569 -0.577350 -0.577132
vn 0.577569 -0.577350 -0.577132
vn -0.632256 0.447778 -0.632256
vn -0.632256 0.447778 -0.632256
vn -0.632256 0.447778 -0.632256
vn -0.632256 0.447778 0.632256
vn -0.632256 0.447778 0.632256
vn -0.632256 0.447778 0.632256
vn 0.632256 0.447778 0.632256
vn 0.632256 0.447778 0.632256
vn 0.632256 0.447778 0.632256
vn 0.632256 0.447778 -0.632256
vn 0.632256 0.447778 -0.632256
vn 0.632256 0.447778 -0.632256
vn -0.632256 -0.447778 -0.632256
vn -0.632256 -0.447778 -0.632256
vn -0.632256 -0.447778 -0.632256
vn -0.632255 -0.447778 0.632256
vn -0.632255 -0.447778 0.632256
vn -0.632255 -0.447778 0.632256
vn 0.632255 -0.447778 0.632256
vn 0.632255 -0.447778 0.632256
vn 0.632255 -0.447778 0.632256
vn 0.632256 -0.447778 -0.632255
vn 0.632256 -0.447778 -0.632255
vn 0.632256 -0.447778 -0.632255
s off
g pCube33
usemtl initialShadingGroup
f 16/25/1 17/26/2 18/27/3 19/28/4
f 20/29/5 21/30/6 22/31/7 23/32/8
f 3/3/9 2/4/10 1/5/11
s 1
f 2/2/12 10/17/13 11/18/14
s 2
f 3/6/15 1/1/16 8/13/17 9/14/18
f 12/19/19 13/21/20 4/7/21 5/8/22
s 3
f 5/9/23 6/10/24 15/23/25 12/20/26
s 1
f 14/22/27 15/24/28 6/11/29 7/12/30
s 4
f 13/21/31 14/22/32 7/12/33 4/7/34
s 2
f 9/14/18 8/13/17 13/21/20 12/19/19
s 4
f 8/13/35 11/18/36 14/22/32 13/21/31
s 1
f 11/18/14 10/17/13 15/24/28 14/22/27
s 3
f 12/20/26 15/23/25 10/16/37 9/15/38
s off
f 1/1/39 2/2/40 17/26/41 16/25/42
f 2/2/43 11/18/44 18/27/45 17/26/46
f 11/18/47 8/13/48 19/28/49 18/27/50
f 8/13/51 1/1/52 16/25/53 19/28/54
f 9/15/55 10/16/56 21/30/57 20/29/58
f 10/16/59 2/4/60 22/31/61 21/30/62
f 2/4/63 3/3/64 23/32/65 22/31/66
f 3/3/67 9/15/68 20/29/69 23/32/70
f 24/33/71 27/36/72 26/35/73 25/34/74
f 28/37/75 31/40/76 30/39/77 29/38/78
f 32/41/79 34/43/80 33/42/81
s 5
f 33/44/82 36/46/83 35/45/84
s 6
f 32/47/85 38/50/86 37/49/87 34/48/88
f 39/51/89 5/54/90 4/53/91 40/52/92
s 7
f 5/55/93 39/58/94 41/57/95 6/56/96
s 5
f 42/59/97 7/62/98 6/61/99 41/60/100
s 8
f 40/52/101 4/53/102 7/62/103 42/59/104
s 6
f 38/50/86 39/51/89 40/52/92 37/49/87
s 8
f 37/49/105 40/52/101 42/59/104 36/46/106
s 5
f 36/46/83 42/59/97 41/60/100 35/45/84
s 7
f 39/58/94 38/64/107 35/63/108 41/57/95
s off
f 34/48/109 24/33/110 25/34/111 33/44/112
f 33/44/113 25/34/114 26/35/115 36/46/116
f 36/46/117 26/35/118 27/36/119 37/49/120
f 37/49/121 27/36/122 24/33/123 34/48/124
f 38/64/125 28/37/126 29/38/127 35/63/128
f 35/63/129 29/38/130 30/39/131 33/42/132
f 33/42/133 30/39/134 31/40/135 32/41/136
f 32/41/137 31/40/138 28/37/139 38/64/140
f 43/65/141 44/66/142 47/67/143
f 44/66/144 45/68/145 47/67/146
f 45/68/147 46/69/148 47/67/149
f 46/69/150 43/70/151 47/67/152
f 43/71/153 48/72/154 44/73/155
f 44/73/156 48/72/157 45/74/158
f 45/74/159 48/72/160 46/75/161
f 46/75/162 48/72/163 43/76/164
f 61/77/165 62/78/166 63/79/167 64/80/168
f 51/81/169 52/82/170 54/83/171 53/84/172
f 65/85/173 66/86/174 67/87/175 68/88/176
f 55/89/177 56/90/178 50/91/179 49/92/180
f 62/78/181 67/93/182 66/94/183 63/79/184
f 68/95/185 61/77/186 64/80/187 65/96/188
f 58/97/189 57/98/190 52/82/191 51/81/192
f 59/99/193 58/97/194 51/81/195 53/100/196
f 53/84/197 54/83/198 60/101/199 59/102/200
f 57/98/201 60/103/202 54/104/203 52/82/204
f 49/105/205 50/106/206 62/78/207 61/77/208
f 57/98/209 58/97/210 64/80/211 63/79/212
f 59/102/213 60/101/214 66/86/215 65/85/216
f 56/90/217 55/89/218 68/88/219 67/87/220
f 50/106/221 56/107/222 67/93/223 62/78/224
f 60/103/225 57/98/226 63/79/227 66/94/228
f 55/108/229 49/105/230 61/77/231 68/95/232
f 58/97/233 59/99/234 65/96/235 64/80/236
f 69/109/237 70/110/238 73/111/239
f 70/110/240 71/112/241 73/111/242
f 71/112/243 72/113/244 73/111/245
f 72/113/246 69/114/247 73/111/248
f 69/115/249 74/116/250 70/117/251
f 70/117/252 74/116/253 71/118/254
f 71/118/255 74/116/256 72/119/257
f 72/119/258 74/116/259 69/120/260
f 75/121/261 76/122/262 79/123/263
f 76/122/264 77/124/265 79/123/266
f 77/124/267 78/125/268 79/123/269
f 78/125/270 75/126/271 79/123/272
f 75/127/273 80/128/274 76/129/275
f 76/129/276 80/128/277 77/130/278
f 77/130/279 80/128/280 78/131/281
f 78/131/282 80/128/283 75/132/284
