# This file uses centimeters as units for non-parametric coordinates.

mtllib B_octahedron.mtl
g default
v -6.185965 24.428879 28.383579
v -9.815849 24.428879 32.013462
v -6.185966 24.428879 35.643345
v -2.556082 24.428879 32.013462
v -6.185966 29.554214 32.013462
v -6.185966 19.303539 32.013462
vt 0.250000 0.500000
vt 0.375000 0.500000
vt 0.500000 1.000000
vt 0.500000 0.500000
vt 0.625000 0.500000
vt 0.750000 0.500000
vt 0.250000 0.500000
vt 0.500000 1.000000
vt 0.375000 0.500000
vt 0.500000 0.500000
vt 0.625000 0.500000
vt 0.750000 0.500000
vn -0.632256 0.447778 -0.632256
vn -0.632256 0.447778 -0.632256
vn -0.632256 0.447778 -0.632256
vn -0.632256 0.447778 0.632256
vn -0.632256 0.447778 0.632256
vn -0.632256 0.447778 0.632256
vn 0.632256 0.447778 0.632256
vn 0.632256 0.447778 0.632256
vn 0.632256 0.447778 0.632256
vn 0.632256 0.447778 -0.632256
vn 0.632256 0.447778 -0.632256
vn 0.632256 0.447778 -0.632256
vn -0.632256 -0.447778 -0.632256
vn -0.632256 -0.447778 -0.632256
vn -0.632256 -0.447778 -0.632256
vn -0.632255 -0.447778 0.632256
vn -0.632255 -0.447778 0.632256
vn -0.632255 -0.447778 0.632256
vn 0.632255 -0.447778 0.632256
vn 0.632255 -0.447778 0.632256
vn 0.632255 -0.447778 0.632256
vn 0.632256 -0.447778 -0.632255
vn 0.632256 -0.447778 -0.632255
vn 0.632256 -0.447778 -0.632255
s off
g polySurface37 pCube33
usemtl initialShadingGroup
f 1/1/1 2/2/2 5/3/3
f 2/2/4 3/4/5 5/3/6
f 3/4/7 4/5/8 5/3/9
f 4/5/10 1/6/11 5/3/12
f 1/7/13 6/8/14 2/9/15
f 2/9/16 6/8/17 3/10/18
f 3/10/19 6/8/20 4/11/21
f 4/11/22 6/8/23 1/12/24
