# This file uses centimeters as units for non-parametric coordinates.

mtllib B_wall1.mtl
g default
v 89.634079 -0.000000 -5.741715
v 2.310546 30.751060 185.361481
v 0.393931 30.751060 181.894470
v 89.634079 30.751060 -5.741715
v 87.717476 30.751060 -9.208725
v 0.393931 0.000000 181.894470
v 2.310546 0.000000 185.361481
v 87.717476 -0.000000 -9.208725
vt 0.980918 0.010706
vt 1.000000 0.010706
vt 1.000000 1.000000
vt 0.980918 1.000000
vt 0.980918 0.010706
vt 1.000000 0.010706
vt 1.000000 1.000000
vt 0.980918 1.000000
vn 0.000000 1.000000 0.000000
vn 0.000000 1.000000 0.000000
vn 0.000000 1.000000 0.000000
vn 0.000000 1.000000 0.000000
vn -0.875174 0.000000 0.483809
vn -0.875174 0.000000 0.483809
vn -0.875174 0.000000 0.483809
vn -0.875174 0.000000 0.483809
vn 0.909543 0.000000 0.415610
vn 0.909543 0.000000 0.415610
vn 0.909543 0.000000 0.415610
vn 0.000000 1.000000 0.000000
vn 0.875175 0.000000 -0.483807
vn 0.875175 0.000000 -0.483807
vn 0.875175 0.000000 -0.483807
vn 0.000000 1.000000 0.000000
vn -0.909543 0.000000 -0.415611
vn -0.909543 0.000000 -0.415611
vn -0.909543 0.000000 -0.415611
vn -0.909543 0.000000 -0.415611
vn 0.000000 -1.000000 0.000000
vn 0.000000 -1.000000 0.000000
vn 0.000000 -1.000000 0.000000
vn 0.000000 -1.000000 0.000000
s off
g B_floor:polySurface2 B_floor:pPlane1
usemtl B_floor:lambert2SG
f 3/1/1 2/2/2 4/3/3 5/4/4
f 6/5/5 7/6/6 2/2/7 3/1/8
f 2/2/9 7/6/10 1/7/11 4/3/12
f 1/7/13 8/8/14 5/4/15 4/3/16
f 3/1/17 5/4/18 8/8/19 6/5/20
f 7/6/21 6/5/22 8/8/23 1/7/24
