# This file uses centimeters as units for non-parametric coordinates.

mtllib B_wall2.mtl
g default
v -10.804954 0.000000 -187.429520
v 87.717476 -0.000000 -9.208725
v 85.814438 30.647610 -5.044011
v 87.717476 30.647610 -9.208725
v -12.708000 30.647610 -183.264771
v -10.804954 30.647610 -187.429520
v 85.814438 0.000000 -5.044011
v -12.708000 0.000000 -183.264771
vt 0.980918 0.978440
vt 0.980918 1.000000
vt 0.000000 0.978440
vt 0.000000 1.000000
vt 0.980918 0.978440
vt 0.980918 1.000000
vt 0.000000 0.978440
vt 0.000000 1.000000
vn 0.000000 1.000000 0.000000
vn 0.000000 1.000000 0.000000
vn 0.000000 1.000000 0.000000
vn 0.000000 1.000000 0.000000
vn 0.909543 0.000000 0.415610
vn 0.909543 0.000000 0.415610
vn 0.909543 0.000000 0.415610
vn 0.909543 0.000000 0.415610
vn 0.875175 0.000000 -0.483806
vn 0.875175 0.000000 -0.483806
vn 0.875175 0.000000 -0.483806
vn 0.000000 1.000000 0.000000
vn -0.875175 0.000000 0.483807
vn -0.875175 0.000000 0.483807
vn -0.875175 0.000000 0.483807
vn -0.875175 0.000000 0.483807
vn -0.909544 0.000000 -0.415608
vn -0.909544 0.000000 -0.415608
vn -0.909544 0.000000 -0.415608
vn 0.000000 1.000000 0.000000
vn -0.000000 -1.000000 0.000000
vn -0.000000 -1.000000 0.000000
vn -0.000000 -1.000000 0.000000
vn -0.000000 -1.000000 0.000000
s off
g B_floor:polySurface4 B_floor:polySurface1 B_floor:pPlane1
usemtl B_floor:lambert2SG
f 3/1/1 4/2/2 6/4/3 5/3/4
f 7/5/5 2/6/6 4/2/7 3/1/8
f 4/2/9 2/6/10 1/8/11 6/4/12
f 3/1/13 5/3/14 8/7/15 7/5/16
f 1/8/17 8/7/18 5/3/19 6/4/20
f 2/6/21 7/5/22 8/7/23 1/8/24
