# This file uses centimeters as units for non-parametric coordinates.

mtllib Chair.mtl
g default
v -0.662572 2.020875 0.547725
v 0.432877 2.020875 0.547725
v -3.128983 22.649349 2.407248
v -1.521686 22.552229 2.407248
v -3.128983 22.649349 -2.407248
v -1.521686 22.552229 -2.407248
v -0.662572 2.020875 -0.547725
v 0.432877 2.020875 -0.547725
v -4.705866 14.605276 4.836555
v 4.967245 14.605276 4.836555
v 4.967245 14.605276 -4.836555
v -4.705866 14.605276 -4.836555
v 2.359382 14.871990 3.784321
v 2.359382 14.871990 -3.784321
v -1.229860 21.670732 -1.883531
v -1.229860 21.670732 1.883531
v -3.959339 18.028498 -3.973787
v 1.895262 17.982517 -3.973787
v 0.219871 17.514486 -3.109255
v 0.219871 17.514486 3.109255
v 1.895262 17.982517 3.973787
v -3.959339 18.028498 3.973787
v -3.761616 26.661327 0.133164
v -2.783056 26.564207 0.133164
v -2.601171 25.369484 0.104193
v -0.661584 17.514486 0.171998
v 1.279109 14.077848 0.209341
v 6.005245 14.605276 0.267549
v 0.432877 2.020875 0.030299
v -0.662572 2.020875 0.030299
v -5.778383 14.605276 0.267549
v -5.031857 18.028498 0.219822
v -4.344093 16.264196 4.418450
v 3.478538 16.241915 4.418450
v 1.207206 15.390236 3.457179
v -0.061417 15.144833 0.191244
v 1.207206 15.390236 -3.457179
v 3.478538 16.241915 -4.418450
v -4.344093 16.264196 -4.418450
v -5.416611 16.264196 0.244420
v 4.629541 15.095483 3.882217
v 5.521332 14.898659 0.235822
v 4.629541 15.095483 -3.882217
v 3.446493 15.777697 -4.025013
v 2.017257 17.727411 -3.502562
v -1.245303 22.071756 -2.121789
v -2.545551 26.083733 0.117373
v -1.245303 22.071756 2.121789
v 2.017257 17.727411 3.502562
v 3.446493 15.777697 4.025013
v -1.972007 0.132888 -1.857160
v 1.742312 0.132888 -1.857160
v 2.338888 0.132888 0.102734
v -2.568583 0.132888 0.102734
v 1.742312 0.132888 1.857160
v -1.972007 0.132888 1.857160
v -0.143593 2.020875 0.547725
v -0.212315 0.132888 2.396975
v -0.243624 0.132888 0.102734
v -0.212315 0.132888 -2.396975
v -0.143593 2.020875 -0.547725
v -0.123143 14.605276 -5.759382
v -0.638052 16.253641 -5.261499
v -1.185669 18.006714 -4.731995
v -2.367512 22.603338 -2.407248
v -3.327252 26.907475 0.133164
v -2.367512 22.603338 2.407248
v -1.185669 18.006714 4.731995
v -0.638052 16.253641 5.261499
v -0.123143 14.605276 5.759382
vt 0.493440 0.186519
vt 0.493440 0.157104
vt 0.625000 0.157104
vt 0.625000 0.186519
vt 0.493440 0.500000
vt 0.493440 0.368085
vt 0.625000 0.368085
vt 0.625000 0.500000
vt 0.493440 0.592896
vt 0.493440 0.563481
vt 0.625000 0.563481
vt 0.625000 0.592896
vt 0.493440 0.881915
vt 0.493440 0.750000
vt 0.625000 0.750000
vt 0.625000 0.881915
vt 0.743085 0.186519
vt 0.743085 0.157104
vt 0.875000 0.157104
vt 0.875000 0.186519
vt 0.125000 0.157104
vt 0.256915 0.157104
vt 0.256915 0.186519
vt 0.125000 0.186519
vt 0.493440 0.129447
vt 0.493440 0.000000
vt 0.625000 0.000000
vt 0.625000 0.129447
vt 0.743085 0.129447
vt 0.743085 0.000000
vt 0.875000 0.000000
vt 0.875000 0.129447
vt 0.493440 0.750000
vt 0.493440 0.620553
vt 0.625000 0.620553
vt 0.625000 0.750000
vt 0.125000 0.000000
vt 0.256915 0.000000
vt 0.256915 0.129447
vt 0.125000 0.129447
vt 0.743085 0.129447
vt 0.743085 0.129447
vt 0.875000 0.129447
vt 0.875000 0.129447
vt 0.875000 0.157104
vt 0.875000 0.186519
vt 0.875000 0.250000
vt 0.743085 0.250000
vt 0.743085 0.250000
vt 0.875000 0.250000
vt 0.625000 0.186519
vt 0.625000 0.186519
vt 0.625000 0.157104
vt 0.625000 0.157104
vt 0.625000 0.250000
vt 0.625000 0.250000
vt 0.493440 0.250000
vt 0.625000 0.250000
vt 0.256915 0.250000
vt 0.125000 0.250000
vt 0.625000 0.129447
vt 0.625000 0.129447
vt 0.493440 1.000000
vt 0.625000 1.000000
vt 0.375000 0.000000
vt 0.375000 0.129447
vt 0.375000 0.157104
vt 0.375000 0.186519
vt 0.375000 0.250000
vt 0.875000 0.157104
vt 0.875000 0.186519
vt 0.875000 0.250000
vt 0.743085 0.250000
vt 0.625000 0.881915
vt 0.375000 0.881915
vt 0.375000 0.750000
vt 0.375000 0.750000
vt 0.375000 0.881915
vt 0.625000 1.000000
vt 0.493440 1.000000
vt 0.375000 1.000000
vt 0.375000 1.000000
vt 0.375000 0.620553
vt 0.375000 0.592896
vt 0.375000 0.563481
vt 0.375000 0.500000
vt 0.375000 0.368085
vn 0.003927 0.383846 0.923389
vn -0.000612 0.320819 0.947140
vn 0.182919 0.365997 0.912462
vn 0.192539 0.410193 0.891443
vn 0.056193 0.944988 -0.322242
vn 0.059359 0.998237 -0.000220
vn 0.059360 0.998232 0.003195
vn 0.056190 0.944927 -0.322422
vn -0.000612 0.320819 -0.947140
vn 0.003927 0.383846 -0.923389
vn 0.192539 0.410193 -0.891443
vn 0.182919 0.365997 -0.912462
vn 0.000000 -1.000000 0.000000
vn 0.000000 -1.000000 0.000000
vn 0.000000 -1.000000 0.000000
vn 0.000000 -1.000000 0.000000
vn 0.956261 0.292513 -0.001248
vn 0.852509 0.522712 0.000705
vn 0.757698 0.580743 0.297711
vn 0.911517 0.286147 0.295392
vn -0.947955 0.232611 -0.217423
vn -0.970436 0.241358 0.000049
vn -0.974539 0.224215 0.001501
vn -0.934221 0.211729 -0.287057
vn 0.006960 -0.262656 0.964864
vn 0.000076 -0.307925 0.951411
vn 0.156586 -0.298275 0.941548
vn 0.157431 -0.287222 0.944838
vn 0.917184 -0.398461 0.001476
vn 0.944387 -0.328828 -0.002124
vn 0.933255 -0.314330 -0.173871
vn 0.905691 -0.390321 -0.165450
vn 0.000076 -0.307925 -0.951411
vn 0.006960 -0.262656 -0.964864
vn 0.157431 -0.287222 -0.944838
vn 0.156586 -0.298275 -0.941548
vn -0.941323 -0.285065 -0.180691
vn -0.954089 -0.299516 -0.002234
vn -0.963864 -0.266389 0.001638
vn -0.948223 -0.258480 -0.184558
vn -0.156529 0.987671 0.002119
vn 0.021868 0.999761 -0.000222
vn 0.028651 0.997382 0.066390
vn -0.156019 0.980895 0.116206
vn 0.229324 -0.046988 0.972215
vn 0.396642 0.235628 0.887218
vn 0.494766 0.124942 0.859998
vn 0.313282 -0.077716 0.946475
vn 0.903007 0.345796 0.254958
vn 0.904862 0.425705 -0.000299
vn 0.999412 0.034236 0.001850
vn 0.911965 0.022331 0.409661
vn 0.313282 -0.077716 -0.946475
vn 0.494766 0.124942 -0.859998
vn 0.396641 0.235628 -0.887218
vn 0.229325 -0.046988 -0.972215
vn 0.003927 0.383846 -0.923389
vn -0.026353 0.419914 -0.907181
vn 0.176953 0.458493 -0.870903
vn 0.192539 0.410193 -0.891443
vn 0.313282 -0.077716 0.946475
vn 0.494766 0.124942 0.859998
vn 0.751530 0.355313 0.555838
vn 0.359006 -0.085954 0.929369
vn 0.959580 0.281303 0.008624
vn 0.956261 0.292513 -0.001248
vn 0.911517 0.286147 0.295392
vn 0.914686 0.272626 0.298369
vn 0.751530 0.355313 -0.555838
vn 0.494766 0.124942 -0.859998
vn 0.313282 -0.077716 -0.946475
vn 0.359006 -0.085954 -0.929369
vn -0.026353 0.419914 0.907181
vn 0.003927 0.383846 0.923389
vn 0.192539 0.410193 0.891443
vn 0.176953 0.458493 0.870903
vn -0.934221 0.211729 -0.287057
vn -0.974539 0.224215 0.001501
vn -0.976645 0.214744 -0.007049
vn -0.925730 0.198049 -0.322181
vn 0.059359 0.998237 -0.000220
vn 0.055483 0.933051 0.355441
vn 0.055480 0.932979 0.355629
vn 0.059360 0.998232 0.003195
vn 0.999412 0.034236 0.001850
vn 0.904862 0.425705 -0.000299
vn 0.894676 0.347141 -0.281155
vn 0.896044 0.040386 -0.442124
vn 0.903512 0.276316 -0.327590
vn 0.956261 0.292513 -0.001248
vn 0.959580 0.281303 0.008624
vn 0.906703 0.260552 -0.331667
vn 0.751635 0.571304 -0.329631
vn 0.852509 0.522712 0.000705
vn 0.956261 0.292513 -0.001248
vn 0.903512 0.276316 -0.327590
vn 0.026693 0.996818 -0.075111
vn 0.021868 0.999761 -0.000222
vn -0.156529 0.987671 0.002119
vn -0.154555 0.979346 -0.130359
vn 0.928289 -0.317730 0.193201
vn 0.944387 -0.328828 -0.002124
vn 0.917184 -0.398461 0.001476
vn 0.900311 -0.394567 0.183729
vn 0.000000 -1.000000 0.000000
vn 0.000000 -1.000000 0.000000
vn 0.000000 -1.000000 0.000000
vn 0.000000 -1.000000 0.000000
vn -0.963864 -0.266389 0.001638
vn -0.954089 -0.299516 -0.002234
vn -0.936105 -0.288814 0.200734
vn -0.943075 -0.261851 0.205044
vn -0.974539 0.224215 0.001501
vn -0.970436 0.241358 0.000049
vn -0.941029 0.237289 0.241162
vn -0.922510 0.218893 0.317901
vn -0.976645 0.214744 -0.007049
vn -0.974539 0.224215 0.001501
vn -0.922510 0.218893 0.317901
vn -0.911297 0.206698 0.356110
vn -0.000612 0.320819 0.947140
vn 0.006960 -0.262656 0.964864
vn 0.157431 -0.287222 0.944838
vn 0.182919 0.365997 0.912462
vn 0.229325 -0.046988 -0.972215
vn 0.396641 0.235628 -0.887218
vn 0.580207 0.634589 -0.510546
vn 0.131414 0.104250 -0.985831
vn 0.540791 0.783984 -0.304820
vn 0.564535 0.825405 -0.002603
vn 0.852509 0.522712 0.000705
vn 0.751635 0.571304 -0.329631
vn 0.757698 0.580743 0.297711
vn 0.852509 0.522712 0.000705
vn 0.564535 0.825405 -0.002603
vn 0.540033 0.795716 0.274227
vn 0.580207 0.634589 0.510546
vn 0.396642 0.235628 0.887218
vn 0.229324 -0.046988 0.972215
vn 0.131414 0.104250 0.985831
vn 0.006960 -0.262656 -0.964864
vn -0.000612 0.320819 -0.947140
vn 0.182919 0.365997 -0.912462
vn 0.157431 -0.287222 -0.944838
vn -0.948223 -0.258480 -0.184558
vn -0.963864 -0.266389 0.001638
vn -0.970436 0.241358 0.000049
vn -0.947955 0.232611 -0.217423
vn -0.941029 0.237289 0.241162
vn -0.970436 0.241358 0.000049
vn -0.963864 -0.266389 0.001638
vn -0.943075 -0.261851 0.205044
vn 0.603688 0.787685 0.122934
vn 0.614590 0.788837 0.003919
vn 0.021868 0.999761 -0.000222
vn 0.026693 0.996818 -0.075111
vn 0.028651 0.997382 0.066390
vn 0.021868 0.999761 -0.000222
vn 0.614590 0.788837 0.003919
vn 0.616764 0.779077 -0.112434
vn 0.656085 0.736250 0.165793
vn 0.735143 0.610104 0.295530
vn 0.396642 0.235628 0.887218
vn 0.580207 0.634589 0.510546
vn 0.494766 0.124942 0.859998
vn 0.396642 0.235628 0.887218
vn 0.735143 0.610104 0.295530
vn 0.806554 0.562476 0.181909
vn 0.751530 0.355313 0.555838
vn 0.494766 0.124942 0.859998
vn 0.806554 0.562476 0.181909
vn 0.813340 0.568357 0.124296
vn 0.807556 0.580991 0.101507
vn 0.810328 0.585976 -0.000216
vn 0.904862 0.425705 -0.000299
vn 0.903007 0.345796 0.254958
vn 0.894676 0.347141 -0.281155
vn 0.904862 0.425705 -0.000299
vn 0.810328 0.585976 -0.000216
vn 0.803861 0.584521 -0.110190
vn 0.813340 0.568357 -0.124296
vn 0.806554 0.562476 -0.181909
vn 0.494766 0.124942 -0.859998
vn 0.751530 0.355313 -0.555838
vn 0.396641 0.235628 -0.887218
vn 0.494766 0.124942 -0.859998
vn 0.806554 0.562476 -0.181909
vn 0.735143 0.610104 -0.295531
vn 0.580207 0.634589 -0.510546
vn 0.396641 0.235628 -0.887218
vn 0.735143 0.610104 -0.295531
vn 0.656085 0.736250 -0.165793
vn -0.001906 0.674837 -0.737965
vn 0.000076 -0.307925 -0.951411
vn 0.156586 -0.298275 -0.941548
vn 0.156069 0.663431 -0.731780
vn 0.933255 -0.314330 -0.173871
vn 0.944387 -0.328828 -0.002124
vn 0.729468 0.684012 0.002028
vn 0.722162 0.670571 -0.169755
vn -0.954089 -0.299516 -0.002234
vn -0.941323 -0.285065 -0.180691
vn -0.722162 0.670571 -0.169755
vn -0.729468 0.684012 0.002028
vn 0.944387 -0.328828 -0.002124
vn 0.928289 -0.317730 0.193201
vn 0.713013 0.675690 0.187233
vn 0.729468 0.684012 0.002028
vn 0.156586 -0.298275 0.941548
vn 0.000076 -0.307925 0.951411
vn -0.001906 0.674837 0.737965
vn 0.156069 0.663431 0.731780
vn -0.936105 -0.288814 0.200734
vn -0.954089 -0.299516 -0.002234
vn -0.729468 0.684012 0.002028
vn -0.713013 0.675690 0.187233
vn -0.001906 0.674837 0.737965
vn 0.000076 -0.307925 0.951411
vn -0.173647 -0.294707 0.939678
vn -0.171503 0.668195 0.723949
vn 0.000000 -1.000000 0.000000
vn 0.000000 -1.000000 0.000000
vn 0.000000 -1.000000 0.000000
vn 0.000000 -1.000000 0.000000
vn 0.000000 -1.000000 0.000000
vn 0.000000 -1.000000 0.000000
vn 0.000000 -1.000000 0.000000
vn 0.000000 -1.000000 0.000000
vn -0.173647 -0.294708 -0.939678
vn 0.000076 -0.307925 -0.951411
vn -0.001906 0.674837 -0.737965
vn -0.171503 0.668195 -0.723949
vn -0.176840 -0.267894 -0.947080
vn 0.006960 -0.262656 -0.964864
vn 0.000076 -0.307925 -0.951411
vn -0.173647 -0.294708 -0.939678
vn -0.213537 0.251560 -0.943991
vn -0.000612 0.320819 -0.947140
vn 0.006960 -0.262656 -0.964864
vn -0.176840 -0.267894 -0.947080
vn -0.206860 0.321961 -0.923878
vn 0.003927 0.383846 -0.923389
vn -0.000612 0.320819 -0.947140
vn -0.213537 0.251560 -0.943991
vn -0.187425 0.375960 -0.907484
vn -0.026353 0.419914 -0.907181
vn 0.003927 0.383846 -0.923389
vn -0.206860 0.321961 -0.923878
vn 0.059358 0.998221 -0.005609
vn 0.059359 0.998237 -0.000220
vn 0.056193 0.944988 -0.322242
vn 0.056199 0.945102 -0.321908
vn 0.055491 0.933190 0.355075
vn 0.055483 0.933051 0.355441
vn 0.059359 0.998237 -0.000220
vn 0.059358 0.998221 -0.005609
vn -0.206860 0.321961 0.923878
vn 0.003927 0.383846 0.923389
vn -0.026353 0.419914 0.907181
vn -0.187425 0.375960 0.907484
vn -0.213537 0.251560 0.943991
vn -0.000612 0.320819 0.947140
vn 0.003927 0.383846 0.923389
vn -0.206860 0.321961 0.923878
vn -0.176840 -0.267894 0.947080
vn 0.006960 -0.262656 0.964864
vn -0.000612 0.320819 0.947140
vn -0.213537 0.251560 0.943991
vn -0.173647 -0.294707 0.939678
vn 0.000076 -0.307925 0.951411
vn 0.006960 -0.262656 0.964864
vn -0.176840 -0.267894 0.947080
s off
g Chair:pCube1
usemtl initialShadingGroup
f 68/1/1 69/2/2 34/3/3 21/4/4
f 65/5/5 66/6/6 24/7/7 6/8/8
f 63/9/9 64/10/10 18/11/11 38/12/12
f 59/13/13 60/14/14 52/15/15 53/16/16
f 26/17/17 36/18/18 37/19/19 19/20/20
f 39/21/21 40/22/22 32/23/23 17/24/24
f 70/25/25 57/26/26 2/27/27 10/28/28
f 28/29/29 29/30/30 8/31/31 11/32/32
f 61/33/33 62/34/34 11/35/35 8/36/36
f 7/37/37 30/38/38 31/39/39 12/40/40
f 27/41/41 42/42/42 43/43/43 14/44/44
f 37/19/45 44/45/46 45/46/47 19/20/48
f 46/47/49 47/48/50 25/49/51 15/50/52
f 20/51/53 49/52/54 50/53/55 35/54/56
f 64/10/57 65/5/58 6/8/59 18/11/60
f 19/20/61 45/46/62 46/47/63 15/50/64
f 25/49/65 26/17/66 19/20/67 15/50/68
f 48/55/69 49/52/70 20/51/71 16/56/72
f 67/57/73 68/1/74 21/4/75 4/58/76
f 17/24/77 32/23/78 23/59/79 5/60/80
f 66/6/81 67/57/82 4/58/83 24/7/84
f 25/49/85 47/48/86 48/55/87 16/56/88
f 20/51/89 26/17/90 25/49/91 16/56/92
f 35/54/93 36/18/94 26/17/95 20/51/96
f 41/61/97 42/42/98 27/41/99 13/62/100
f 2/27/101 29/30/102 28/29/103 10/28/104
f 58/63/105 59/13/106 53/16/107 55/64/108
f 31/39/109 30/38/110 1/65/111 9/66/112
f 32/23/113 40/22/114 33/67/115 22/68/116
f 23/59/117 32/23/118 22/68/119 3/69/120
f 69/2/121 70/25/122 10/28/123 34/3/124
f 35/54/125 50/53/126 41/61/127 13/62/128
f 13/62/129 27/41/130 36/18/131 35/54/132
f 37/19/133 36/18/134 27/41/135 14/44/136
f 43/43/137 44/45/138 37/19/139 14/44/140
f 62/34/141 63/9/142 38/12/143 11/35/144
f 12/40/145 31/39/146 40/22/147 39/21/148
f 33/67/149 40/22/150 31/39/151 9/66/152
f 10/28/153 28/29/154 42/42/155 41/61/156
f 43/43/157 42/42/158 28/29/159 11/32/160
f 11/32/161 38/70/162 44/45/163 43/43/164
f 45/46/165 44/45/166 38/70/167 18/71/168
f 46/47/169 45/46/170 18/71/171 6/72/172
f 6/72/173 24/73/174 47/48/175 46/47/176
f 48/55/177 47/48/178 24/73/179 4/58/180
f 4/58/181 21/4/182 49/52/183 48/55/184
f 50/53/185 49/52/186 21/4/187 34/3/188
f 41/61/189 50/53/190 34/3/191 10/28/192
f 60/14/193 61/33/194 8/36/195 52/15/196
f 8/36/197 29/74/198 53/16/199 52/15/200
f 30/75/201 7/76/202 51/77/203 54/78/204
f 29/74/205 2/79/206 55/64/207 53/16/208
f 2/79/209 57/80/210 58/63/211 55/64/212
f 1/81/213 30/75/214 54/78/215 56/82/216
f 58/63/217 57/80/218 1/81/219 56/82/220
f 54/78/221 59/13/222 58/63/223 56/82/224
f 51/77/225 60/14/226 59/13/227 54/78/228
f 7/76/229 61/33/230 60/14/231 51/77/232
f 12/83/233 62/34/234 61/33/235 7/76/236
f 39/84/237 63/9/238 62/34/239 12/83/240
f 17/85/241 64/10/242 63/9/243 39/84/244
f 5/86/245 65/5/246 64/10/247 17/85/248
f 23/87/249 66/6/250 65/5/251 5/86/252
f 3/69/253 67/57/254 66/6/255 23/87/256
f 22/68/257 68/1/258 67/57/259 3/69/260
f 33/67/261 69/2/262 68/1/263 22/68/264
f 9/66/265 70/25/266 69/2/267 33/67/268
f 1/65/269 57/26/270 70/25/271 9/66/272
