# This file uses centimeters as units for non-parametric coordinates.

mtllib dancefloor001.mtl
g default
v 0.841526 165.280624 358.394806
v -361.433289 165.074509 -0.127951
v 0.841526 165.280624 -359.430023
v 368.241943 165.990387 -0.127951
v 0.841526 175.422272 358.394806
v 368.241943 176.132034 -0.127951
v 0.841526 175.422272 -359.430023
v -361.433289 175.216156 -0.127951
vt 0.500000 0.564326
vt 0.389287 0.565739
vt 0.500000 0.564326
vt 0.605708 0.584733
vt 0.500000 0.564326
vt 0.605708 0.584733
vt 0.500000 0.564326
vt 0.389287 0.565739
vt 0.500000 0.564326
vt 0.605708 0.584733
vt 0.500000 0.564326
vt 0.389287 0.565739
vn -0.001255 0.999999 0.000000
vn -0.001255 0.999999 0.000000
vn -0.001255 0.999999 0.000000
vn -0.001255 0.999999 0.000000
vn 0.001255 -0.999999 0.000000
vn 0.001255 -0.999999 0.000000
vn 0.001255 -0.999999 0.000000
vn 0.001255 -0.999999 0.000000
vn 0.698407 0.000000 0.715701
vn 0.698407 0.000000 0.715701
vn 0.698407 0.000000 0.715701
vn 0.698407 0.000000 0.715701
vn 0.699183 0.000000 -0.714943
vn 0.699183 0.000000 -0.714943
vn 0.699183 0.000000 -0.714943
vn 0.699183 0.000000 -0.714943
vn -0.704188 0.000000 -0.710014
vn -0.704188 0.000000 -0.710014
vn -0.704188 0.000000 -0.710014
vn -0.704188 0.000000 -0.710014
vn -0.703417 0.000000 0.710778
vn -0.703417 0.000000 0.710778
vn -0.703417 0.000000 0.710778
vn -0.703417 0.000000 0.710778
s off
g polySurface225 polySurface222 polySurface218 base_001:pPyramid4
usemtl base_001:lambert2SG
f 5/9/1 6/10/2 7/11/3 8/12/4
f 1/5/5 2/8/6 3/7/7 4/6/8
f 1/1/9 4/4/10 6/10/11 5/9/12
f 4/4/13 3/3/14 7/11/15 6/10/16
f 3/3/17 2/2/18 8/12/19 7/11/20
f 2/2/21 1/1/22 5/9/23 8/12/24
