# This file uses centimeters as units for non-parametric coordinates.

mtllib platform.mtl
g default
v 1.958126 1.860599 -2.103873
v 1.958126 1.860599 2.103873
v 1.958126 2.076730 -2.103873
v 1.958126 2.076730 2.103873
v -1.958126 1.860599 2.103873
v -1.958126 1.860599 -2.103873
v -1.958126 2.076730 -2.103873
v -1.958126 2.076730 2.103873
vt -0.000000 0.000000
vt 1.000000 0.000000
vt 1.000000 1.000000
vt -0.000000 1.000000
vt 0.000000 0.000000
vt 1.000000 0.000000
vt 1.000000 1.000000
vt 0.000000 1.000000
vn 1.000000 0.000000 0.000000
vn 1.000000 0.000000 0.000000
vn 1.000000 0.000000 0.000000
vn 1.000000 0.000000 0.000000
vn 0.000000 -1.000000 0.000000
vn 0.000000 -1.000000 0.000000
vn 0.000000 -1.000000 0.000000
vn 0.000000 -1.000000 0.000000
vn 0.000000 0.000000 -1.000000
vn 0.000000 0.000000 -1.000000
vn 0.000000 0.000000 -1.000000
vn 0.000000 0.000000 -1.000000
vn 0.000000 1.000000 0.000000
vn 0.000000 1.000000 0.000000
vn 0.000000 1.000000 0.000000
vn 0.000000 1.000000 0.000000
vn 0.000000 0.000000 1.000000
vn 0.000000 0.000000 1.000000
vn 0.000000 0.000000 1.000000
vn 0.000000 0.000000 1.000000
vn -1.000000 0.000000 0.000000
vn -1.000000 0.000000 0.000000
vn -1.000000 0.000000 0.000000
vn -1.000000 0.000000 0.000000
s off
g polySurface2 pCube59
usemtl initialShadingGroup
f 2/1/1 1/2/2 3/3/3 4/4/4
f 5/5/5 6/6/6 1/2/7 2/1/8
f 6/6/9 7/7/10 3/3/11 1/2/12
f 7/7/13 8/8/14 4/4/15 3/3/16
f 8/8/17 5/5/18 2/1/19 4/4/20
f 5/5/21 8/8/22 7/7/23 6/6/24
