# This file uses centimeters as units for non-parametric coordinates.

mtllib Stage.mtl
g default
v -0.239737 0.019957 11.863182
v 0.239737 0.019957 11.863182
v -0.228840 0.647649 11.808870
v 0.228840 0.647649 11.808870
v -0.446659 0.647649 -7.319517
v 0.446659 0.647649 -7.319517
v -0.467929 0.019957 -7.373828
v 0.467929 0.019957 -7.373828
v -2.170628 0.647649 5.508725
v 2.170628 0.647649 5.508725
v 2.273990 0.019957 5.508725
v -2.273990 0.019957 5.508725
v -0.245185 0.614741 11.908751
v 0.245185 0.614741 11.908751
v 2.325671 0.614741 5.508725
v 0.478563 0.614741 -7.419399
v -0.478563 0.614741 -7.419399
v -2.325671 0.614741 5.508725
v -0.245185 0.053562 11.908751
v 0.245185 0.053562 11.908751
v 2.325671 0.053563 5.508725
v 0.478563 0.053563 -7.419398
v -0.478563 0.053563 -7.419398
v -2.325671 0.053562 5.508725
v 2.325671 0.486662 5.508725
v 0.245185 0.486662 11.908751
v -0.245185 0.486662 11.908751
v -2.325671 0.486662 5.508725
v -0.478563 0.486662 -7.419398
v 0.478563 0.486662 -7.419398
v -0.245185 0.204350 11.908751
v 0.245185 0.204350 11.908751
v 2.325671 0.204350 5.508725
v 0.478563 0.204350 -7.419398
v -0.478563 0.204350 -7.419398
v -2.325671 0.204350 5.508725
v -0.235424 0.209969 11.737461
v 0.235424 0.209969 11.737461
v 0.235424 0.481043 11.737461
v -0.235424 0.481043 11.737461
v 2.233087 0.209969 5.461631
v 2.233087 0.481043 5.461631
v 0.459512 0.481043 -7.248107
v 0.459512 0.209969 -7.248107
v -0.459512 0.481043 -7.248107
v -0.459512 0.209969 -7.248107
v -2.233087 0.209969 5.461631
v -2.233087 0.481043 5.461631
v -0.239737 0.019957 11.863182
v 0.239737 0.019957 11.863182
v -0.228840 0.647649 11.808870
v 0.228840 0.647649 11.808870
v -0.446659 0.647649 -7.319517
v 0.446659 0.647649 -7.319517
v -0.467929 0.019957 -7.373828
v 0.467929 0.019957 -7.373828
v -2.170628 0.647649 5.508725
v 2.170628 0.647649 5.508725
v 2.273990 0.019957 5.508725
v -2.273990 0.019957 5.508725
v -0.245185 0.614741 11.908751
v 0.245185 0.614741 11.908751
v 2.325671 0.614741 5.508725
v 0.478563 0.614741 -7.419399
v -0.478563 0.614741 -7.419399
v -2.325671 0.614741 5.508725
v -0.245185 0.053562 11.908751
v 0.245185 0.053562 11.908751
v 2.325671 0.053563 5.508725
v 0.478563 0.053563 -7.419398
v -0.478563 0.053563 -7.419398
v -2.325671 0.053562 5.508725
v 2.325671 0.486662 5.508725
v 0.245185 0.486662 11.908751
v -0.245185 0.486662 11.908751
v -2.325671 0.486662 5.508725
v -0.478563 0.486662 -7.419398
v 0.478563 0.486662 -7.419398
v -0.245185 0.204350 11.908751
v 0.245185 0.204350 11.908751
v 2.325671 0.204350 5.508725
v 0.478563 0.204350 -7.419398
v -0.478563 0.204350 -7.419398
v -2.325671 0.204350 5.508725
v -0.235424 0.209969 11.737461
v 0.235424 0.209969 11.737461
v 0.235424 0.481043 11.737461
v -0.235424 0.481043 11.737461
v 2.233087 0.209969 5.461631
v 2.233087 0.481043 5.461631
v 0.459512 0.481043 -7.248107
v 0.459512 0.209969 -7.248107
v -0.459512 0.481043 -7.248107
v -0.459512 0.209969 -7.248107
v -2.233087 0.209969 5.461631
v -2.233087 0.481043 5.461631
v -0.005769 0.614741 12.018217
v -0.005769 0.486662 12.018217
v -0.004393 0.481043 11.846927
v -0.004393 0.209969 11.846928
v -0.005769 0.204350 12.018217
v -0.005769 0.053562 12.018217
v -0.005001 0.019957 11.972648
v -0.064882 0.019957 5.508725
v -0.065987 0.019957 -7.560459
v -0.067487 0.053563 -7.606029
v -0.067487 0.204350 -7.606029
v -0.064800 0.209969 -7.434738
v -0.064800 0.481043 -7.434738
v -0.067487 0.486662 -7.606029
v -0.067487 0.614741 -7.606030
v -0.062988 0.647649 -7.506148
v -0.050305 0.647649 5.508726
v -0.003464 0.647649 11.918336
vt 0.375000 0.221399
vt 0.625000 0.221399
vt 0.625000 0.250000
vt 0.375000 0.250000
vt 0.375000 0.378721
vt 0.625000 0.378721
vt 0.625000 0.500000
vt 0.375000 0.500000
vt 0.625000 0.528601
vt 0.375000 0.528601
vt 0.375000 0.750000
vt 0.625000 0.750000
vt 0.625000 0.871279
vt 0.375000 0.871279
vt 0.753721 0.250000
vt 0.753721 0.221399
vt 0.875000 0.221399
vt 0.875000 0.250000
vt 0.125000 0.221399
vt 0.246279 0.221399
vt 0.246279 0.250000
vt 0.125000 0.250000
vt 0.625000 1.000000
vt 0.375000 1.000000
vt 0.375000 0.061966
vt 0.625000 0.061966
vt 0.625000 0.171642
vt 0.375000 0.171642
vt 0.753721 0.061966
vt 0.753721 0.171642
vt 0.875000 0.171642
vt 0.875000 0.061966
vt 0.375000 0.578359
vt 0.625000 0.578359
vt 0.625000 0.688034
vt 0.375000 0.688034
vt 0.125000 0.061966
vt 0.246279 0.061966
vt 0.246279 0.171642
vt 0.125000 0.171642
vt 0.375000 0.000000
vt 0.625000 0.000000
vt 0.625000 0.003387
vt 0.375000 0.003387
vt 0.753721 0.000000
vt 0.753721 0.003387
vt 0.875000 0.003387
vt 0.875000 0.000000
vt 0.375000 0.746613
vt 0.625000 0.746613
vt 0.125000 0.000000
vt 0.246279 0.000000
vt 0.246279 0.003387
vt 0.125000 0.003387
vt 0.625000 0.171642
vt 0.753721 0.171642
vt 0.375000 0.171642
vt 0.246279 0.171642
vt 0.125000 0.171642
vt 0.625000 0.578359
vt 0.375000 0.578359
vt 0.875000 0.171642
vt 0.625000 0.061966
vt 0.375000 0.061966
vt 0.753721 0.061966
vt 0.875000 0.061966
vt 0.375000 0.688034
vt 0.625000 0.688034
vt 0.246279 0.061966
vt 0.125000 0.061966
vt 0.375000 0.221399
vt 0.625000 0.221399
vt 0.625000 0.250000
vt 0.375000 0.250000
vt 0.375000 0.378721
vt 0.625000 0.378721
vt 0.625000 0.500000
vt 0.375000 0.500000
vt 0.625000 0.528601
vt 0.375000 0.528601
vt 0.375000 0.750000
vt 0.625000 0.750000
vt 0.625000 0.871279
vt 0.375000 0.871279
vt 0.753721 0.250000
vt 0.753721 0.221399
vt 0.875000 0.221399
vt 0.875000 0.250000
vt 0.125000 0.221399
vt 0.246279 0.221399
vt 0.246279 0.250000
vt 0.125000 0.250000
vt 0.625000 1.000000
vt 0.375000 1.000000
vt 0.375000 0.061966
vt 0.625000 0.061966
vt 0.625000 0.171642
vt 0.375000 0.171642
vt 0.753721 0.061966
vt 0.753721 0.171642
vt 0.875000 0.171642
vt 0.875000 0.061966
vt 0.375000 0.578359
vt 0.625000 0.578359
vt 0.625000 0.688034
vt 0.375000 0.688034
vt 0.125000 0.061966
vt 0.246279 0.061966
vt 0.246279 0.171642
vt 0.125000 0.171642
vt 0.375000 0.000000
vt 0.625000 0.000000
vt 0.625000 0.003387
vt 0.375000 0.003387
vt 0.753721 0.000000
vt 0.753721 0.003387
vt 0.875000 0.003387
vt 0.875000 0.000000
vt 0.375000 0.746613
vt 0.625000 0.746613
vt 0.125000 0.000000
vt 0.246279 0.000000
vt 0.246279 0.003387
vt 0.125000 0.003387
vt 0.625000 0.171642
vt 0.753721 0.171642
vt 0.375000 0.171642
vt 0.246279 0.171642
vt 0.125000 0.171642
vt 0.625000 0.578359
vt 0.375000 0.578359
vt 0.875000 0.171642
vt 0.625000 0.061966
vt 0.375000 0.061966
vt 0.753721 0.061966
vt 0.875000 0.061966
vt 0.375000 0.688034
vt 0.625000 0.688034
vt 0.246279 0.061966
vt 0.125000 0.061966
vt 0.482373 0.221399
vt 0.482373 0.171642
vt 0.482373 0.171642
vt 0.482373 0.061966
vt 0.482373 0.061966
vt 0.482373 0.003387
vt 0.482373 1.000000
vt 0.482373 0.000000
vt 0.482373 0.871279
vt 0.482373 0.750000
vt 0.482373 0.746613
vt 0.482373 0.688034
vt 0.482373 0.688034
vt 0.482373 0.578359
vt 0.482373 0.578359
vt 0.482373 0.528601
vt 0.482373 0.500000
vt 0.482373 0.378721
vt 0.482373 0.250000
vn 0.000000 0.494918 0.868940
vn 0.000000 0.494918 0.868940
vn 0.000000 0.949777 0.312927
vn 0.000000 0.949777 0.312927
vn 0.000000 1.000000 0.000000
vn 0.000000 1.000000 0.000000
vn 0.000000 1.000000 0.000000
vn 0.000000 1.000000 0.000000
vn 0.000000 0.949777 -0.312926
vn 0.000000 0.949777 -0.312926
vn 0.000000 0.472948 -0.881090
vn 0.000000 0.472948 -0.881090
vn 0.000000 -1.000000 0.000000
vn 0.000000 -1.000000 0.000000
vn 0.000000 -1.000000 0.000000
vn 0.000000 -1.000000 0.000000
vn 0.338999 0.940678 0.014279
vn 0.897848 0.439812 0.020860
vn 0.916615 0.329373 -0.226564
vn 0.344478 0.935088 -0.083334
vn -0.916615 0.329373 -0.226564
vn -0.897848 0.439811 0.020860
vn -0.338999 0.940678 0.014279
vn -0.344478 0.935088 -0.083334
vn 0.000000 1.000000 0.000000
vn 0.000000 1.000000 0.000000
vn 0.000000 1.000000 0.000000
vn 0.000000 1.000000 0.000000
vn 0.840287 0.332492 0.428214
vn 0.897848 0.439812 0.020860
vn 0.338999 0.940678 0.014279
vn 0.324382 0.931813 0.162791
vn 0.000000 -1.000000 0.000000
vn 0.000000 -1.000000 0.000000
vn 0.000000 -1.000000 0.000000
vn 0.000000 -1.000000 0.000000
vn -0.338999 0.940678 0.014279
vn -0.897848 0.439811 0.020860
vn -0.840287 0.332492 0.428214
vn -0.324382 0.931813 0.162791
vn 0.000000 0.000000 1.000000
vn 0.000000 0.000000 1.000000
vn 0.000000 0.000000 1.000000
vn 0.000000 0.000000 1.000000
vn 0.890531 0.000000 0.454922
vn 0.999632 0.000000 0.027110
vn 0.999632 0.000000 0.027110
vn 0.890531 0.000000 0.454922
vn 0.970603 0.000000 -0.240688
vn 0.999632 0.000000 0.027110
vn 0.999632 0.000000 0.027110
vn 0.970603 0.000000 -0.240688
vn 0.000000 0.000000 -1.000000
vn 0.000000 0.000000 -1.000000
vn 0.000000 0.000000 -1.000000
vn 0.000000 0.000000 -1.000000
vn -0.970603 0.000000 -0.240688
vn -0.999632 0.000000 0.027110
vn -0.999632 0.000000 0.027110
vn -0.970603 0.000000 -0.240688
vn -0.890531 0.000000 0.454922
vn -0.999632 0.000000 0.027110
vn -0.999632 0.000000 0.027110
vn -0.890531 0.000000 0.454922
vn 0.000000 -0.804820 0.593519
vn 0.000000 -0.804820 0.593519
vn 0.000000 -0.232541 0.972587
vn 0.000000 -0.232541 0.972587
vn 0.655361 -0.677700 0.333503
vn 0.717315 -0.696305 0.024865
vn 0.986251 -0.163314 0.025230
vn 0.882288 -0.136600 0.450453
vn 0.962165 -0.132013 -0.238350
vn 0.986251 -0.163314 0.025230
vn 0.717315 -0.696305 0.024865
vn 0.719547 -0.671459 -0.177185
vn 0.000000 -0.227429 -0.973795
vn 0.000000 -0.227429 -0.973795
vn 0.000000 -0.804815 -0.593525
vn 0.000000 -0.804815 -0.593525
vn -0.719545 -0.671461 -0.177185
vn -0.717313 -0.696307 0.024865
vn -0.986251 -0.163314 0.025230
vn -0.962165 -0.132013 -0.238350
vn -0.882288 -0.136600 0.450453
vn -0.986251 -0.163314 0.025230
vn -0.717313 -0.696307 0.024865
vn -0.655360 -0.677701 0.333503
vn 0.890531 0.000000 0.454922
vn 0.999632 -0.000000 0.027110
vn 0.897848 0.439812 0.020860
vn 0.840287 0.332492 0.428214
vn 0.000000 0.000000 1.000000
vn 0.000000 0.000000 1.000000
vn 0.000000 0.494918 0.868940
vn 0.000000 0.494918 0.868940
vn -0.840287 0.332492 0.428214
vn -0.897848 0.439811 0.020860
vn -0.999632 0.000000 0.027110
vn -0.890531 0.000000 0.454922
vn -0.970603 -0.000001 -0.240688
vn -0.999632 0.000000 0.027110
vn -0.897848 0.439811 0.020860
vn -0.916615 0.329373 -0.226564
vn 0.000000 0.472948 -0.881090
vn 0.000000 0.472948 -0.881090
vn 0.000000 -0.000007 -1.000000
vn 0.000000 -0.000007 -1.000000
vn 0.916615 0.329373 -0.226564
vn 0.897848 0.439812 0.020860
vn 0.999632 -0.000000 0.027110
vn 0.970603 -0.000001 -0.240688
vn 0.000000 -0.232541 0.972587
vn 0.000000 -0.232541 0.972587
vn 0.000000 0.000000 1.000000
vn 0.000000 0.000000 1.000000
vn 0.882288 -0.136600 0.450453
vn 0.986251 -0.163314 0.025230
vn 0.999632 0.000000 0.027110
vn 0.890531 0.000000 0.454922
vn 0.970603 0.000000 -0.240688
vn 0.999632 0.000000 0.027110
vn 0.986251 -0.163314 0.025230
vn 0.962165 -0.132013 -0.238350
vn 0.000000 0.000000 -1.000000
vn 0.000000 0.000000 -1.000000
vn 0.000000 -0.227429 -0.973795
vn 0.000000 -0.227429 -0.973795
vn -0.962165 -0.132013 -0.238350
vn -0.986251 -0.163314 0.025230
vn -0.999632 0.000000 0.027110
vn -0.970603 0.000000 -0.240688
vn -0.890531 0.000000 0.454922
vn -0.999632 0.000000 0.027110
vn -0.986251 -0.163314 0.025230
vn -0.882288 -0.136600 0.450453
vn 0.000000 0.999462 0.032789
vn 0.000000 0.999462 0.032789
vn 0.000000 0.999462 0.032789
vn 0.000000 0.999462 0.032789
vn 0.000000 -0.999462 0.032789
vn 0.000000 -0.999462 0.032789
vn 0.000000 -0.999462 0.032789
vn 0.000000 -0.999462 0.032789
vn 0.057654 0.997902 0.029452
vn 0.057654 0.997902 0.029452
vn 0.057654 0.997902 0.029452
vn 0.057654 0.997902 0.029452
vn 0.057654 -0.997902 0.029452
vn 0.057654 -0.997902 0.029452
vn 0.057654 -0.997902 0.029452
vn 0.057654 -0.997902 0.029452
vn 0.090930 -0.995602 -0.022549
vn 0.090930 -0.995602 -0.022549
vn 0.090930 -0.995602 -0.022549
vn 0.090930 -0.995602 -0.022549
vn 0.090930 0.995602 -0.022549
vn 0.090930 0.995602 -0.022549
vn 0.090930 0.995602 -0.022549
vn 0.090930 0.995602 -0.022549
vn 0.000000 -0.999462 -0.032789
vn 0.000000 -0.999462 -0.032789
vn 0.000000 -0.999462 -0.032789
vn 0.000000 -0.999462 -0.032789
vn 0.000000 0.999462 -0.032789
vn 0.000000 0.999462 -0.032789
vn 0.000000 0.999462 -0.032789
vn 0.000000 0.999462 -0.032789
vn -0.090930 0.995602 -0.022548
vn -0.090930 0.995602 -0.022548
vn -0.090930 0.995602 -0.022548
vn -0.090930 0.995602 -0.022548
vn -0.090930 -0.995602 -0.022549
vn -0.090930 -0.995602 -0.022549
vn -0.090930 -0.995602 -0.022549
vn -0.090930 -0.995602 -0.022549
vn -0.057654 -0.997902 0.029452
vn -0.057654 -0.997902 0.029452
vn -0.057654 -0.997902 0.029452
vn -0.057654 -0.997902 0.029452
vn -0.057654 0.997902 0.029452
vn -0.057654 0.997902 0.029452
vn -0.057654 0.997902 0.029452
vn -0.057654 0.997902 0.029452
vn 0.001131 0.953116 0.302604
vn -0.001604 0.953125 0.302572
vn 0.000000 0.494918 0.868940
vn 0.000000 0.949777 0.312927
vn 0.000000 1.000000 0.000000
vn 0.000000 1.000000 0.000000
vn 0.000000 1.000000 0.000000
vn 0.000000 1.000000 0.000000
vn 0.000316 0.955282 -0.295697
vn -0.000336 0.955290 -0.295672
vn 0.000000 0.949777 -0.312926
vn 0.000000 0.472948 -0.881090
vn 0.000000 -1.000000 0.000000
vn 0.000000 -1.000000 0.000000
vn 0.000000 -1.000000 0.000000
vn 0.000000 -1.000000 0.000000
vn 0.338999 0.940678 0.014279
vn 0.897848 0.439812 0.020860
vn 0.916615 0.329373 -0.226564
vn 0.344478 0.935088 -0.083334
vn -0.916615 0.329373 -0.226564
vn -0.897848 0.439811 0.020860
vn -0.338999 0.940678 0.014279
vn -0.344478 0.935088 -0.083334
vn 0.000000 1.000000 0.000000
vn 0.000000 1.000000 0.000000
vn 0.000000 1.000000 0.000000
vn 0.000000 1.000000 0.000000
vn 0.840287 0.332492 0.428214
vn 0.897848 0.439812 0.020860
vn 0.338999 0.940678 0.014279
vn 0.324382 0.931813 0.162791
vn 0.000000 -1.000000 -0.000000
vn 0.000000 -1.000000 -0.000000
vn 0.000000 -1.000000 0.000000
vn 0.000000 -1.000000 0.000000
vn -0.338999 0.940678 0.014279
vn -0.897848 0.439811 0.020860
vn -0.840287 0.332492 0.428214
vn -0.324382 0.931813 0.162791
vn 0.000000 0.000002 1.000000
vn 0.000000 0.000002 1.000000
vn 0.000000 0.000000 1.000000
vn 0.000000 0.000000 1.000000
vn 0.890531 0.000000 0.454922
vn 0.999632 0.000000 0.027110
vn 0.999632 0.000000 0.027110
vn 0.890531 0.000000 0.454922
vn 0.970603 0.000000 -0.240688
vn 0.999632 0.000000 0.027110
vn 0.999632 0.000000 0.027110
vn 0.970603 0.000000 -0.240688
vn -0.000000 -0.000001 -1.000000
vn 0.000000 -0.000001 -1.000000
vn 0.000000 0.000000 -1.000000
vn 0.000000 0.000000 -1.000000
vn -0.970603 0.000000 -0.240688
vn -0.999632 0.000000 0.027110
vn -0.999632 0.000000 0.027110
vn -0.970603 0.000000 -0.240688
vn -0.890531 0.000000 0.454922
vn -0.999632 0.000000 0.027110
vn -0.999632 0.000000 0.027110
vn -0.890531 0.000000 0.454922
vn -0.001342 -0.812284 0.583261
vn 0.000960 -0.812274 0.583276
vn 0.000000 -0.804820 0.593519
vn 0.000000 -0.232541 0.972587
vn 0.655361 -0.677700 0.333503
vn 0.717315 -0.696305 0.024865
vn 0.986251 -0.163314 0.025230
vn 0.882288 -0.136600 0.450453
vn 0.962165 -0.132013 -0.238350
vn 0.986251 -0.163314 0.025230
vn 0.717315 -0.696305 0.024865
vn 0.719547 -0.671459 -0.177185
vn -0.001546 -0.817324 -0.576176
vn 0.002175 -0.817268 -0.576253
vn 0.000000 -0.227429 -0.973795
vn 0.000000 -0.804815 -0.593525
vn -0.719545 -0.671461 -0.177185
vn -0.717313 -0.696307 0.024865
vn -0.986251 -0.163314 0.025230
vn -0.962165 -0.132013 -0.238350
vn -0.882288 -0.136600 0.450453
vn -0.986251 -0.163314 0.025230
vn -0.717313 -0.696307 0.024865
vn -0.655360 -0.677701 0.333503
vn 0.890531 0.000000 0.454922
vn 0.999632 -0.000000 0.027110
vn 0.897848 0.439812 0.020860
vn 0.840287 0.332492 0.428214
vn 0.000000 0.000000 1.000000
vn 0.000000 0.000000 1.000000
vn 0.000000 0.000000 1.000000
vn 0.000000 0.494918 0.868940
vn -0.840287 0.332492 0.428214
vn -0.897848 0.439811 0.020860
vn -0.999632 0.000000 0.027110
vn -0.890531 0.000000 0.454922
vn -0.970603 -0.000001 -0.240688
vn -0.999632 0.000000 0.027110
vn -0.897848 0.439811 0.020860
vn -0.916615 0.329373 -0.226564
vn -0.000000 -0.000007 -1.000000
vn 0.000000 -0.000007 -1.000000
vn 0.000000 0.472948 -0.881090
vn 0.000000 -0.000007 -1.000000
vn 0.916615 0.329373 -0.226564
vn 0.897848 0.439812 0.020860
vn 0.999632 -0.000000 0.027110
vn 0.970603 -0.000001 -0.240688
vn -0.000000 0.000000 1.000000
vn -0.000000 0.000000 1.000000
vn 0.000000 -0.232541 0.972587
vn 0.000000 0.000000 1.000000
vn 0.882288 -0.136600 0.450453
vn 0.986251 -0.163314 0.025230
vn 0.999632 0.000000 0.027110
vn 0.890531 0.000000 0.454922
vn 0.970603 0.000000 -0.240688
vn 0.999632 0.000000 0.027110
vn 0.986251 -0.163314 0.025230
vn 0.962165 -0.132013 -0.238350
vn 0.000000 0.000000 -1.000000
vn 0.000000 0.000000 -1.000000
vn 0.000000 0.000000 -1.000000
vn 0.000000 -0.227429 -0.973795
vn -0.962165 -0.132013 -0.238350
vn -0.986251 -0.163314 0.025230
vn -0.999632 0.000000 0.027110
vn -0.970603 0.000000 -0.240688
vn -0.890531 0.000000 0.454922
vn -0.999632 0.000000 0.027110
vn -0.986251 -0.163314 0.025230
vn -0.882288 -0.136600 0.450453
vn 0.000007 0.999476 0.032367
vn 0.000009 0.999476 0.032367
vn 0.000000 0.999462 0.032789
vn 0.000000 0.999462 0.032789
vn 0.000000 -0.999462 0.032789
vn 0.000009 -0.999476 0.032367
vn 0.000007 -0.999476 0.032367
vn 0.000000 -0.999462 0.032789
vn 0.057654 0.997902 0.029452
vn 0.057654 0.997902 0.029452
vn 0.057654 0.997902 0.029452
vn 0.057654 0.997902 0.029452
vn 0.057654 -0.997902 0.029452
vn 0.057654 -0.997902 0.029452
vn 0.057654 -0.997902 0.029452
vn 0.057654 -0.997902 0.029452
vn 0.090930 -0.995602 -0.022549
vn 0.090930 -0.995602 -0.022549
vn 0.090930 -0.995602 -0.022549
vn 0.090930 -0.995602 -0.022549
vn 0.090930 0.995602 -0.022549
vn 0.090930 0.995602 -0.022549
vn 0.090930 0.995602 -0.022549
vn 0.090930 0.995602 -0.022549
vn -0.000223 -0.999485 -0.032074
vn 0.000349 -0.999485 -0.032082
vn 0.000000 -0.999462 -0.032789
vn 0.000000 -0.999462 -0.032789
vn 0.000000 0.999462 -0.032789
vn 0.000349 0.999485 -0.032082
vn -0.000223 0.999485 -0.032074
vn 0.000000 0.999462 -0.032789
vn -0.090930 0.995602 -0.022548
vn -0.090930 0.995602 -0.022548
vn -0.090930 0.995602 -0.022548
vn -0.090930 0.995602 -0.022548
vn -0.090930 -0.995602 -0.022549
vn -0.090930 -0.995602 -0.022549
vn -0.090930 -0.995602 -0.022549
vn -0.090930 -0.995602 -0.022549
vn -0.057654 -0.997902 0.029452
vn -0.057654 -0.997902 0.029452
vn -0.057654 -0.997902 0.029452
vn -0.057654 -0.997902 0.029452
vn -0.057654 0.997902 0.029452
vn -0.057654 0.997902 0.029452
vn -0.057654 0.997902 0.029452
vn -0.057654 0.997902 0.029452
vn 0.000000 0.000000 1.000000
vn 0.000000 0.494918 0.868940
vn 0.000000 -0.999462 0.032789
vn 0.000000 -0.999462 0.032789
vn 0.000000 0.000000 1.000000
vn 0.000000 0.000000 1.000000
vn 0.000000 0.999462 0.032789
vn 0.000000 0.999462 0.032789
vn 0.000000 -0.232541 0.972587
vn 0.000000 0.000000 1.000000
vn 0.000000 -0.804820 0.593519
vn 0.000000 -0.232541 0.972587
vn 0.000000 -1.000000 0.000000
vn 0.000000 -1.000000 0.000000
vn 0.000000 -1.000000 0.000000
vn 0.000000 -1.000000 0.000000
vn 0.000000 -0.227429 -0.973795
vn 0.000000 -0.804815 -0.593525
vn 0.000000 0.000000 -1.000000
vn 0.000000 -0.227429 -0.973795
vn 0.000000 0.999462 -0.032789
vn 0.000000 0.999462 -0.032789
vn 0.000000 0.000000 -1.000000
vn 0.000000 0.000000 -1.000000
vn 0.000000 -0.999462 -0.032789
vn 0.000000 -0.999462 -0.032789
vn 0.000000 0.472948 -0.881090
vn 0.000000 -0.000007 -1.000000
vn 0.000000 0.949777 -0.312926
vn 0.000000 0.472948 -0.881090
vn 0.000000 1.000000 0.000000
vn 0.000000 1.000000 0.000000
vn 0.000000 1.000000 0.000000
vn 0.000000 1.000000 0.000000
vn 0.000000 0.494918 0.868940
vn 0.000000 0.949777 0.312927
s off
g Stage:pCube1
usemtl Stage:initialShadingGroup
f 13/1/1 14/2/2 4/3/3 3/4/4
f 9/5/5 10/6/6 6/7/7 5/8/8
f 5/8/9 6/7/10 16/9/11 17/10/12
f 7/11/13 8/12/14 11/13/15 12/14/16
f 10/15/17 15/16/18 16/17/19 6/18/20
f 17/19/21 18/20/22 9/21/23 5/22/24
f 3/4/25 4/3/26 10/6/27 9/5/28
f 14/2/29 15/16/30 10/15/31 4/3/32
f 12/14/33 11/13/34 2/23/35 1/24/36
f 9/21/37 18/20/38 13/1/39 3/4/40
f 37/25/41 38/26/42 39/27/43 40/28/44
f 38/26/45 41/29/46 42/30/47 39/27/48
f 43/31/49 42/30/50 41/29/51 44/32/52
f 45/33/53 43/34/54 44/35/55 46/36/56
f 46/37/57 47/38/58 48/39/59 45/40/60
f 40/28/61 48/39/62 47/38/63 37/25/64
f 1/41/65 2/42/66 20/43/67 19/44/68
f 2/42/69 11/45/70 21/46/71 20/43/72
f 22/47/73 21/46/74 11/45/75 8/48/76
f 23/49/77 22/50/78 8/12/79 7/11/80
f 7/51/81 12/52/82 24/53/83 23/54/84
f 19/44/85 24/53/86 12/52/87 1/41/88
f 26/55/89 25/56/90 15/16/91 14/2/92
f 27/57/93 26/55/94 14/2/95 13/1/96
f 13/1/97 18/20/98 28/58/99 27/57/100
f 29/59/101 28/58/102 18/20/103 17/19/104
f 17/10/105 16/9/106 30/60/107 29/61/108
f 16/17/109 15/16/110 25/56/111 30/62/112
f 19/44/113 20/43/114 32/63/115 31/64/116
f 20/43/117 21/46/118 33/65/119 32/63/120
f 34/66/121 33/65/122 21/46/123 22/47/124
f 35/67/125 34/68/126 22/50/127 23/49/128
f 23/54/129 24/53/130 36/69/131 35/70/132
f 31/64/133 36/69/134 24/53/135 19/44/136
f 31/64/137 32/63/138 38/26/139 37/25/140
f 26/55/141 27/57/142 40/28/143 39/27/144
f 32/63/145 33/65/146 41/29/147 38/26/148
f 25/56/149 26/55/150 39/27/151 42/30/152
f 30/62/153 25/56/154 42/30/155 43/31/156
f 33/65/157 34/66/158 44/32/159 41/29/160
f 29/61/161 30/60/162 43/34/163 45/33/164
f 34/68/165 35/67/166 46/36/167 44/35/168
f 35/70/169 36/69/170 47/38/171 46/37/172
f 28/58/173 29/59/174 45/40/175 48/39/176
f 27/57/177 28/58/178 48/39/179 40/28/180
f 36/69/181 31/64/182 37/25/183 47/38/184
s 1
f 114/159/185 97/141/186 62/72/187 52/73/188
s 2
f 112/157/189 113/158/190 58/76/191 54/77/192
s 3
f 111/156/193 112/157/194 54/77/195 64/79/196
s 4
f 104/149/197 105/150/198 56/82/199 59/83/200
s off
f 58/85/201 63/86/202 64/87/203 54/88/204
f 65/89/205 66/90/206 57/91/207 53/92/208
s 5
f 113/158/209 114/159/210 52/73/211 58/76/212
s off
f 62/72/213 63/86/214 58/85/215 52/73/216
s 6
f 103/147/217 104/149/218 59/83/219 50/93/220
s off
f 57/91/221 66/90/222 61/71/223 51/74/224
s 7
f 99/143/225 100/144/226 86/96/227 87/97/228
s off
f 86/96/229 89/99/230 90/100/231 87/97/232
f 91/101/233 90/100/234 89/99/235 92/102/236
s 8
f 108/153/237 109/154/238 91/104/239 92/105/240
s off
f 94/107/241 95/108/242 96/109/243 93/110/244
f 88/98/245 96/109/246 95/108/247 85/95/248
s 9
f 102/146/249 103/148/250 50/112/251 68/113/252
s off
f 50/112/253 59/115/254 69/116/255 68/113/256
f 70/117/257 69/116/258 59/115/259 56/118/260
s 10
f 105/150/261 106/151/262 70/120/263 56/82/264
s off
f 55/121/265 60/122/266 72/123/267 71/124/268
f 67/114/269 72/123/270 60/122/271 49/111/272
f 74/125/273 73/126/274 63/86/275 62/72/276
s 11
f 97/141/277 98/142/278 74/125/279 62/72/280
s off
f 61/71/281 66/90/282 76/128/283 75/127/284
f 77/129/285 76/128/286 66/90/287 65/89/288
s 12
f 110/155/289 111/156/290 64/79/291 78/130/292
s off
f 64/87/293 63/86/294 73/126/295 78/132/296
s 13
f 101/145/297 102/146/298 68/113/299 80/133/300
s off
f 68/113/301 69/116/302 81/135/303 80/133/304
f 82/136/305 81/135/306 69/116/307 70/117/308
s 14
f 106/151/309 107/152/310 82/138/311 70/120/312
s off
f 71/124/313 72/123/314 84/139/315 83/140/316
f 79/134/317 84/139/318 72/123/319 67/114/320
s 15
f 100/144/321 101/145/322 80/133/323 86/96/324
s 16
f 74/125/325 98/142/326 99/143/327 87/97/328
s off
f 80/133/329 81/135/330 89/99/331 86/96/332
f 73/126/333 74/125/334 87/97/335 90/100/336
f 78/132/337 73/126/338 90/100/339 91/101/340
f 81/135/341 82/136/342 92/102/343 89/99/344
s 17
f 109/154/345 110/155/346 78/130/347 91/104/348
s 18
f 82/138/349 107/152/350 108/153/351 92/105/352
s off
f 83/140/353 84/139/354 95/108/355 94/107/356
f 76/128/357 77/129/358 93/110/359 96/109/360
f 75/127/361 76/128/362 96/109/363 88/98/364
f 84/139/365 79/134/366 85/95/367 95/108/368
s 11
f 75/127/369 98/142/278 97/141/277 61/71/370
s 16
f 99/143/327 98/142/326 75/127/371 88/98/372
s 7
f 85/95/373 100/144/226 99/143/225 88/98/374
s 15
f 79/134/375 101/145/322 100/144/321 85/95/376
s 13
f 67/114/377 102/146/298 101/145/297 79/134/378
s 9
f 49/111/379 103/148/250 102/146/249 67/114/380
s 6
f 60/84/381 104/149/218 103/147/217 49/94/382
s 4
f 55/81/383 105/150/198 104/149/197 60/84/384
s 10
f 71/119/385 106/151/262 105/150/261 55/81/386
s 14
f 83/137/387 107/152/310 106/151/309 71/119/388
s 18
f 108/153/351 107/152/350 83/137/389 94/106/390
s 8
f 93/103/391 109/154/238 108/153/237 94/106/392
s 17
f 77/131/393 110/155/346 109/154/345 93/103/394
s 12
f 65/80/395 111/156/290 110/155/289 77/131/396
s 3
f 53/78/397 112/157/194 111/156/193 65/80/398
s 2
f 57/75/399 113/158/190 112/157/189 53/78/400
s 5
f 51/74/401 114/159/210 113/158/209 57/75/402
s 1
f 61/71/403 97/141/186 114/159/185 51/74/404
