# This file uses centimeters as units for non-parametric coordinates.

mtllib StripperPole1.mtl
g default
v -0.069734 0.481995 7.520456
v 0.069734 0.481995 7.520456
v -0.103245 0.829885 7.545689
v 0.103245 0.829885 7.545689
v -0.103245 0.829885 7.355755
v 0.103245 0.829885 7.355755
v -0.069734 0.481995 7.380988
v 0.069734 0.481995 7.380988
v -0.186232 0.731224 7.636953
v 0.186232 0.731224 7.636953
v 0.186232 0.731224 7.264491
v -0.186232 0.731224 7.264491
v -0.083791 0.662504 7.527795
v 0.083791 0.662504 7.527795
v 0.083791 0.662504 7.373649
v -0.083791 0.662504 7.373649
v 0.084085 0.630447 7.420210
v 0.064356 0.630447 7.390684
v 0.034829 0.630447 7.370955
v 0.000000 0.630447 7.364027
v -0.034829 0.630447 7.370955
v -0.064356 0.630447 7.390684
v -0.084085 0.630447 7.420210
v -0.091013 0.630447 7.455040
v -0.084085 0.630447 7.489869
v -0.064356 0.630447 7.519395
v -0.034829 0.630447 7.539124
v -0.000000 0.630447 7.546052
v 0.034829 0.630447 7.539124
v 0.064356 0.630447 7.519395
v 0.084085 0.630447 7.489869
v 0.091013 0.630447 7.455040
v 0.084085 5.753410 7.420210
v 0.064356 5.753410 7.390684
v 0.034829 5.753410 7.370955
v 0.000000 5.753410 7.364027
v -0.034829 5.753410 7.370955
v -0.064356 5.753410 7.390684
v -0.084085 5.753410 7.420210
v -0.091013 5.753410 7.455040
v -0.084085 5.753410 7.489869
v -0.064356 5.753410 7.519395
v -0.034829 5.753410 7.539124
v -0.000000 5.753410 7.546052
v 0.034829 5.753410 7.539124
v 0.064356 5.753410 7.519395
v 0.084085 5.753410 7.489869
v 0.091013 5.753410 7.455040
vt 0.375000 0.178025
vt 0.625000 0.178025
vt 0.625000 0.250000
vt 0.375000 0.250000
vt 0.375000 0.250000
vt 0.625000 0.250000
vt 0.625000 0.500000
vt 0.375000 0.500000
vt 0.375000 0.500000
vt 0.625000 0.500000
vt 0.625000 0.571975
vt 0.375000 0.571975
vt 0.375000 0.750000
vt 0.625000 0.750000
vt 0.625000 1.000000
vt 0.375000 1.000000
vt 0.875000 0.178025
vt 0.875000 0.250000
vt 0.125000 0.178025
vt 0.125000 0.250000
vt 0.375000 0.000000
vt 0.625000 0.000000
vt 0.875000 0.000000
vt 0.125000 0.000000
vt 0.375000 0.312500
vt 0.390625 0.312500
vt 0.390625 0.688440
vt 0.375000 0.688440
vt 0.406250 0.312500
vt 0.406250 0.688440
vt 0.421875 0.312500
vt 0.421875 0.688440
vt 0.437500 0.312500
vt 0.437500 0.688440
vt 0.453125 0.312500
vt 0.453125 0.688440
vt 0.468750 0.312500
vt 0.468750 0.688440
vt 0.484375 0.312500
vt 0.484375 0.688440
vt 0.500000 0.312500
vt 0.500000 0.688440
vt 0.515625 0.312500
vt 0.515625 0.688440
vt 0.531250 0.312500
vt 0.531250 0.688440
vt 0.546875 0.312500
vt 0.546875 0.688440
vt 0.562500 0.312500
vt 0.562500 0.688440
vt 0.578125 0.312500
vt 0.578125 0.688440
vt 0.593750 0.312500
vt 0.593750 0.688440
vt 0.609375 0.312500
vt 0.609375 0.688440
vt 0.625000 0.312500
vt 0.625000 0.688440
vn 0.000000 -0.077008 0.997031
vn 0.000000 -0.077008 0.997031
vn 0.000000 0.679057 0.734086
vn 0.000000 0.679057 0.734086
vn 0.000000 1.000000 0.000000
vn 0.000000 1.000000 0.000000
vn 0.000000 1.000000 0.000000
vn 0.000000 1.000000 0.000000
vn 0.000000 0.679057 -0.734086
vn 0.000000 0.679057 -0.734086
vn 0.000000 -0.077008 -0.997031
vn 0.000000 -0.077008 -0.997031
vn 0.000000 -1.000000 0.000000
vn 0.000000 -1.000000 0.000000
vn 0.000000 -1.000000 0.000000
vn 0.000000 -1.000000 0.000000
vn 0.992311 -0.123767 0.000000
vn 0.992311 -0.123767 0.000000
vn 0.765276 0.643702 0.000000
vn 0.765276 0.643702 0.000000
vn -0.992311 -0.123767 0.000000
vn -0.992311 -0.123767 0.000000
vn -0.765276 0.643702 0.000000
vn -0.765276 0.643702 0.000000
vn 0.000000 -0.423454 0.905918
vn 0.000000 -0.423454 0.905918
vn 0.905917 -0.423455 0.000000
vn 0.905917 -0.423455 0.000000
vn 0.000000 -0.423454 -0.905918
vn 0.000000 -0.423454 -0.905918
vn -0.905917 -0.423455 0.000000
vn -0.905917 -0.423455 0.000000
vn 0.000000 0.106299 -0.994334
vn 0.000000 0.106299 -0.994334
vn 0.000000 0.106299 -0.994334
vn 0.000000 0.106299 -0.994334
vn -0.993314 0.115446 0.000000
vn -0.993314 0.115446 0.000000
vn -0.993314 0.115446 0.000000
vn -0.993314 0.115446 0.000000
vn 0.000000 0.106299 0.994334
vn 0.000000 0.106299 0.994334
vn 0.000000 0.106299 0.994334
vn 0.000000 0.106299 0.994334
vn 0.993314 0.115446 0.000000
vn 0.993314 0.115446 0.000000
vn 0.993314 0.115446 0.000000
vn 0.993314 0.115446 0.000000
vn 0.923880 0.000000 -0.382683
vn 0.707105 0.000000 -0.707109
vn 0.707105 0.000000 -0.707109
vn 0.923880 0.000000 -0.382683
vn 0.382681 0.000000 -0.923881
vn 0.382681 0.000000 -0.923881
vn 0.000000 0.000000 -1.000000
vn 0.000000 0.000000 -1.000000
vn -0.382681 0.000000 -0.923881
vn -0.382681 0.000000 -0.923881
vn -0.707104 0.000000 -0.707109
vn -0.707104 0.000000 -0.707109
vn -0.923879 0.000000 -0.382684
vn -0.923879 0.000000 -0.382684
vn -1.000000 0.000000 -0.000000
vn -1.000000 0.000000 -0.000000
vn -0.923880 0.000000 0.382684
vn -0.923880 0.000000 0.382684
vn -0.707104 0.000000 0.707109
vn -0.707104 0.000000 0.707109
vn -0.382681 0.000000 0.923881
vn -0.382681 0.000000 0.923881
vn 0.000000 0.000000 1.000000
vn 0.000000 0.000000 1.000000
vn 0.382681 0.000000 0.923881
vn 0.382681 0.000000 0.923881
vn 0.707104 0.000000 0.707109
vn 0.707104 0.000000 0.707109
vn 0.923879 0.000000 0.382684
vn 0.923879 0.000000 0.382684
vn 1.000000 0.000000 0.000000
vn 1.000000 0.000000 0.000000
s 1
g StripperPole
usemtl initialShadingGroup
f 9/1/1 10/2/2 4/3/3 3/4/4
s off
f 13/5/5 14/6/6 15/7/7 16/8/8
s 2
f 5/9/9 6/10/10 11/11/11 12/12/12
s off
f 7/13/13 8/14/14 2/15/15 1/16/16
s 3
f 10/2/17 11/17/18 6/18/19 4/3/20
s 4
f 12/19/21 9/1/22 3/4/23 5/20/24
s 1
f 1/21/25 2/22/26 10/2/2 9/1/1
s 3
f 2/22/27 8/23/28 11/17/18 10/2/17
s 2
f 12/12/12 11/11/11 8/14/29 7/13/30
s 4
f 7/24/31 1/21/32 9/1/22 12/19/21
s off
f 3/4/33 4/3/34 14/6/35 13/5/36
f 4/3/37 6/10/38 15/7/39 14/6/40
f 6/10/41 5/9/42 16/8/43 15/7/44
f 5/9/45 3/4/46 13/5/47 16/8/48
s 5
f 17/25/49 18/26/50 34/27/51 33/28/52
f 18/26/50 19/29/53 35/30/54 34/27/51
f 19/29/53 20/31/55 36/32/56 35/30/54
f 20/31/55 21/33/57 37/34/58 36/32/56
f 21/33/57 22/35/59 38/36/60 37/34/58
f 22/35/59 23/37/61 39/38/62 38/36/60
f 23/37/61 24/39/63 40/40/64 39/38/62
f 24/39/63 25/41/65 41/42/66 40/40/64
f 25/41/65 26/43/67 42/44/68 41/42/66
f 26/43/67 27/45/69 43/46/70 42/44/68
f 27/45/69 28/47/71 44/48/72 43/46/70
f 28/47/71 29/49/73 45/50/74 44/48/72
f 29/49/73 30/51/75 46/52/76 45/50/74
f 30/51/75 31/53/77 47/54/78 46/52/76
f 31/53/77 32/55/79 48/56/80 47/54/78
f 32/55/79 17/57/49 33/58/52 48/56/80
