# This file uses centimeters as units for non-parametric coordinates.

mtllib table.mtl
g default
v -7.446548 18.702267 10.834054
v -7.446548 19.968103 10.834054
v -7.446548 19.968103 -10.823179
v 11.120607 19.968103 -0.075234
v -7.446548 18.702267 -10.823179
v 11.120607 18.702267 -0.075234
v -8.398746 19.331270 11.944723
v 12.072805 19.331270 -0.083509
v -8.398746 19.331270 -11.933848
v -0.362373 1.193579 0.362373
v 0.362373 1.193579 0.362373
v -0.370801 19.679626 0.370801
v 0.370801 19.679626 0.370801
v -0.370801 19.679626 -0.370801
v 0.370801 19.679626 -0.370801
v -0.362373 1.193579 -0.362373
v 0.362373 1.193579 -0.362373
v -2.067684 13.310806 2.067684
v 2.067684 13.310806 2.067684
v 2.067684 13.310806 -2.067684
v -2.067684 13.310806 -2.067684
v -1.337504 -0.005768 -1.337504
v 1.337504 -0.005768 -1.337504
v 1.337504 -0.005768 1.337504
v -1.337504 -0.005768 1.337504
vt 0.375000 0.500000
vt 0.625000 0.500000
vt 0.625000 0.625773
vt 0.375000 0.625773
vt 0.375000 0.750000
vt 0.625000 0.750000
vt 0.375000 1.000000
vt 0.125000 0.124227
vt 0.375000 0.124227
vt 0.375000 0.250000
vt 0.125000 0.250000
vt 0.375000 0.627320
vt 0.125000 0.000000
vt 0.375000 0.000000
vt 0.375000 0.175774
vt 0.625000 0.175774
vt 0.625000 0.250000
vt 0.375000 0.250000
vt 0.625000 0.500000
vt 0.375000 0.500000
vt 0.625000 0.574226
vt 0.375000 0.574226
vt 0.375000 0.750000
vt 0.625000 0.750000
vt 0.625000 1.000000
vt 0.375000 1.000000
vt 0.875000 0.175774
vt 0.875000 0.250000
vt 0.125000 0.175774
vt 0.125000 0.250000
vt 0.375000 0.000000
vt 0.625000 0.000000
vt 0.875000 0.000000
vt 0.625000 0.750000
vt 0.375000 0.750000
vt 0.125000 0.000000
vt 0.625000 1.000000
vt 0.375000 1.000000
vn 0.398804 0.605245 -0.688937
vn 0.398804 0.605245 -0.688937
vn 0.500984 0.001934 -0.865454
vn 0.500984 0.002468 -0.865453
vn 0.000000 -1.000000 0.000000
vn 0.000000 -1.000000 0.000000
vn 0.000000 -1.000000 0.000000
vn -0.999999 0.001782 0.000000
vn -0.999999 0.001782 0.000000
vn -0.555929 0.831230 0.000000
vn -0.555929 0.831230 0.000000
vn 0.000000 1.000000 0.000000
vn 0.000000 1.000000 0.000000
vn 0.000000 1.000000 0.000000
vn 0.405999 0.598074 0.690993
vn 0.506585 0.002463 0.862186
vn 0.506586 0.001941 0.862188
vn 0.405999 0.598074 0.690993
vn 0.404192 -0.602824 0.687918
vn 0.404192 -0.602824 0.687918
vn 0.396987 -0.609987 -0.685797
vn 0.396987 -0.609987 -0.685797
vn -0.551180 -0.834387 0.000000
vn -0.551180 -0.834387 0.000000
vn 0.000000 -0.007637 0.999971
vn 0.000000 -0.007637 0.999971
vn 0.000000 0.257455 0.966290
vn 0.000000 0.257455 0.966290
vn 0.000000 1.000000 0.000000
vn 0.000000 1.000000 0.000000
vn 0.000000 1.000000 0.000000
vn 0.000000 1.000000 0.000000
vn 0.000000 0.257455 -0.966290
vn 0.000000 0.257455 -0.966290
vn 0.000000 -0.007637 -0.999971
vn 0.000000 -0.007637 -0.999971
vn -0.000000 1.000000 0.000000
vn -0.000000 1.000000 0.000000
vn -0.000000 1.000000 0.000000
vn -0.000000 1.000000 0.000000
vn 0.999971 -0.007637 0.000000
vn 0.999971 -0.007637 0.000000
vn 0.966291 0.257454 0.000000
vn 0.966291 0.257454 0.000000
vn -0.999971 -0.007637 0.000000
vn -0.999971 -0.007637 0.000000
vn -0.966291 0.257454 0.000000
vn -0.966291 0.257454 0.000000
vn 0.000000 -0.139361 0.990242
vn 0.000000 -0.139361 0.990242
vn 0.000000 -0.007637 0.999971
vn 0.000000 -0.007637 0.999971
vn 0.990242 -0.139361 0.000000
vn 0.990242 -0.139361 0.000000
vn 0.999971 -0.007637 0.000000
vn 0.999971 -0.007637 0.000000
vn 0.000000 -0.007637 -0.999971
vn 0.000000 -0.007637 -0.999971
vn 0.000000 -0.139361 -0.990242
vn 0.000000 -0.139361 -0.990242
vn -0.990242 -0.139361 0.000000
vn -0.990242 -0.139361 0.000000
vn -0.999971 -0.007637 0.000000
vn -0.999971 -0.007637 0.000000
vn -0.000000 1.000000 0.000000
vn -0.000000 1.000000 0.000000
vn -0.000000 1.000000 0.000000
vn -0.000000 1.000000 0.000000
vn -0.000000 1.000000 0.000000
vn -0.000000 1.000000 0.000000
vn -0.000000 1.000000 0.000000
vn -0.000000 1.000000 0.000000
s 1
g polySurface3
usemtl initialShadingGroup
f 3/1/1 4/2/2 8/3/3 9/4/4
s off
f 5/5/5 6/6/6 1/7/7
s 2
f 9/8/8 7/9/9 2/10/10 3/11/11
s off
f 2/10/12 4/2/13 3/1/14
s 3
f 2/10/15 7/12/16 8/3/17 4/2/18
f 8/3/17 7/12/16 1/7/19 6/6/20
s 1
f 9/4/4 8/3/3 6/6/21 5/5/22
s 2
f 5/13/23 1/14/24 7/9/9 9/8/8
s off
f 18/15/25 19/16/26 13/17/27 12/18/28
f 12/18/29 13/17/30 15/19/31 14/20/32
f 14/20/33 15/19/34 20/21/35 21/22/36
f 22/23/37 23/24/38 24/25/39 25/26/40
f 19/16/41 20/27/42 15/28/43 13/17/44
f 21/29/45 18/15/46 12/18/47 14/30/48
s 4
f 10/31/49 11/32/50 19/16/51 18/15/52
s 5
f 11/32/53 17/33/54 20/27/55 19/16/56
s 6
f 21/22/57 20/21/58 17/34/59 16/35/60
s 7
f 16/36/61 10/31/62 18/15/63 21/29/64
s 6
f 16/35/60 17/34/59 23/24/65 22/23/66
s 5
f 17/34/54 11/37/53 24/25/67 23/24/68
s 4
f 11/37/50 10/38/49 25/26/69 24/25/70
s 7
f 10/38/62 16/35/61 22/23/71 25/26/72
