# This file uses centimeters as units for non-parametric coordinates.

mtllib Bat.mtl
g default
v -0.496292 -0.619003 0.501645
v 0.515600 -0.621524 0.500296
v -0.651491 27.524971 0.660999
v 0.680261 27.525917 0.663388
v -0.652099 27.525993 -0.658623
v 0.679790 27.525711 -0.657990
v -0.496115 -0.622094 -0.499329
v 0.512240 -0.614000 -0.498237
v -0.547032 0.645120 0.546697
v 0.571667 0.645370 0.542750
v 0.622994 0.654583 -0.599320
v -0.597166 0.649082 -0.590051
v -0.880111 -0.472014 0.882032
v 0.903054 -0.474530 0.885261
v 0.903184 0.058147 0.887246
v -0.887235 0.055915 0.889328
v 0.900834 -0.473471 -0.882219
v 0.909084 0.054971 -0.889230
v -0.888248 0.054686 -0.889505
v -0.883886 -0.473335 -0.885064
v -0.801314 27.826567 0.003376
v 0.824177 27.826128 0.003778
v 0.868875 0.653659 -0.011846
v 1.250160 0.053331 0.001350
v 1.253213 -0.474238 0.001080
v 0.591886 -0.626476 0.002193
v -0.577508 -0.627528 0.001957
v -1.245924 -0.463122 0.002890
v -1.253942 0.061038 0.003320
v -0.798873 0.646894 -0.002846
v 0.014848 -0.634426 0.579493
v 0.013323 -0.653339 0.001861
v 0.015069 -0.633979 -0.576726
v 0.023375 -0.474168 -1.235408
v 0.023605 0.055648 -1.242013
v 0.009421 0.651755 -0.842281
v 0.023776 27.827818 -0.804177
v 0.024864 28.104774 -0.000349
v 0.023361 27.826693 0.803610
v 0.011380 0.646596 0.797168
v 0.022353 0.059599 1.235781
v 0.024770 -0.473756 1.232358
v -0.503780 7.297690 -0.499085
v 0.036912 7.303384 -0.727951
v 0.525395 7.298189 -0.529218
v 0.732069 7.298426 0.005878
v 0.579859 7.294824 0.598437
v 0.011869 7.286068 0.830360
v -0.537068 7.305636 0.519672
v -0.731942 7.299505 0.002837
v 0.018986 23.425793 -0.973397
v -0.698280 23.423094 -0.701127
v 0.717294 23.423063 -0.700619
v 0.990786 23.425524 0.003901
v 0.719211 23.423052 0.705289
v 0.019539 23.425831 0.966607
v -0.700107 23.422958 0.704276
v -0.980188 23.425591 0.002440
v 0.014184 13.516400 -0.789389
v 0.580546 13.516341 -0.567047
v 0.805562 13.516328 0.002252
v 0.577615 13.516408 0.566833
v 0.015088 13.516432 0.787783
v -0.568436 13.516307 0.570712
v -0.799401 13.516378 0.003243
v -0.565397 13.516364 -0.567036
v 0.011852 2.567390 0.714153
v 0.540969 2.568253 0.514810
v 0.020971 2.564671 -0.803546
v 0.567474 2.564844 -0.579218
v 0.736277 2.571477 0.011628
v -0.747303 2.566926 -0.005272
v -0.537606 2.564929 -0.532562
v -0.506409 2.566846 0.530903
v 0.016951 0.313455 0.874156
v 0.642901 0.313412 0.629671
v 0.896658 0.313871 0.002724
v 0.642800 0.314522 -0.627829
v 0.016727 0.313619 -0.877542
v -0.886967 0.313885 0.002995
v -0.628193 0.313433 -0.628288
v -0.627579 0.313334 0.630120
v 0.021073 0.171050 -1.106171
v 0.809336 0.171911 -0.791389
v -1.115613 0.174535 0.002345
v -0.791058 0.170583 -0.791833
v 1.123554 0.170898 0.002877
v 0.807538 0.172586 0.792279
v 0.020667 0.172600 1.105384
v -0.790253 0.170375 0.793849
v 0.022978 -0.096084 1.266824
v 0.921654 -0.099346 0.906285
v 1.290869 -0.104382 0.002771
v 0.931974 -0.103243 -0.912053
v 0.023535 -0.100103 -1.266382
v -1.278158 -0.096678 0.003256
v -0.911380 -0.104131 -0.912519
v -0.909994 -0.101929 0.912300
v 0.023714 -0.331449 -1.274266
v 0.930852 -0.329666 -0.911205
v -1.285689 -0.322793 0.003471
v -0.911042 -0.331887 -0.912462
v 1.291031 -0.330331 0.003832
v 0.927581 -0.331485 0.908164
v 0.026609 -0.328575 1.267401
v -0.908763 -0.331660 0.910463
v 0.021083 -0.549021 1.034591
v 0.767525 -0.551576 0.750274
v 1.056116 -0.551248 0.005685
v 0.766978 -0.550828 -0.748019
v 0.020479 -0.553117 -1.035392
v -1.045864 -0.537727 0.002521
v -0.745395 -0.543827 -0.747416
v -0.747904 -0.551733 0.751938
vt 0.162270 0.693560
vt 0.182540 0.694090
vt 0.182910 0.848150
vt 0.164180 0.848820
vt 0.105580 0.034850
vt 0.105580 0.011890
vt 0.136500 0.024230
vt 0.121880 0.040310
vt 0.105580 0.913430
vt 0.105580 0.850280
vt 0.125520 0.850110
vt 0.128810 0.912540
vt 0.141260 0.987820
vt 0.121500 0.978040
vt 0.132560 0.967770
vt 0.148200 0.970680
vt 0.123050 0.693360
vt 0.142040 0.693350
vt 0.146180 0.849410
vt 0.081990 0.912840
vt 0.059560 0.913190
vt 0.065480 0.849840
vt 0.084610 0.850200
vt 0.206700 0.935620
vt 0.208080 0.941200
vt 0.179020 0.946660
vt 0.178620 0.941010
vt 0.153910 0.935880
vt 0.153960 0.940860
vt 0.129220 0.940930
vt 0.129060 0.936160
vt 0.105580 0.958780
vt 0.105580 0.953420
vt 0.129610 0.947590
vt 0.129990 0.951920
vt 0.081100 0.951960
vt 0.058210 0.952250
vt 0.057730 0.947970
vt 0.081460 0.947710
vt 0.183780 0.996300
vt 0.176730 0.994230
vt 0.173640 0.965990
vt 0.178870 0.960460
vt 0.173520 0.912990
vt 0.194000 0.910480
vt 0.198460 0.921630
vt 0.176540 0.925430
vt 0.153160 0.952070
vt 0.152200 0.957910
vt 0.130620 0.957630
vt 0.151440 0.912840
vt 0.153100 0.923630
vt 0.128840 0.923020
vt 0.105580 0.939480
vt 0.105580 0.933510
vt 0.128950 0.930950
vt 0.109310 0.965420
vt 0.078850 0.967860
vt 0.063390 0.970940
vt 0.059330 0.958060
vt 0.080590 0.957760
vt 0.057390 0.936260
vt 0.057630 0.931260
vt 0.082020 0.931030
vt 0.081940 0.936200
vt 0.105580 0.001950
vt 0.151870 0.019070
vt 0.153730 0.930970
vt 0.178070 0.934870
vt 0.153680 0.947700
vt 0.179040 0.955070
vt 0.163690 0.974600
vt 0.161370 0.991190
vt 0.038060 0.966530
vt 0.032920 0.961100
vt 0.057400 0.941150
vt 0.032780 0.947420
vt 0.033140 0.941690
vt 0.038120 0.913420
vt 0.058190 0.924000
vt 0.035130 0.925990
vt 0.049610 0.693270
vt 0.067870 0.693370
vt 0.045830 0.849350
vt 0.070810 0.988270
vt 0.050720 0.992010
vt 0.048030 0.975110
vt 0.090380 0.978060
vt 0.102140 0.965370
vt 0.105580 0.945070
vt 0.081810 0.941000
vt 0.105580 0.924930
vt 0.082090 0.923180
vt 0.086120 0.693380
vt 0.105580 0.693210
vt 0.074040 0.025200
vt 0.088780 0.041410
vt 0.058530 0.020010
vt 0.017490 0.911180
vt 0.027650 0.848720
vt 0.004360 0.936350
vt 0.007240 0.930720
vt 0.033600 0.935490
vt 0.001990 0.955110
vt 0.001950 0.950050
vt 0.032730 0.955750
vt 0.035450 0.995660
vt 0.105580 0.163990
vt 0.080110 0.163470
vt 0.105580 0.487940
vt 0.125860 0.488030
vt 0.155210 0.161760
vt 0.130440 0.163530
vt 0.146210 0.488240
vt 0.166440 0.488650
vt 0.171600 0.004240
vt 0.204340 0.157840
vt 0.179900 0.159670
vt 0.028810 0.694190
vt 0.023520 0.489120
vt 0.044060 0.488560
vt 0.055270 0.161840
vt 0.030480 0.159830
vt 0.064410 0.488160
vt 0.084900 0.487960
vt 0.186390 0.489160
vt 0.005410 0.157980
vt 0.038240 0.005040
vt 0.203820 0.930010
vt 0.012690 0.922320
vt 0.209020 0.949310
vt 0.003000 0.941960
vt 0.209130 0.954350
vt 0.028480 0.998040
vn 0.726740 -0.005986 0.686886
vn -0.030809 -0.006348 0.999505
vn -0.018109 -0.003580 0.999830
vn 0.716577 0.000349 0.697508
vn -0.000678 0.234408 -0.972138
vn -0.000046 1.000000 -0.000848
vn 0.972586 0.232541 -0.000516
vn 0.705345 0.107790 -0.700621
vn -0.023669 0.041415 -0.998862
vn -0.032470 0.018006 -0.999311
vn 0.732690 0.018960 -0.680298
vn 0.720736 0.047090 -0.691608
vn 0.001752 -0.999998 -0.001280
vn 0.000807 -0.994033 -0.109079
vn 0.095086 -0.991450 -0.089363
vn 0.110246 -0.993900 -0.003094
vn 0.726234 -0.001441 -0.687446
vn 0.999819 -0.004588 -0.018478
vn 0.999897 0.014155 0.002377
vn -0.718463 0.054946 -0.693392
vn -0.997117 0.067448 0.034764
vn -0.999888 0.011030 0.010077
vn -0.709652 0.017494 -0.704335
vn 0.001125 0.467690 0.883892
vn 0.000762 0.076605 0.997061
vn 0.701829 0.087312 0.706974
vn 0.627710 0.468470 0.621704
vn 0.880991 0.473134 -0.000069
vn 0.995967 0.089565 0.005329
vn 0.706088 0.084307 -0.703087
vn 0.626074 0.475577 -0.617947
vn 0.002912 -0.657513 -0.753437
vn 0.001074 -0.090493 -0.995897
vn 0.704968 -0.097930 -0.702445
vn 0.537358 -0.652264 -0.534600
vn -0.523919 -0.663291 -0.534372
vn -0.752600 -0.658476 0.001650
vn -0.995721 -0.092394 0.001964
vn -0.693972 -0.090101 -0.714343
vn -0.000674 -0.643313 0.765603
vn -0.001355 -0.958009 0.286736
vn 0.195179 -0.960952 0.196154
vn 0.539563 -0.644802 0.541388
vn 0.689852 0.073330 0.720227
vn 0.007297 0.074941 0.997161
vn 0.001598 0.630477 0.776206
vn 0.544301 0.624172 0.560487
vn 0.761609 -0.648022 -0.004331
vn 0.277987 -0.960585 -0.000390
vn 0.196295 -0.961107 -0.194271
vn 0.997513 0.064023 0.029465
vn 0.817796 0.575301 0.015461
vn 0.582235 0.557913 -0.591384
vn 0.001185 0.468614 -0.883402
vn 0.000119 0.803749 -0.594968
vn 0.421795 0.805003 -0.417204
vn -0.000368 -0.960106 -0.279638
vn -0.105398 -0.989870 -0.095126
vn -0.121806 -0.992553 -0.001416
vn -0.285854 -0.958273 -0.000308
vn -0.196870 -0.961403 -0.192214
vn -0.881829 0.471570 0.000141
vn -0.587026 0.809568 -0.000804
vn -0.410089 0.807411 -0.424164
vn -0.616854 0.467582 -0.633133
vn -0.001995 0.234012 0.972232
vn 0.700984 0.107868 0.704973
vn 0.603306 0.797509 0.000235
vn 0.422735 0.803888 0.418399
vn 0.995686 -0.092586 0.006138
vn 0.704812 -0.081850 0.704656
vn 0.094597 -0.991293 0.091591
vn -0.000658 -0.993819 0.111008
vn -0.199501 -0.959743 0.197719
vn -0.527643 -0.652184 0.544288
vn -0.996842 0.079412 0.000939
vn -0.692308 0.076021 0.717586
vn -0.615569 0.469826 0.632723
vn -0.695482 0.073587 0.714765
vn -0.783190 0.621663 0.012187
vn -0.533979 0.640770 0.551617
vn -0.718673 -0.006073 0.695321
vn -0.999933 -0.005261 -0.010287
vn -0.709970 0.003199 0.704224
vn -0.099429 -0.990818 0.091621
vn -0.000332 0.079760 -0.996814
vn -0.695490 0.080734 -0.713986
vn 0.000212 0.558127 -0.829756
vn -0.567133 0.587491 -0.577248
vn -0.698729 -0.002861 -0.715381
vn -0.022415 -0.000394 -0.999749
vn -0.970874 0.239589 -0.000385
vn -0.695136 0.111250 -0.710218
vn -0.691491 0.111083 0.713793
vn -0.000264 0.803699 0.595037
vn -0.408997 0.807823 0.424433
vn 0.005836 -0.088132 0.996092
vn -0.689965 -0.097686 0.717221
vn 0.000245 -0.004463 -0.999990
vn -0.698571 -0.004242 -0.715528
vn -0.005034 -0.016064 -0.999858
vn 0.711038 -0.016150 -0.702968
vn 0.999988 -0.004979 0.000032
vn 0.708624 -0.004967 -0.705569
vn 0.999854 -0.015166 -0.007926
vn 0.713453 -0.012289 0.700595
vn 0.000374 -0.004550 0.999990
vn 0.704605 -0.005210 0.709580
vn -0.010991 -0.011150 0.999878
vn -0.702742 -0.013977 0.711307
vn -0.999992 -0.003818 -0.001478
vn -0.694420 -0.004176 0.719558
vn -0.999847 -0.015971 -0.007091
vn -0.696505 -0.016754 -0.717356
s 1
g Bat:Group2
usemtl Bat:defaultMat
f 47/1/1 48/2/2 67/3/3 68/4/4
f 37/5/5 38/6/6 22/7/7 6/8/8
f 36/9/9 69/10/10 70/11/11 11/12/12
f 32/13/13 33/14/14 8/15/15 26/16/16
f 45/17/17 46/18/18 71/19/19 70/11/11
f 12/20/20 30/21/21 72/22/22 73/23/23
f 41/24/24 91/25/25 92/26/26 15/27/27
f 24/28/28 93/29/29 94/30/30 18/31/31
f 34/32/32 99/33/33 100/34/34 17/35/35
f 20/36/36 28/37/37 101/38/38 102/39/39
f 42/40/40 107/41/41 108/42/42 14/43/43
f 10/44/44 40/45/45 75/46/46 76/47/47
f 25/48/48 109/49/49 110/50/50 17/35/35
f 11/12/12 23/51/51 77/52/52 78/53/53
f 35/54/54 83/55/55 84/56/56 18/31/31
f 8/15/15 33/14/14 111/57/57 110/50/50
f 7/58/58 27/59/59 112/60/60 113/61/61
f 29/62/62 85/63/63 86/64/64 19/65/65
f 38/6/6 39/66/66 4/67/67 22/7/7
f 10/44/44 23/51/51 71/19/19 68/4/4
f 24/28/28 87/68/68 88/69/69 15/27/27
f 14/43/43 25/48/48 103/70/70 104/71/71
f 2/72/72 26/16/16 109/49/49 108/42/42
f 31/73/73 32/13/13 26/16/16 2/72/72
f 28/37/37 112/60/60 114/74/74 13/75/75
f 29/62/62 96/76/76 98/77/77 16/78/78
f 9/79/79 30/21/21 80/80/80 82/81/81
f 49/82/82 50/83/83 72/22/22 74/84/84
f 27/59/59 32/85/13 31/86/73 1/87/85
f 7/58/58 33/88/14 32/85/13 27/59/59
f 34/32/32 111/89/57 113/61/61 20/36/36
f 19/65/65 35/54/54 95/90/86 97/91/87
f 12/20/20 36/9/9 79/92/88 81/93/89
f 43/94/90 44/95/91 69/10/10 73/23/23
f 21/96/92 38/6/6 37/5/5 5/97/93
f 3/98/94 39/66/66 38/6/6 21/96/92
f 9/79/79 40/99/45 67/100/3 74/84/84
f 41/101/24 89/102/95 90/103/96 16/78/78
f 13/75/75 42/104/40 105/105/97 106/106/98
f 1/87/85 31/86/73 107/107/41 114/74/74
f 5/97/93 37/5/5 51/108/99 52/109/100
f 45/17/17 44/95/91 59/110/101 60/111/102
f 22/7/7 54/112/103 53/113/104 6/8/8
f 47/1/1 46/18/18 61/114/105 62/115/106
f 39/116/66 56/117/107 55/118/108 4/67/67
f 49/82/82 48/119/2 63/120/109 64/121/110
f 21/96/92 58/122/111 57/123/112 3/98/94
f 43/94/90 50/83/83 65/124/113 66/125/114
f 52/109/100 51/108/99 59/110/101 66/125/114
f 53/113/104 51/108/99 37/5/5 6/8/8
f 54/112/103 61/114/105 60/111/102 53/113/104
f 55/118/108 54/112/103 22/7/7 4/67/67
f 56/117/107 63/126/109 62/115/106 55/118/108
f 57/123/112 56/127/107 39/128/66 3/98/94
f 58/122/111 65/124/113 64/121/110 57/123/112
f 52/109/100 58/122/111 21/96/92 5/97/93
f 60/111/102 59/110/101 51/108/99 53/113/104
f 62/115/106 61/114/105 54/112/103 55/118/108
f 64/121/110 63/120/109 56/127/107 57/123/112
f 66/125/114 65/124/113 58/122/111 52/109/100
f 66/125/114 59/110/101 44/95/91 43/94/90
f 61/114/105 46/18/18 45/17/17 60/111/102
f 63/126/109 48/2/2 47/1/1 62/115/106
f 65/124/113 50/83/83 49/82/82 64/121/110
f 68/4/4 67/3/3 40/45/45 10/44/44
f 69/10/10 44/95/91 45/17/17 70/11/11
f 70/11/11 71/19/19 23/51/51 11/12/12
f 73/23/23 72/22/22 50/83/83 43/94/90
f 68/4/4 71/19/19 46/18/18 47/1/1
f 74/84/84 72/22/22 30/21/21 9/79/79
f 73/23/23 69/10/10 36/9/9 12/20/20
f 74/84/84 67/100/3 48/119/2 49/82/82
f 76/47/47 75/46/46 89/129/95 88/69/69
f 78/53/53 77/52/52 87/68/68 84/56/56
f 79/92/88 36/9/9 11/12/12 78/53/53
f 80/80/80 30/21/21 12/20/20 81/93/89
f 77/52/52 23/51/51 10/44/44 76/47/47
f 82/81/81 80/80/80 85/63/63 90/103/96
f 81/93/89 79/92/88 83/55/55 86/64/64
f 75/130/46 40/99/45 9/79/79 82/81/81
f 83/55/55 79/92/88 78/53/53 84/56/56
f 85/63/63 80/80/80 81/93/89 86/64/64
f 87/68/68 77/52/52 76/47/47 88/69/69
f 89/102/95 75/130/46 82/81/81 90/103/96
f 88/69/69 89/129/95 41/24/24 15/27/27
f 84/56/56 87/68/68 24/28/28 18/31/31
f 90/103/96 85/63/63 29/62/62 16/78/78
f 86/64/64 83/55/55 35/54/54 19/65/65
f 91/25/25 105/131/97 104/71/71 92/26/26
f 93/29/29 103/70/70 100/34/34 94/30/30
f 95/90/86 35/54/54 18/31/31 94/30/30
f 97/91/87 96/76/76 29/62/62 19/65/65
f 92/26/26 93/29/29 24/28/28 15/27/27
f 96/76/76 101/38/38 106/106/98 98/77/77
f 97/91/87 95/90/86 99/33/33 102/39/39
f 98/77/77 91/132/25 41/101/24 16/78/78
f 99/33/33 95/90/86 94/30/30 100/34/34
f 102/39/39 101/38/38 96/76/76 97/91/87
f 104/71/71 103/70/70 93/29/29 92/26/26
f 106/106/98 105/105/97 91/132/25 98/77/77
f 105/131/97 42/133/40 14/43/43 104/71/71
f 103/70/70 25/48/48 17/35/35 100/34/34
f 101/38/38 28/37/37 13/75/75 106/106/98
f 102/39/39 99/33/33 34/32/32 20/36/36
f 107/41/41 31/73/73 2/72/72 108/42/42
f 109/49/49 26/16/16 8/15/15 110/50/50
f 110/50/50 111/57/57 34/32/32 17/35/35
f 113/61/61 112/60/60 28/37/37 20/36/36
f 108/42/42 109/49/49 25/48/48 14/43/43
f 112/60/60 27/59/59 1/87/85 114/74/74
f 111/89/57 33/88/14 7/58/58 113/61/61
f 114/74/74 107/107/41 42/134/40 13/75/75
