# This file uses centimeters as units for non-parametric coordinates.

mtllib hatchet.mtl
g default
v -0.010484 12.235098 5.248847
v -0.010484 8.747878 5.248847
v 0.098318 8.747878 4.933537
v 0.098318 12.235098 4.933537
v -0.010484 12.235098 -0.331964
v -0.010484 12.235098 0.668033
v 0.499998 12.235098 0.668033
v 0.499998 12.235098 -0.331964
v -0.010484 8.747878 -0.331964
v 0.499998 8.747878 -0.331964
v -0.010484 8.747878 0.668033
v 0.499998 8.747878 0.668033
v -0.499998 8.747878 -0.331964
v -0.499998 8.747878 0.668033
v -0.499998 12.235098 0.668033
v -0.499998 12.235098 -0.331964
v -0.008653 9.047567 1.400667
v -0.007901 9.426663 0.962745
v 0.376796 9.426663 0.962745
v 0.412663 9.047567 1.400667
v 0.376796 11.556312 0.962745
v 0.412663 11.935409 1.400667
v -0.007901 11.556312 0.962745
v -0.008653 11.935409 1.400667
v -0.376796 11.556312 0.962745
v -0.376796 9.426663 0.962745
v -0.412663 9.047567 1.400667
v -0.412663 11.935409 1.400667
v -0.197909 8.795576 4.371244
v -0.197909 12.187399 4.371244
v -0.010484 12.187399 4.498088
v 0.197909 12.187399 4.371244
v 0.197909 8.795576 4.371244
v -0.010484 8.795576 4.551326
v -0.098318 8.747878 4.933537
v -0.098318 12.235098 4.933537
v -0.415936 -1.574245 0.905830
v 0.415936 -1.574245 0.905830
v -0.365090 12.301976 0.506037
v 0.365090 12.301976 0.506037
v -0.365090 12.301976 -0.224141
v 0.365090 12.301976 -0.224141
v -0.415936 -1.574245 0.073959
v 0.415936 -1.574245 0.073959
v -0.004594 -1.574245 1.096763
v -0.004594 -1.574245 -0.093028
v -0.004033 12.301976 -0.224141
v -0.004033 12.301976 0.506037
v -0.365090 12.301976 0.106218
v -0.004033 12.301976 0.106218
v 0.365090 12.301976 0.106218
v 0.534144 -1.574245 0.450328
v -0.004594 -1.574245 0.450328
v -0.534144 -1.574245 0.450328
v -0.437433 5.301364 0.710605
v -0.004832 5.301364 0.911407
v 0.437433 5.301364 0.710605
v 0.561750 5.301364 0.231562
v 0.437433 5.301364 -0.164260
v -0.004832 5.301364 -0.339876
v -0.437433 5.301364 -0.164260
v -0.561750 5.301364 0.231562
v -0.353187 8.653612 -0.134700
v -0.003901 8.653612 -0.134700
v 0.353187 8.653612 -0.134700
v 0.353187 8.653612 0.184890
v 0.353187 8.653612 0.571674
v -0.003901 8.653612 0.571674
v -0.353187 8.653612 0.571674
v -0.353187 8.653612 0.184890
v -0.340833 8.067801 0.661364
v -0.003765 8.067801 0.858329
v 0.340833 8.067801 0.661364
v 0.437698 8.067801 0.234206
v 0.340833 8.067801 -0.118742
v -0.003765 8.067801 -0.291004
v -0.340833 8.067801 -0.118742
v -0.437698 8.067801 0.234206
v -0.437014 1.833548 0.259118
v -0.004827 1.833547 0.459726
v 0.437014 1.833548 0.259118
v 0.561212 1.833548 -0.219467
v 0.437014 1.833548 -0.614909
v -0.004827 1.833548 -0.790357
v -0.437014 1.833548 -0.614909
v -0.561212 1.833548 -0.219467
v -0.499998 8.747878 0.668033
v 0.499998 8.747878 0.668033
v -0.499998 12.235098 0.668033
v 0.499998 12.235098 0.668033
v -0.499998 12.235098 -0.331964
v 0.499998 12.235098 -0.331964
v -0.499998 8.747878 -0.331964
v 0.499998 8.747878 -0.331964
v -0.098318 8.747878 4.933537
v 0.098318 8.747878 4.933537
v 0.098318 12.235098 4.933537
v -0.098318 12.235098 4.933537
v -0.376796 9.426663 0.962745
v 0.376796 9.426663 0.962745
v 0.376796 11.556312 0.962745
v -0.376796 11.556312 0.962745
v -0.412663 9.047567 1.400667
v -0.412663 11.935409 1.400667
v 0.412663 11.935409 1.400667
v 0.412663 9.047567 1.400667
v -0.010484 8.747878 0.668033
v -0.010484 8.747878 -0.331964
v -0.010484 12.235098 -0.331964
v -0.010484 12.235098 0.668033
v -0.007901 11.556312 0.962745
v -0.008653 11.935409 1.400667
v -0.010484 12.235098 5.248847
v -0.010484 8.747878 5.248847
v -0.008653 9.047567 1.400667
v -0.007901 9.426663 0.962745
v -0.197909 8.795576 4.371244
v -0.197909 12.187399 4.371244
v -0.010484 12.187399 4.498088
v 0.197909 12.187399 4.371244
v 0.197909 8.795576 4.371244
v -0.010484 8.795576 4.551326
vt 0.885490 0.907310
vt 0.654110 0.905660
vt 0.652110 0.882830
vt 0.885290 0.884840
vt 0.902520 0.507210
vt 0.924090 0.580220
vt 0.890770 0.597950
vt 0.888080 0.535890
vt 0.682280 0.472030
vt 0.674470 0.506650
vt 0.644470 0.568530
vt 0.644470 0.504940
vt 0.662780 0.577020
vt 0.617450 0.507170
vt 0.626480 0.576390
vt 0.403290 0.595150
vt 0.403360 0.531330
vt 0.644470 0.635730
vt 0.644470 0.609230
vt 0.692930 0.603890
vt 0.671340 0.636670
vt 0.843850 0.617120
vt 0.863640 0.648420
vt 0.867270 0.626560
vt 0.890680 0.648730
vt 0.449250 0.613760
vt 0.597780 0.603770
vt 0.618720 0.636400
vt 0.429390 0.645340
vt 0.908980 0.619590
vt 0.632410 0.843780
vt 0.404630 0.842510
vt 0.895220 0.855040
vt 0.881120 0.846350
vt 0.657810 0.843750
vt 0.644470 0.856220
vt 0.389910 0.503860
vt 0.611050 0.473780
vt 0.370870 0.579280
vt 0.427080 0.622570
vt 0.385930 0.616240
vt 0.403570 0.644050
vt 0.391650 0.850450
vt 0.638050 0.882880
vt 0.635800 0.904030
vt 0.399530 0.902740
vt 0.399930 0.880680
vt 0.394390 0.901780
vt 0.891710 0.906230
vt 0.644470 0.904640
vt 0.109280 0.278110
vt 0.134480 0.277880
vt 0.134480 0.319900
vt 0.108110 0.318850
vt 0.040020 0.024770
vt 0.069820 0.010400
vt 0.083710 0.029690
vt 0.062920 0.030120
vt 0.053960 0.315360
vt 0.027810 0.313230
vt 0.035820 0.273750
vt 0.060120 0.275320
vt 0.081600 0.970880
vt 0.086740 0.998040
vt 0.034220 0.986430
vt 0.058620 0.972690
vt 0.082230 0.276650
vt 0.078690 0.317220
vt 0.213810 0.315010
vt 0.189260 0.316830
vt 0.186360 0.276420
vt 0.208540 0.275050
vt 0.209430 0.969550
vt 0.234690 0.980810
vt 0.181010 0.996620
vt 0.187150 0.966010
vt 0.232590 0.273510
vt 0.239320 0.312730
vt 0.184830 0.030000
vt 0.197870 0.010450
vt 0.227770 0.024690
vt 0.205660 0.030370
vt 0.160140 0.318510
vt 0.159180 0.277850
vt 0.158590 0.028540
vt 0.169040 0.003680
vt 0.100030 0.001950
vt 0.109820 0.028540
vt 0.134480 0.974330
vt 0.107810 0.967270
vt 0.159750 0.965020
vt 0.169680 0.740950
vt 0.134480 0.740650
vt 0.134480 0.504070
vt 0.166040 0.504430
vt 0.102390 0.504730
vt 0.098850 0.740580
vt 0.063070 0.741210
vt 0.069630 0.505680
vt 0.041940 0.505750
vt 0.034560 0.742240
vt 0.002120 0.741150
vt 0.009830 0.504120
vt 0.226570 0.505110
vt 0.258120 0.503620
vt 0.265710 0.741630
vt 0.233950 0.742920
vt 0.205450 0.742020
vt 0.198830 0.505020
vt 0.134480 0.028950
vt 0.001950 0.752020
vt 0.265800 0.753910
vn 0.000550 0.976946 0.213488
vn 0.002522 -0.977804 0.209507
vn 0.858938 -0.472030 0.198529
vn 0.860577 0.468881 0.198893
vn 0.000000 0.707107 -0.707107
vn 0.000000 0.836139 0.548517
vn 0.709202 0.515778 0.480630
vn 0.577350 0.577350 -0.577350
vn 0.000000 -0.707107 -0.707107
vn 0.000000 0.707107 -0.707107
vn 0.577350 0.577350 -0.577350
vn 0.577350 -0.577350 -0.577350
vn 0.000000 -0.836139 0.548517
vn 0.000000 -0.707107 -0.707107
vn 0.577350 -0.577350 -0.577350
vn 0.709202 -0.515778 0.480630
vn 0.709202 -0.515778 0.480630
vn 0.577350 -0.577350 -0.577350
vn 0.577350 0.577350 -0.577350
vn 0.709202 0.515778 0.480630
vn -0.577350 -0.577350 -0.577350
vn -0.709202 -0.515778 0.480630
vn -0.709203 0.515778 0.480630
vn -0.577350 0.577350 -0.577350
vn 0.000406 -0.921717 -0.387863
vn 0.000000 -0.975055 0.221965
vn 0.830757 -0.499643 0.245356
vn 0.718954 -0.639401 -0.272528
vn 0.830757 -0.499643 0.245356
vn 0.830757 0.499644 0.245356
vn 0.720117 0.638235 -0.272193
vn 0.718954 -0.639401 -0.272528
vn 0.830757 0.499644 0.245356
vn 0.000000 0.975055 0.221965
vn 0.000287 0.921635 -0.388058
vn 0.720117 0.638235 -0.272193
vn -0.830757 0.499643 0.245356
vn -0.830757 -0.499643 0.245356
vn -0.718686 -0.639649 -0.272653
vn -0.719927 0.638411 -0.272282
vn 0.000000 -0.975055 0.221965
vn 0.000000 -0.836139 0.548517
vn 0.709202 -0.515778 0.480630
vn 0.830757 -0.499643 0.245356
vn 0.709202 -0.515778 0.480630
vn 0.709202 0.515778 0.480630
vn 0.830757 0.499644 0.245356
vn 0.830757 -0.499643 0.245356
vn 0.709202 0.515778 0.480630
vn 0.000000 0.836139 0.548517
vn 0.000000 0.975055 0.221965
vn 0.830757 0.499644 0.245356
vn -0.709203 0.515778 0.480630
vn -0.709202 -0.515778 0.480630
vn -0.830757 -0.499643 0.245356
vn -0.830757 0.499643 0.245356
vn -0.719927 0.638411 -0.272282
vn -0.718686 -0.639649 -0.272653
vn -0.672478 -0.739562 0.028665
vn -0.678214 0.734247 0.030117
vn 0.720117 0.638235 -0.272193
vn 0.000287 0.921635 -0.388058
vn 0.005075 0.996574 -0.082548
vn 0.681760 0.730944 0.030421
vn 0.718954 -0.639401 -0.272528
vn 0.720117 0.638235 -0.272193
vn 0.681760 0.730944 0.030421
vn 0.676803 -0.735591 0.029051
vn 0.676803 -0.735591 0.029051
vn 0.006195 -0.996367 -0.084943
vn 0.000406 -0.921717 -0.387863
vn 0.718954 -0.639401 -0.272528
vn -0.577350 -0.577350 -0.577350
vn 0.000000 -0.707107 -0.707107
vn 0.000000 -0.836139 0.548517
vn -0.709202 -0.515778 0.480630
vn -0.577350 0.577350 -0.577350
vn 0.000000 0.707107 -0.707107
vn 0.000000 -0.707107 -0.707107
vn -0.577350 -0.577350 -0.577350
vn -0.709203 0.515778 0.480630
vn 0.000000 0.836139 0.548517
vn 0.000000 0.707107 -0.707107
vn -0.577350 0.577350 -0.577350
vn 0.000000 0.975055 0.221965
vn 0.000000 0.836139 0.548517
vn -0.709203 0.515778 0.480630
vn -0.830757 0.499643 0.245356
vn 0.000287 0.921635 -0.388058
vn 0.000000 0.975055 0.221965
vn -0.830757 0.499643 0.245356
vn -0.719927 0.638411 -0.272282
vn -0.678214 0.734247 0.030117
vn 0.005075 0.996574 -0.082548
vn 0.000287 0.921635 -0.388058
vn -0.719927 0.638411 -0.272282
vn -0.863543 -0.474206 0.171530
vn 0.002522 -0.977804 0.209507
vn 0.000550 0.976946 0.213488
vn -0.865409 0.470631 0.171972
vn -0.718686 -0.639649 -0.272653
vn 0.000406 -0.921717 -0.387863
vn 0.006195 -0.996367 -0.084943
vn -0.672478 -0.739562 0.028665
vn -0.830757 -0.499643 0.245356
vn 0.000000 -0.975055 0.221965
vn 0.000406 -0.921717 -0.387863
vn -0.718686 -0.639649 -0.272653
vn -0.709202 -0.515778 0.480630
vn 0.000000 -0.836139 0.548517
vn 0.000000 -0.975055 0.221965
vn -0.830757 -0.499643 0.245356
vn -0.678214 0.734247 0.030117
vn -0.672478 -0.739562 0.028665
vn -0.863543 -0.474206 0.171530
vn -0.865409 0.470631 0.171972
vn 0.000550 0.976946 0.213488
vn 0.005075 0.996574 -0.082548
vn -0.678214 0.734247 0.030117
vn -0.865409 0.470631 0.171972
vn 0.681760 0.730944 0.030421
vn 0.005075 0.996574 -0.082548
vn 0.000550 0.976946 0.213488
vn 0.860577 0.468881 0.198893
vn 0.676803 -0.735591 0.029051
vn 0.681760 0.730944 0.030421
vn 0.860577 0.468881 0.198893
vn 0.858938 -0.472030 0.198529
vn 0.002522 -0.977804 0.209507
vn 0.006195 -0.996367 -0.084943
vn 0.676803 -0.735591 0.029051
vn 0.858938 -0.472030 0.198529
vn -0.672478 -0.739562 0.028665
vn 0.006195 -0.996367 -0.084943
vn 0.002522 -0.977804 0.209507
vn -0.863543 -0.474206 0.171530
vn 0.735096 0.125105 0.666320
vn -0.001384 0.159773 0.987153
vn -0.003633 0.172577 0.984989
vn 0.770336 0.124900 0.625286
vn 0.000000 0.698388 -0.715719
vn 0.000000 1.000000 0.000000
vn 0.708260 0.705952 0.000000
vn 0.582751 0.566571 -0.582579
vn 0.745139 0.066031 -0.663632
vn -0.003321 0.072099 -0.997392
vn -0.001269 0.045006 -0.998986
vn 0.725406 0.045079 -0.686844
vn 0.687819 -0.725679 -0.017208
vn 0.000000 -1.000000 0.000000
vn -0.002339 -0.792959 -0.609271
vn 0.602042 -0.573934 -0.555108
vn 0.725406 0.045079 -0.686844
vn 0.999516 0.030493 -0.006160
vn 0.998406 0.053476 -0.018053
vn 0.745139 0.066031 -0.663632
vn -0.747382 0.065905 -0.661117
vn -0.998406 0.053476 -0.018054
vn -0.999516 0.030493 -0.006160
vn -0.726374 0.044956 -0.685828
vn -0.604574 -0.573065 -0.553251
vn -0.002339 -0.792959 -0.609271
vn 0.000000 -1.000000 0.000000
vn -0.687819 -0.725679 -0.017208
vn -0.726374 0.044956 -0.685828
vn -0.001269 0.045006 -0.998986
vn -0.003321 0.072099 -0.997392
vn -0.747382 0.065905 -0.661117
vn -0.708260 0.705952 0.000000
vn 0.000000 1.000000 0.000000
vn 0.000000 0.698388 -0.715719
vn -0.582751 0.566571 -0.582579
vn -0.772656 0.124563 0.622485
vn -0.003633 0.172577 0.984989
vn -0.001384 0.159773 0.987153
vn -0.736136 0.124803 0.665228
vn -0.574545 0.583008 0.574455
vn 0.000000 0.713438 0.700718
vn 0.000000 1.000000 0.000000
vn -0.708260 0.705952 0.000000
vn 0.708260 0.705952 0.000000
vn 0.000000 1.000000 0.000000
vn 0.000000 0.713438 0.700718
vn 0.574545 0.583008 0.574455
vn 0.770336 0.124900 0.625286
vn 0.998406 0.053476 -0.018053
vn 0.999516 0.030493 -0.006160
vn 0.735096 0.125105 0.666320
vn -0.003088 -0.680690 0.732565
vn 0.000000 -1.000000 0.000000
vn 0.687819 -0.725679 -0.017208
vn 0.702057 -0.403736 0.586612
vn -0.687819 -0.725679 -0.017208
vn 0.000000 -1.000000 0.000000
vn -0.003088 -0.680690 0.732565
vn -0.704607 -0.403335 0.583823
vn -0.736136 0.124803 0.665228
vn -0.999516 0.030493 -0.006160
vn -0.998406 0.053476 -0.018054
vn -0.772656 0.124563 0.622485
vn -0.769395 0.016308 0.638565
vn -0.004206 0.027755 0.999606
vn -0.004331 -0.051888 0.998644
vn -0.777314 -0.023442 0.628676
vn 0.774586 -0.023678 0.632025
vn -0.004331 -0.051888 0.998644
vn -0.004206 0.027755 0.999606
vn 0.766742 0.016406 0.641746
vn 0.766742 0.016406 0.641746
vn 0.999673 -0.004865 -0.025090
vn 0.999442 0.022685 -0.024534
vn 0.774586 -0.023678 0.632025
vn 0.741131 0.061318 -0.668554
vn 0.999442 0.022685 -0.024534
vn 0.999673 -0.004865 -0.025090
vn 0.734194 -0.026332 -0.678429
vn 0.734194 -0.026332 -0.678429
vn -0.003831 -0.036460 -0.999328
vn -0.003959 0.077398 -0.996992
vn 0.741131 0.061318 -0.668554
vn -0.743778 0.061169 -0.665622
vn -0.003959 0.077398 -0.996992
vn -0.003831 -0.036460 -0.999328
vn -0.736752 -0.026244 -0.675653
vn -0.736752 -0.026244 -0.675653
vn -0.999673 -0.004865 -0.025090
vn -0.999442 0.022685 -0.024534
vn -0.743778 0.061169 -0.665622
vn -0.777314 -0.023442 0.628676
vn -0.999442 0.022685 -0.024534
vn -0.999673 -0.004865 -0.025090
vn -0.769395 0.016308 0.638565
vn -0.582751 0.566571 -0.582579
vn 0.000000 0.698388 -0.715719
vn -0.001269 0.045006 -0.998986
vn -0.726374 0.044956 -0.685828
vn 0.725406 0.045079 -0.686844
vn -0.001269 0.045006 -0.998986
vn 0.000000 0.698388 -0.715719
vn 0.582751 0.566571 -0.582579
vn 0.708260 0.705952 0.000000
vn 0.999516 0.030493 -0.006160
vn 0.725406 0.045079 -0.686844
vn 0.582751 0.566571 -0.582579
vn 0.735096 0.125105 0.666320
vn 0.999516 0.030493 -0.006160
vn 0.708260 0.705952 0.000000
vn 0.574545 0.583008 0.574455
vn 0.000000 0.713438 0.700718
vn -0.001384 0.159773 0.987153
vn 0.735096 0.125105 0.666320
vn 0.574545 0.583008 0.574455
vn -0.736136 0.124803 0.665228
vn -0.001384 0.159773 0.987153
vn 0.000000 0.713438 0.700718
vn -0.574545 0.583008 0.574455
vn -0.708260 0.705952 0.000000
vn -0.999516 0.030493 -0.006160
vn -0.736136 0.124803 0.665228
vn -0.574545 0.583008 0.574455
vn -0.726374 0.044956 -0.685828
vn -0.999516 0.030493 -0.006160
vn -0.708260 0.705952 0.000000
vn -0.582751 0.566571 -0.582579
vn -0.777314 -0.023442 0.628676
vn -0.004331 -0.051888 0.998644
vn -0.003633 0.172577 0.984989
vn -0.772656 0.124563 0.622485
vn 0.770336 0.124900 0.625286
vn -0.003633 0.172577 0.984989
vn -0.004331 -0.051888 0.998644
vn 0.774586 -0.023678 0.632025
vn 0.774586 -0.023678 0.632025
vn 0.999442 0.022685 -0.024534
vn 0.998406 0.053476 -0.018053
vn 0.770336 0.124900 0.625286
vn 0.745139 0.066031 -0.663632
vn 0.998406 0.053476 -0.018053
vn 0.999442 0.022685 -0.024534
vn 0.741131 0.061318 -0.668554
vn 0.741131 0.061318 -0.668554
vn -0.003959 0.077398 -0.996992
vn -0.003321 0.072099 -0.997392
vn 0.745139 0.066031 -0.663632
vn -0.747382 0.065905 -0.661117
vn -0.003321 0.072099 -0.997392
vn -0.003959 0.077398 -0.996992
vn -0.743778 0.061169 -0.665622
vn -0.743778 0.061169 -0.665622
vn -0.999442 0.022685 -0.024534
vn -0.998406 0.053476 -0.018054
vn -0.747382 0.065905 -0.661117
vn -0.772656 0.124563 0.622485
vn -0.998406 0.053476 -0.018054
vn -0.999442 0.022685 -0.024534
vn -0.777314 -0.023442 0.628676
vn -0.704607 -0.403335 0.583823
vn -0.003088 -0.680690 0.732565
vn -0.004206 0.027755 0.999606
vn -0.769395 0.016308 0.638565
vn 0.766742 0.016406 0.641746
vn -0.004206 0.027755 0.999606
vn -0.003088 -0.680690 0.732565
vn 0.702057 -0.403736 0.586612
vn 0.702057 -0.403736 0.586612
vn 0.687819 -0.725679 -0.017208
vn 0.999673 -0.004865 -0.025090
vn 0.766742 0.016406 0.641746
vn 0.734194 -0.026332 -0.678429
vn 0.999673 -0.004865 -0.025090
vn 0.687819 -0.725679 -0.017208
vn 0.602042 -0.573934 -0.555108
vn -0.002339 -0.792959 -0.609271
vn -0.003831 -0.036460 -0.999328
vn 0.734194 -0.026332 -0.678429
vn 0.602042 -0.573934 -0.555108
vn -0.736752 -0.026244 -0.675653
vn -0.003831 -0.036460 -0.999328
vn -0.002339 -0.792959 -0.609271
vn -0.604574 -0.573065 -0.553251
vn -0.604574 -0.573065 -0.553251
vn -0.687819 -0.725679 -0.017208
vn -0.999673 -0.004865 -0.025090
vn -0.736752 -0.026244 -0.675653
vn -0.769395 0.016308 0.638565
vn -0.999673 -0.004865 -0.025090
vn -0.687819 -0.725679 -0.017208
vn -0.704607 -0.403335 0.583823
s off
g hatchet:Group4
usemtl initialShadingGroup
f 1/1/1 2/2/2 3/3/3 4/4/4
f 5/5/5 6/6/6 7/7/7 8/8/8
f 9/9/9 5/5/10 8/8/11 10/10/12
f 11/11/13 9/12/14 10/10/15 12/13/16
f 12/13/17 10/10/18 8/8/19 7/7/20
f 13/14/21 14/15/22 15/16/23 16/17/24
f 17/18/25 18/19/26 19/20/27 20/21/28
f 19/20/29 21/22/30 22/23/31 20/21/32
f 21/22/33 23/24/34 24/25/35 22/23/36
f 25/26/37 26/27/38 27/28/39 28/29/40
f 18/19/41 11/11/42 12/13/43 19/20/44
f 12/13/45 7/7/46 21/22/47 19/20/48
f 7/7/49 6/30/50 23/24/51 21/22/52
f 15/16/53 14/15/54 26/27/55 25/26/56
f 28/29/57 27/28/58 29/31/59 30/32/60
f 22/23/61 24/25/62 31/33/63 32/34/64
f 20/21/65 22/23/66 32/34/67 33/35/68
f 33/35/69 34/36/70 17/18/71 20/21/72
f 13/14/73 9/12/74 11/11/75 14/15/76
f 16/17/77 5/37/78 9/38/79 13/14/80
f 15/16/81 6/39/82 5/37/83 16/17/84
f 23/40/85 6/41/86 15/16/87 25/26/88
f 24/42/89 23/40/90 25/26/91 28/29/92
f 30/32/93 31/43/94 24/42/95 28/29/96
f 35/44/97 2/45/98 1/46/99 36/47/100
f 27/28/101 17/18/102 34/36/103 29/31/104
f 26/27/105 18/19/106 17/18/107 27/28/108
f 14/15/109 11/11/110 18/19/111 26/27/112
f 30/32/113 29/31/114 35/44/115 36/47/116
f 1/48/117 31/43/118 30/32/119 36/47/120
f 32/34/121 31/33/122 1/49/123 4/4/124
f 33/35/125 32/34/126 4/4/127 3/3/128
f 2/50/129 34/36/130 33/35/131 3/3/132
f 29/31/133 34/36/134 2/50/135 35/44/136
f 67/51/137 68/52/138 72/53/139 73/54/140
f 47/55/141 50/56/142 51/57/143 42/58/144
f 75/59/145 76/60/146 64/61/147 65/62/148
f 52/63/149 53/64/150 46/65/151 44/66/152
f 65/62/153 66/67/154 74/68/155 75/59/156
f 77/69/157 78/70/158 70/71/159 63/72/160
f 43/73/161 46/74/162 53/75/163 54/76/164
f 63/72/165 64/77/166 76/78/167 77/69/168
f 49/79/169 50/80/170 47/81/171 41/82/172
f 71/83/173 72/53/174 68/52/175 69/84/176
f 39/85/177 48/86/178 50/80/179 49/79/180
f 51/57/181 50/56/182 48/87/183 40/88/184
f 73/54/185 74/68/186 66/67/187 67/51/188
f 45/89/189 53/64/190 52/63/191 38/90/192
f 54/76/193 53/75/194 45/89/195 37/91/196
f 69/84/197 70/71/198 78/70/199 71/83/200
f 79/92/201 80/93/202 56/94/203 55/95/204
f 57/96/205 56/94/206 80/93/207 81/97/208
f 81/97/209 82/98/210 58/99/211 57/96/212
f 59/100/213 58/99/214 82/98/215 83/101/216
f 83/101/217 84/102/218 60/103/219 59/100/220
f 61/104/221 60/105/222 84/106/223 85/107/224
f 85/107/225 86/108/226 62/109/227 61/104/228
f 55/95/229 62/109/230 86/108/231 79/92/232
f 41/82/233 47/81/234 64/77/235 63/72/236
f 65/62/237 64/61/238 47/55/239 42/58/240
f 51/57/241 66/67/242 65/62/243 42/58/244
f 67/51/245 66/67/246 51/57/247 40/88/248
f 48/110/249 68/52/250 67/51/251 40/88/252
f 69/84/253 68/52/254 48/110/255 39/85/256
f 49/79/257 70/71/258 69/84/259 39/85/260
f 63/72/261 70/71/262 49/79/263 41/82/264
f 55/95/265 56/94/266 72/53/267 71/83/268
f 73/54/269 72/53/270 56/94/271 57/96/272
f 57/96/273 58/99/274 74/68/275 73/54/276
f 75/59/277 74/68/278 58/99/279 59/100/280
f 59/100/281 60/103/282 76/60/283 75/59/284
f 77/69/285 76/78/286 60/105/287 61/104/288
f 61/104/289 62/109/290 78/70/291 77/69/292
f 71/83/293 78/70/294 62/109/295 55/95/296
f 37/91/297 45/89/298 80/93/299 79/92/300
f 81/97/301 80/93/302 45/89/303 38/90/304
f 38/90/305 52/63/306 82/98/307 81/97/308
f 83/101/309 82/98/310 52/63/311 44/66/312
f 46/65/313 84/111/314 83/101/315 44/66/316
f 85/107/317 84/112/318 46/74/319 43/73/320
f 43/73/321 54/76/322 86/108/323 85/107/324
f 79/92/325 86/108/326 54/76/327 37/91/328
